<svg id="bbbbec09-2736-4d2d-b1ea-6bc9fdceb83f" data-name="Layer 1" xmlns="http://www.w3.org/2000/svg" viewBox="0 0 1343.02 363.67"><title>hero-cover</title><g opacity="0.1"><path d="M311.87,115.75c0-6.62-8.3-12.9-21-16.79,2.94-13,1.63-23.28-4.12-26.58a8.85,8.85,0,0,0-4.56-1.14v4.54a4.79,4.79,0,0,1,2.32.53c2.77,1.59,4,7.65,3,15.43-.23,1.92-.59,3.94-1,6a100.49,100.49,0,0,0-12.95-2.22,100.16,100.16,0,0,0-8.47-10.19c6.64-6.17,12.88-9.56,17.12-9.56V71.22h0c-5.61,0-12.95,4-20.37,10.92-7.41-6.89-14.75-10.84-20.36-10.84v4.54c4.22,0,10.48,3.37,17.12,9.5a97,97,0,0,0-8.41,10.17,95.23,95.23,0,0,0-13,2.25c-.47-2-.81-4-1.06-5.92-1-7.78.23-13.84,3-15.45a4.58,4.58,0,0,1,2.34-.53V71.32h0a9.1,9.1,0,0,0-4.6,1.14c-5.73,3.3-7,13.6-4.06,26.52-12.68,3.91-20.93,10.17-20.93,16.77s8.29,12.91,21,16.8c-2.93,13-1.63,23.28,4.12,26.58a9,9,0,0,0,4.58,1.14c5.61,0,12.95-4,20.37-10.92,7.42,6.88,14.75,10.84,20.36,10.84a9.16,9.16,0,0,0,4.61-1.14c5.72-3.3,7-13.6,4.05-26.52C303.61,128.64,311.87,122.36,311.87,115.75Zm-26.54-13.59c-.76,2.63-1.7,5.34-2.76,8-.83-1.63-1.71-3.26-2.67-4.89S278,102.1,277,100.55C279.86,101,282.66,101.51,285.33,102.16ZM276,123.87c-1.59,2.75-3.22,5.36-4.91,7.78-3,.27-6.12.41-9.21.41s-6.16-.14-9.18-.39c-1.69-2.42-3.34-5-4.93-7.74s-3-5.38-4.24-8.12c1.26-2.73,2.69-5.46,4.22-8.13s3.22-5.36,4.91-7.78c3-.27,6.12-.41,9.22-.41s6.15.14,9.17.39c1.69,2.42,3.34,5,4.93,7.74s3,5.38,4.24,8.11C278.93,118.46,277.52,121.2,276,123.87Zm6.58-2.65c1.11,2.73,2,5.46,2.82,8.11-2.67.65-5.49,1.2-8.4,1.63,1-1.57,2-3.18,2.93-4.83S281.74,122.85,282.57,121.22ZM261.91,143a81.85,81.85,0,0,1-5.67-6.53c1.83.08,3.71.15,5.6.15s3.82-.05,5.67-.15A79.5,79.5,0,0,1,261.91,143Zm-15.17-12c-2.89-.43-5.69-1-8.36-1.61.76-2.63,1.7-5.34,2.76-8,.83,1.63,1.71,3.26,2.67,4.89S245.74,129.41,246.74,131ZM261.8,88.54a83.44,83.44,0,0,1,5.67,6.52c-1.83-.08-3.71-.14-5.6-.14s-3.82,0-5.67.14A81,81,0,0,1,261.8,88.54Zm-15.08,12c-1,1.57-2,3.18-2.93,4.83s-1.82,3.26-2.65,4.89c-1.11-2.73-2-5.46-2.82-8.11C241,101.53,243.81,101,246.72,100.55Zm-18.45,25.52c-7.21-3.08-11.88-7.12-11.88-10.32s4.67-7.25,11.88-10.31c1.76-.75,3.67-1.43,5.65-2.06a96.68,96.68,0,0,0,4.59,12.41A95.46,95.46,0,0,0,234,128.15C232,127.51,230.05,126.82,228.27,126.07Zm11,29.13c-2.77-1.59-4-7.65-3-15.44.23-1.91.59-3.93,1-6A98.79,98.79,0,0,0,250.19,136a99.06,99.06,0,0,0,8.48,10.2c-6.65,6.17-12.89,9.56-17.13,9.56A4.94,4.94,0,0,1,239.24,155.2Zm48.35-15.54c1,7.79-.23,13.84-3,15.45a4.48,4.48,0,0,1-2.34.53c-4.22,0-10.48-3.36-17.12-9.5A97.27,97.27,0,0,0,273.57,136a95.38,95.38,0,0,0,13-2.24A58.62,58.62,0,0,1,287.59,139.66Zm7.85-13.59c-1.76.75-3.67,1.42-5.65,2.06a96.8,96.8,0,0,0-4.59-12.42,95.35,95.35,0,0,0,4.53-12.35c2,.63,3.93,1.33,5.73,2.08,7.21,3.08,11.88,7.11,11.88,10.31S302.65,123,295.44,126.07Z" fill="#70cff0"/><circle cx="261.84" cy="115.75" r="9.32" fill="#70cff0"/></g><g opacity="0.1"><path d="M533.85,154.91h20l-50,86.25-50-86.25H492.1l11.75,20,11.5-20Z" fill="#43b883"/><path d="M453.85,154.91l50,86.25,50-86.25h-20l-30,51.75L473.6,154.91Z" fill="#43b883"/><path d="M473.6,154.91l30.25,52,30-52h-18.5l-11.5,20-11.75-20Z" fill="#364a5e"/></g><g opacity="0.1"><path d="M108.14,250.9h-25V258h17.15a32.38,32.38,0,0,1-20.72,23.22L38.5,240.19a32.14,32.14,0,0,1,30.36-21.43,33,33,0,0,1,26.43,13.57l5.35-4.64a39.26,39.26,0,0,0-70,14.64l47.15,47.14C94.93,285.19,108.14,269.47,108.14,250.9Z" fill="#fff"/><path d="M29.57,251.26A38.14,38.14,0,0,0,41,278.4a38.77,38.77,0,0,0,27.14,11.43Z" fill="#fff"/><path d="M68.86,200.9a50,50,0,1,0,50,50A50.15,50.15,0,0,0,68.86,200.9ZM41,278.76a38.77,38.77,0,0,1-11.43-27.14L68.5,290.19C58.5,289.83,48.5,286.26,41,278.76Zm36.43,10.36L30.64,242.33a39.26,39.26,0,0,1,70-14.64l-5.35,4.64a33,33,0,0,0-26.43-13.57A32.48,32.48,0,0,0,38.5,240.19l41.07,41.07A32.38,32.38,0,0,0,100.29,258H83.14V250.9h25A39.4,39.4,0,0,1,77.43,289.12Z" fill="#663795"/></g><path d="M494.32,45h18.86v1.5H496.05V57.8h16.11v1.5H496.05V71.71h17.33v1.5H494.32Zm20.55,0h2l8.88,12.41L534.83,45l12.35-15.77L526.9,58.7l10.45,14.51h-2.09L525.76,60l-9.55,13.2h-2.05L524.69,58.7,514.87,45Zm23.22,1.5V45h21.5v1.5h-9.9V73.21H548V46.49h-9.87ZM470.73,45h2.16l29.8,44.69L490.37,73.21,472.53,47.12l-.08,26.09h-1.72Zm88.68,26.27a.63.63,0,1,1,.62-.63.61.61,0,0,1-.62.63Zm1.7-1.66H562a.84.84,0,0,0,.91.84c.61,0,.95-.36.95-1V65.1h.94v4.31A1.74,1.74,0,0,1,563,71.33a1.7,1.7,0,0,1-1.85-1.73Zm5,0H567c.08.58.65.94,1.46.94s1.31-.39,1.31-.93-.35-.74-1.16-.93l-.78-.19c-1.09-.26-1.6-.79-1.6-1.68,0-1.09.89-1.81,2.21-1.81a2,2,0,0,1,2.19,1.75h-.92a1.16,1.16,0,0,0-1.28-.91c-.75,0-1.24.35-1.24.9s.32.69,1.11.87l.67.17c1.24.29,1.76.79,1.76,1.71,0,1.16-.91,1.89-2.34,1.89s-2.25-.69-2.32-1.78Z" fill="#3853a4" opacity="0.1"/><g opacity="0.1"><path d="M1023.53,70.64c0-6.62-8.3-12.9-21-16.8,2.94-13,1.63-23.27-4.11-26.58a9,9,0,0,0-4.57-1.14v4.55a4.66,4.66,0,0,1,2.32.53c2.78,1.59,4,7.64,3,15.43-.22,1.91-.59,3.93-1,6a98.63,98.63,0,0,0-12.94-2.22,99.12,99.12,0,0,0-8.48-10.19c6.64-6.18,12.88-9.56,17.12-9.56V26.1h0c-5.61,0-12.94,4-20.36,10.93-7.42-6.89-14.76-10.85-20.37-10.85v4.55c4.22,0,10.48,3.36,17.13,9.5a94.84,94.84,0,0,0-8.42,10.17,95.26,95.26,0,0,0-13,2.24q-.69-3.06-1.06-5.91c-.95-7.79.23-13.84,3-15.45a4.51,4.51,0,0,1,2.34-.53V26.2h0a9,9,0,0,0-4.6,1.15c-5.73,3.3-7,13.59-4.06,26.51C931.78,57.78,923.53,64,923.53,70.64s8.29,12.9,21,16.8c-2.93,13-1.63,23.27,4.12,26.58a9,9,0,0,0,4.59,1.14c5.6,0,12.94-4,20.36-10.93,7.42,6.89,14.76,10.85,20.36,10.85a9.07,9.07,0,0,0,4.61-1.15c5.73-3.3,7-13.59,4.06-26.51C1015.27,83.52,1023.53,77.24,1023.53,70.64ZM997,57c-.76,2.63-1.69,5.34-2.75,8.06-.84-1.63-1.72-3.27-2.67-4.9s-1.94-3.22-2.94-4.77C991.53,55.86,994.32,56.39,997,57Zm-9.34,21.71c-1.59,2.75-3.22,5.36-4.91,7.79-3,.26-6.11.41-9.21.41s-6.16-.15-9.17-.39q-2.55-3.65-4.94-7.75c-1.55-2.67-2.95-5.38-4.24-8.11,1.27-2.73,2.69-5.46,4.22-8.13s3.22-5.36,4.91-7.79c3-.26,6.12-.41,9.22-.41s6.15.15,9.17.39q2.53,3.65,4.93,7.75t4.24,8.11C990.59,73.35,989.18,76.08,987.65,78.75Zm6.59-2.65c1.1,2.73,2,5.47,2.81,8.12-2.67.65-5.48,1.2-8.4,1.63,1-1.57,2-3.18,2.94-4.84S993.4,77.73,994.24,76.1ZM973.57,97.85a85.6,85.6,0,0,1-5.67-6.52c1.84.08,3.71.14,5.61.14s3.81,0,5.66-.14A81,81,0,0,1,973.57,97.85Zm-15.17-12c-2.89-.43-5.68-1-8.35-1.61.75-2.63,1.69-5.34,2.75-8.06.83,1.63,1.71,3.27,2.67,4.9S957.4,84.3,958.4,85.85Zm15.07-42.42A85.55,85.55,0,0,1,979.13,50c-1.83-.08-3.71-.14-5.6-.14s-3.81,0-5.67.14A81.06,81.06,0,0,1,973.47,43.43Zm-15.09,12c-1,1.57-2,3.18-2.93,4.83s-1.82,3.27-2.65,4.9c-1.1-2.73-2-5.47-2.81-8.12C952.66,56.41,955.47,55.86,958.38,55.43ZM939.94,81c-7.22-3.07-11.89-7.11-11.89-10.31s4.67-7.26,11.89-10.31c1.75-.76,3.67-1.43,5.64-2.06a97.23,97.23,0,0,0,4.59,12.41A97.4,97.4,0,0,0,945.64,83,60,60,0,0,1,939.94,81Zm11,29.13c-2.77-1.59-4-7.64-3-15.43.22-1.91.59-3.93,1-6a98.79,98.79,0,0,0,13,2.22,97.85,97.85,0,0,0,8.48,10.19c-6.65,6.18-12.88,9.56-17.12,9.56A4.83,4.83,0,0,1,950.9,110.08Zm48.35-15.53c1,7.79-.22,13.84-3,15.45a4.54,4.54,0,0,1-2.35.53c-4.22,0-10.48-3.36-17.12-9.5a97.06,97.06,0,0,0,8.42-10.17,95.11,95.11,0,0,0,13-2.24A55.51,55.51,0,0,1,999.25,94.55ZM1007.1,81a60,60,0,0,1-5.65,2.06,98.66,98.66,0,0,0-4.58-12.41,97.29,97.29,0,0,0,4.52-12.35c2,.63,3.94,1.32,5.73,2.08,7.21,3.07,11.88,7.11,11.88,10.31S1014.31,77.9,1007.1,81Z" fill="#70cff0"/><circle cx="973.51" cy="70.64" r="9.32" fill="#70cff0"/></g><g opacity="0.1"><path d="M1246.44,90.51h20l-50,86.25-50-86.25h38.25l11.75,20,11.5-20Z" fill="#43b883"/><path d="M1166.44,90.51l50,86.25,50-86.25h-20l-30,51.75-30.25-51.75Z" fill="#43b883"/><path d="M1186.19,90.51l30.25,52,30-52h-18.5l-11.5,20-11.75-20Z" fill="#364a5e"/></g><path d="M1111.92,256.92h18.86v1.51h-17.13v11.3h16.11v1.51h-16.11v12.41H1131v1.5h-19Zm20.55,0h2l8.88,12.42,9.08-12.42,12.34-15.76-20.28,29.48,10.45,14.51h-2.08l-9.51-13.2-9.55,13.2h-2l10.53-14.51-9.82-13.72Zm23.22,1.51v-1.51h21.49v1.51h-9.9v26.72h-1.73V258.43Zm-67.37-1.51h2.16l29.8,44.7L1108,285.15l-17.84-26.09-.08,26.09h-1.73ZM1177,283.2a.63.63,0,0,1,0-1.26.63.63,0,0,1,0,1.26Zm1.7-1.66h.92a.85.85,0,0,0,.92.84c.6,0,.94-.36.94-1V277h.94v4.3a1.74,1.74,0,0,1-1.87,1.93,1.69,1.69,0,0,1-1.85-1.73Zm5-.05h.93c.08.58.64.94,1.46.94s1.31-.39,1.31-.93-.36-.74-1.16-.93l-.78-.19c-1.1-.26-1.6-.79-1.6-1.68,0-1.09.88-1.81,2.21-1.81a2,2,0,0,1,2.18,1.75h-.91a1.16,1.16,0,0,0-1.28-.92c-.75,0-1.25.36-1.25.91s.32.69,1.12.87l.66.17c1.25.29,1.76.79,1.76,1.71,0,1.16-.9,1.89-2.34,1.89s-2.25-.69-2.31-1.78Z" fill="#3853a4" opacity="0.1"/><g opacity="0.1"><path d="M1322.77,335.06c0-2.7-3.38-5.25-8.55-6.83,1.19-5.28.66-9.47-1.67-10.81a3.6,3.6,0,0,0-1.86-.47v1.85a2,2,0,0,1,1,.22c1.12.64,1.61,3.11,1.23,6.27-.09.78-.24,1.6-.42,2.44a40.08,40.08,0,0,0-5.27-.91,40.83,40.83,0,0,0-3.44-4.14c2.7-2.51,5.23-3.89,7-3.89v-1.85h0c-2.28,0-5.26,1.63-8.28,4.45-3-2.8-6-4.41-8.28-4.41v1.85c1.71,0,4.26,1.36,7,3.86a39.31,39.31,0,0,0-3.42,4.13,37.93,37.93,0,0,0-5.27.92,22.84,22.84,0,0,1-.44-2.41c-.39-3.16.1-5.63,1.21-6.28a1.87,1.87,0,0,1,1-.22V317h0a3.77,3.77,0,0,0-1.88.46c-2.32,1.34-2.85,5.53-1.65,10.78-5.15,1.6-8.51,4.14-8.51,6.83s3.38,5.24,8.55,6.83c-1.2,5.27-.67,9.46,1.67,10.8a3.61,3.61,0,0,0,1.87.47c2.28,0,5.26-1.63,8.28-4.44,3,2.8,6,4.41,8.28,4.41a3.66,3.66,0,0,0,1.87-.47c2.33-1.34,2.85-5.53,1.65-10.78C1319.41,340.29,1322.77,337.74,1322.77,335.06Zm-10.8-5.53c-.3,1.07-.68,2.17-1.11,3.27-.34-.66-.7-1.33-1.09-2s-.79-1.31-1.19-1.94C1309.75,329.05,1310.89,329.26,1312,329.53Zm-3.79,8.82c-.65,1.12-1.31,2.18-2,3.17-1.23.11-2.49.17-3.75.17s-2.5-.06-3.73-.16c-.68-1-1.35-2-2-3.15s-1.2-2.19-1.73-3.3c.52-1.11,1.1-2.22,1.72-3.31s1.31-2.18,2-3.16c1.23-.11,2.48-.17,3.74-.17s2.51.06,3.73.16q1,1.48,2,3.15c.63,1.08,1.2,2.19,1.72,3.3C1309.37,336.16,1308.8,337.27,1308.18,338.35Zm2.68-1.07c.44,1.11.82,2.22,1.14,3.3q-1.63.39-3.42.66c.41-.64.82-1.29,1.2-2S1310.52,337.94,1310.86,337.28Zm-8.41,8.84a32.69,32.69,0,0,1-2.3-2.65c.74,0,1.51.06,2.28.06s1.55,0,2.3-.06A32.59,32.59,0,0,1,1302.45,346.12Zm-6.17-4.88c-1.17-.18-2.31-.39-3.39-.66.3-1.07.68-2.17,1.11-3.27.34.66.7,1.33,1.09,2S1295.88,340.61,1296.28,341.24Zm6.13-17.25a34.49,34.49,0,0,1,2.3,2.65c-.74,0-1.5-.06-2.28-.06s-1.55,0-2.3.06A34.39,34.39,0,0,1,1302.41,324Zm-6.13,4.88c-.41.64-.82,1.3-1.2,2s-.74,1.32-1.08,2c-.44-1.11-.82-2.23-1.14-3.3Q1294.5,329.14,1296.28,328.87Zm-7.51,10.38c-2.93-1.25-4.83-2.89-4.83-4.19s1.9-3,4.83-4.2c.72-.31,1.5-.58,2.3-.84a37.78,37.78,0,0,0,1.87,5.05,37.76,37.76,0,0,0-1.84,5C1290.28,339.84,1289.5,339.56,1288.77,339.25Zm4.46,11.84c-1.12-.64-1.61-3.1-1.23-6.27.09-.78.24-1.6.42-2.44a40.08,40.08,0,0,0,5.27.91,39.55,39.55,0,0,0,3.44,4.14c-2.7,2.51-5.24,3.89-7,3.89A1.92,1.92,0,0,1,1293.23,351.09Zm19.66-6.31c.39,3.16-.09,5.63-1.21,6.28a1.81,1.81,0,0,1-1,.22c-1.71,0-4.26-1.37-7-3.87a38.31,38.31,0,0,0,3.42-4.13,39.51,39.51,0,0,0,5.27-.91A22.73,22.73,0,0,1,1312.89,344.78Zm3.2-5.53c-.72.31-1.5.58-2.3.84a39.11,39.11,0,0,0-1.86-5,41.26,41.26,0,0,0,1.84-5,23.32,23.32,0,0,1,2.32.84c2.94,1.25,4.84,2.89,4.84,4.2S1319,338,1316.09,339.25Z" fill="#70cff0"/><circle cx="1302.43" cy="335.06" r="3.79" fill="#70cff0"/></g><g opacity="0.1"><path d="M117.19,22.85h6l-15.07,26-15.07-26H104.6l3.54,6,3.47-6Z" fill="#43b883"/><path d="M93.07,22.85l15.07,26,15.07-26h-6l-9,15.6L99,22.85Z" fill="#43b883"/><path d="M99,22.85l9.12,15.68,9-15.68h-5.58l-3.47,6-3.54-6Z" fill="#364a5e"/></g><g opacity="0.1"><path d="M927.49,332.11h-4.91v1.4H926a6.36,6.36,0,0,1-4.07,4.56L913.81,330a6.32,6.32,0,0,1,6-4.21,6.51,6.51,0,0,1,5.2,2.67l1-.91a7.71,7.71,0,0,0-13.75,2.87l9.26,9.26A7.88,7.88,0,0,0,927.49,332.11Z" fill="#fff"/><path d="M912.06,332.18a7.5,7.5,0,0,0,2.24,5.33,7.64,7.64,0,0,0,5.33,2.24Z" fill="#fff"/><path d="M919.77,322.29a9.82,9.82,0,1,0,9.83,9.82A9.85,9.85,0,0,0,919.77,322.29Zm-5.47,15.29a7.62,7.62,0,0,1-2.24-5.33l7.64,7.57A8,8,0,0,1,914.3,337.58Zm7.16,2-9.19-9.19A7.71,7.71,0,0,1,926,327.55l-1,.91a6.51,6.51,0,0,0-5.2-2.67,6.39,6.39,0,0,0-6,4.21l8.07,8.07a6.36,6.36,0,0,0,4.07-4.56h-3.37v-1.4h4.91A7.72,7.72,0,0,1,921.46,339.61Z" fill="#663795"/></g><path d="M345.6,264.06a6.23,6.23,0,0,0-2,.36,5.71,5.71,0,0,1,2.4,3.36c0,.18.08.31.1.49a2.4,2.4,0,0,1,.05.46c.11,2.27-.59,2.56-1.08,3.9a5.53,5.53,0,0,0,.36,5.09,3.2,3.2,0,0,0,.31.57c-1-6.54,4.47-7.52,5.47-9.56.08-1.78-1.39-3-2.55-3.79a5.64,5.64,0,0,0-3-.88Zm8.21,1.47a3.39,3.39,0,0,0-.05.75c0,.21,0,.46-.05.67a4.83,4.83,0,0,1-.18.62,5,5,0,0,1-.21.62c-.1.21-.18.39-.28.59s-.13.21-.21.31l-.15.24c-.13.18-.26.36-.39.51a3.48,3.48,0,0,1-.47.47v0c-.15.13-.31.29-.49.42-.54.41-1.16.72-1.73,1.11a4,4,0,0,0-.51.38,3.29,3.29,0,0,0-.49.42,4.37,4.37,0,0,0-.47.49,4,4,0,0,0-.39.51c-.13.19-.25.37-.36.55s-.18.38-.28.59a4.76,4.76,0,0,0-.21.6,6.28,6.28,0,0,0-.18.64c0,.1,0,.23,0,.34a2.87,2.87,0,0,0-.05.31c0,.2,0,.44,0,.64a9.21,9.21,0,0,0,.11,1.11,4.25,4.25,0,0,0,.12.62c.08.21.13.42.21.62a4,4,0,0,0,.18.36l-5.94-2.29c-1-.29-2-.55-3-.78l-1.63-.39a46.69,46.69,0,0,0-4.7-.69c-.05,0-.08,0-.13,0a44.66,44.66,0,0,0-4.62-.23c-1.14,0-2.28.05-3.39.13-1.57.1-3.15.31-4.72.56-.39.06-.78.13-1.16.21-.8.16-1.58.34-2.33.52l-1.16.31c-.39.15-.75.33-1.11.49l-.85.39c-.05,0-.11,0-.13.05-.26.13-.49.23-.73.36a1,1,0,0,0-.18.08c-.28.13-.56.28-.8.41s-.36.18-.51.26l-.24.13-.67.38a6.71,6.71,0,0,0-.62.39c-.18.13-.36.23-.51.36s-.06,0-.08,0a5.72,5.72,0,0,0-.49.37l-.05.05-.39.31c-.05,0-.1.08-.16.1l-.38.34c0,.05-.08.07-.11.1s-.31.28-.46.44c0,0,0,0,0,.05s-.31.29-.47.44,0,0-.05,0-.26.26-.39.41-.13.11-.18.16a6.23,6.23,0,0,1-.44.46c0,.06-.07.08-.1.13-.21.21-.39.42-.59.62l-.08.08a14.42,14.42,0,0,1-1.32,1.27,13.72,13.72,0,0,1-1.44,1.13c-.52.36-1,.67-1.55,1a14.39,14.39,0,0,1-1.63.78c-.54.23-1.11.44-1.68.62a29.57,29.57,0,0,1-3.15.75,4.81,4.81,0,0,0-.65.08l-.64.15-.62.23a5.75,5.75,0,0,0-.62.29c-.18.13-.39.23-.57.36a4.32,4.32,0,0,0-.52.44,4.51,4.51,0,0,0-.51.46,6.75,6.75,0,0,0-.44.52c-.13.21-.29.39-.39.59a4,4,0,0,0-.36.6,6.35,6.35,0,0,0-.28.67c-.08.2-.16.44-.24.67s-.1.41-.13.62c0,0,0,.05,0,.08-.05.23-.05.54-.08.69a3.05,3.05,0,0,0,0,.52,1.34,1.34,0,0,0,0,.34,2.5,2.5,0,0,0,.1.49,2.92,2.92,0,0,0,.18.46v0c.08.15.18.31.28.46s.21.31.34.47a5.89,5.89,0,0,0,.44.41,3.23,3.23,0,0,0,.49.41,5.77,5.77,0,0,0,1.57,1.14c.13.08.26.13.42.21l.07,0a.21.21,0,0,0,0,.13c0,.21.08.41.13.62a3.22,3.22,0,0,0,.21.62l.2.47a.74.74,0,0,0,.08.13c.1.2.21.38.31.56l.39.55c.13.15.28.33.44.49s.31.28.49.44a.08.08,0,0,0,.05,0,4.82,4.82,0,0,0,.46.36,4.08,4.08,0,0,0,.57.34,3.67,3.67,0,0,0,.6.28,2.55,2.55,0,0,0,.51.18s.05,0,.11.06l.33.07a10.47,10.47,0,0,0,.1,3.18c.24.52,1.37-1.06,2.51-2.87a15.56,15.56,0,0,0,0,4.5c.28.64,1.83-1.37,3.18-3.59a29.84,29.84,0,0,1,36.77,26.29c-.33-2.79-3.77-4.34-5.34-3.95a13.54,13.54,0,0,1-4.21,5.88,16.6,16.6,0,0,0-.26-5.16,16.82,16.82,0,0,1-3.2,6.51,7.22,7.22,0,0,1-6.2-2.79c-.11-.08-.13-.24-.21-.34s-.15-.36-.21-.54a2.72,2.72,0,0,1-.15-.54,3.44,3.44,0,0,1,0-.57v-.39a5.29,5.29,0,0,1,.13-.54q.07-.27.18-.54c.11-.18.18-.37.31-.55.44-1.24.44-2.24-.36-2.84a2.51,2.51,0,0,0-.49-.25l-.33-.11a1.8,1.8,0,0,1-.21-.08,3.49,3.49,0,0,0-.54-.12,1.75,1.75,0,0,0-.55-.08,3.53,3.53,0,0,0-.56,0l-.39,0a2.07,2.07,0,0,0-.57.08,5.12,5.12,0,0,0-.54.1l-.54.18-.52.24c-.16.07-.31.18-.49.25-6,3.93-2.43,13.12,1.68,15.78a13,13,0,0,0-3.57,1l-.05.05a24.11,24.11,0,0,0,3.49,1.73c1.65.54,3.41,1,4.18,1.24v0a24.92,24.92,0,0,0,6.51.46,24.57,24.57,0,0,0,22.52-21l.15.67c.08.47.18,1,.24,1.45v0c0,.24.07.47.1.68v.1a5.29,5.29,0,0,1,.05.67,8.08,8.08,0,0,1,.05.85v.42c0,.13,0,.28,0,.41s0,.31,0,.46v.37c0,.18,0,.33,0,.51a1.38,1.38,0,0,1,0,.34c0,.18,0,.36,0,.57a.58.58,0,0,0,0,.23c0,.21-.05.39-.08.59a1,1,0,0,1,0,.24c0,.25-.08.49-.11.74v.06c-.05.23-.1.49-.15.72v.08c-.05.23-.11.46-.16.69,0,0,0,.08,0,.11q-.07.34-.18.69v.08c-.08.26-.16.49-.21.72a.09.09,0,0,0,0,.06l-.23.77-.28.75c-.11.26-.18.52-.29.75s-.2.49-.31.75h0c-.11.23-.21.49-.34.72a.61.61,0,0,1-.08.18.35.35,0,0,1-.05.08,24.62,24.62,0,0,1-7.25,8.68,6.37,6.37,0,0,0-.62.44c-.06.05-.13.07-.18.12l-.57.39.07.16h0l1.09-.16h0c.67-.1,1.34-.23,2-.36a5.66,5.66,0,0,0,.56-.13l.37-.08c.18,0,.36-.07.54-.1l.46-.13a48.7,48.7,0,0,0,7.49-2.48,41.29,41.29,0,0,1-16,13.1,42.56,42.56,0,0,0,8.81-1.53,41.26,41.26,0,0,0,24.41-19.5,41.28,41.28,0,0,1-7,16.61,40.56,40.56,0,0,0,6.89-5.73,41,41,0,0,0,10.88-22,41.32,41.32,0,0,1,.74,12.45c18.65-26,1.55-53-5.6-60.07,0-.05-.05-.07-.05-.13s0,0,0,.06a.07.07,0,0,0,0-.06c0,.31,0,.62,0,.93-.08.6-.16,1.17-.26,1.73s-.29,1.14-.44,1.71-.39,1.11-.62,1.65-.49,1.06-.78,1.58a16.44,16.44,0,0,1-.93,1.47c-.33.49-.69.95-1.05,1.39s-.81.88-1.22,1.29c-.26.24-.49.44-.75.65l-.59.52a14.88,14.88,0,0,1-1.45,1c-.49.31-1,.62-1.52.88s-1.09.49-1.63.73-1.11.38-1.68.54-1.16.28-1.73.38-1.18.16-1.75.21c-.42,0-.83,0-1.24,0-.6,0-1.19,0-1.76-.1a12.5,12.5,0,0,1-1.75-.26,12.66,12.66,0,0,1-1.74-.44h0c.57-.05,1.14-.1,1.7-.2s1.17-.24,1.73-.39,1.14-.34,1.68-.54a16.1,16.1,0,0,0,1.63-.73c.54-.26,1-.54,1.55-.85s1-.67,1.45-1a14.47,14.47,0,0,0,1.31-1.16,14.64,14.64,0,0,0,1.22-1.27c.38-.46.74-.93,1.08-1.39a2.26,2.26,0,0,1,.16-.26c.25-.42.51-.83.74-1.24a16.53,16.53,0,0,0,.78-1.58c.23-.54.44-1.08.62-1.65s.31-1.11.44-1.68.2-1.16.26-1.73.1-1.19.1-1.76c0-.41,0-.82-.05-1.23,0-.6-.13-1.17-.21-1.74a16.67,16.67,0,0,0-.39-1.73c-.18-.54-.36-1.11-.56-1.65s-.47-1.08-.73-1.6-.57-1-.88-1.52-.67-1-1-1.42-.77-.88-1.19-1.32c-.2-.21-.44-.44-.67-.65-1.16-.9-2.37-1.75-3.59-2.53-.18-.1-.33-.18-.51-.26a10.38,10.38,0,0,0-2.46-1.08Z" fill="#e0244f" fill-rule="evenodd" opacity="0.1"/><path d="M733.48,48.3a6.23,6.23,0,0,0-2,.36,5.68,5.68,0,0,1,2.4,3.35c0,.19.08.31.1.5A2.42,2.42,0,0,1,734,53c.1,2.27-.6,2.56-1.09,3.9A5.53,5.53,0,0,0,733.3,62a3.59,3.59,0,0,0,.31.57c-1-6.54,4.47-7.52,5.48-9.56.07-1.78-1.4-3-2.56-3.8a5.71,5.71,0,0,0-3-.87Zm8.22,1.47a3,3,0,0,0-.06.75c0,.2,0,.46,0,.67a5.34,5.34,0,0,1-.18.62,5.67,5.67,0,0,1-.21.62c-.1.2-.18.39-.28.59s-.13.21-.21.31l-.15.23c-.13.18-.26.37-.39.52a3.41,3.41,0,0,1-.46.47v0c-.16.13-.31.29-.49.41-.55.42-1.17.73-1.73,1.12a8.32,8.32,0,0,0-1,.8,4.37,4.37,0,0,0-.47.49,3.22,3.22,0,0,0-.38.51,4.72,4.72,0,0,0-.36.55c-.11.2-.19.38-.29.59s-.15.39-.21.59-.12.44-.18.65,0,.23-.05.33a2.87,2.87,0,0,1,0,.31c0,.21,0,.44,0,.65a2.37,2.37,0,0,0,0,.46,3,3,0,0,0,.08.65,4.56,4.56,0,0,0,.13.62l.2.62.18.36L729.14,62c-1-.28-2-.54-3-.77l-1.63-.39c-1.55-.31-3.12-.54-4.7-.7l-.13,0a44.66,44.66,0,0,0-4.62-.23c-1.14,0-2.27.05-3.38.12-1.58.11-3.15.31-4.73.57-.39,0-.77.13-1.16.21-.8.15-1.58.34-2.33.52l-1.16.31c-.39.15-.75.33-1.11.49l-.85.38c-.05,0-.1,0-.13.06-.26.12-.49.23-.72.36a1.13,1.13,0,0,0-.18.07c-.29.13-.57.29-.8.42l-.52.26-.23.13a7,7,0,0,0-.67.38,5.59,5.59,0,0,0-.62.39,5.85,5.85,0,0,0-.52.36.35.35,0,0,1-.08,0l-.49.36,0,.06-.39.31a1.3,1.3,0,0,0-.15.1c-.13.1-.26.23-.39.34s-.08.07-.1.1-.31.28-.47.44c0,0,0,0-.05,0a4.73,4.73,0,0,0-.46.44s0,0-.06,0-.25.26-.38.41l-.18.16c-.13.15-.29.31-.44.46s-.08.08-.11.13c-.2.21-.38.42-.59.62l-.08.08a13.1,13.1,0,0,1-1.32,1.26,12.62,12.62,0,0,1-1.44,1.14c-.52.36-1,.67-1.55,1a16.33,16.33,0,0,1-1.63.78c-.54.23-1.11.44-1.68.62a29.57,29.57,0,0,1-3.15.75c-.2,0-.44,0-.64.07l-.65.16-.62.23c-.21.08-.41.18-.62.28s-.39.24-.57.37a3.58,3.58,0,0,0-.51.44,4.5,4.5,0,0,0-.52.46c-.15.18-.31.34-.44.52s-.28.38-.39.59a5.8,5.8,0,0,0-.36.59c-.1.24-.2.44-.28.68s-.16.43-.23.67a3.25,3.25,0,0,0-.13.62s0,0,0,.07c-.05.24-.05.55-.08.7a4.57,4.57,0,0,0,0,.52,1.23,1.23,0,0,0,0,.33,2.36,2.36,0,0,0,.1.49,3,3,0,0,0,.18.47v0a3.89,3.89,0,0,0,.29.46,4.48,4.48,0,0,0,.33.47l.44.41a4.83,4.83,0,0,0,.49.41A6.28,6.28,0,0,0,678,85.77a3.13,3.13,0,0,0,.41.2s0,0,.08,0a.3.3,0,0,0,0,.13c0,.21.08.41.13.62a3.22,3.22,0,0,0,.21.62c.08.15.13.31.21.46a.37.37,0,0,0,.07.13l.31.57.39.54a5,5,0,0,0,.44.49,5.26,5.26,0,0,0,.49.44s0,0,.05,0a4.91,4.91,0,0,0,.47.36,5.21,5.21,0,0,0,.56.34,5.5,5.5,0,0,0,.6.28,2.44,2.44,0,0,0,.52.18s0,0,.1,0l.33.08a10.37,10.37,0,0,0,.11,3.18c.23.51,1.37-1.06,2.5-2.87a15.86,15.86,0,0,0,0,4.49c.29.65,1.84-1.36,3.18-3.59A29.84,29.84,0,0,1,726,118.82c-.33-2.78-3.77-4.33-5.34-3.95a13.48,13.48,0,0,1-4.21,5.89,16.6,16.6,0,0,0-.26-5.16,16.77,16.77,0,0,1-3.2,6.5,7.19,7.19,0,0,1-6.2-2.79c-.1-.07-.13-.23-.21-.33s-.15-.36-.2-.54a2.16,2.16,0,0,1-.16-.55,5.06,5.06,0,0,1,0-.56v-.39a2.65,2.65,0,0,1,.13-.54,4.4,4.4,0,0,1,.18-.55,5,5,0,0,1,.31-.54c.43-1.24.43-2.24-.37-2.84a3.24,3.24,0,0,0-.49-.26c-.1,0-.23-.07-.33-.1l-.21-.08a5.29,5.29,0,0,0-.54-.13,2,2,0,0,0-.54-.07,3.68,3.68,0,0,0-.57-.06c-.13,0-.26,0-.39,0a2.07,2.07,0,0,0-.57.08,3.41,3.41,0,0,0-.54.1,3.8,3.8,0,0,0-.54.18l-.52.23c-.15.08-.31.18-.49.26-6,3.93-2.43,13.12,1.68,15.78a12.77,12.77,0,0,0-3.56,1l-.06.05a24.63,24.63,0,0,0,3.49,1.73c1.65.54,3.41,1,4.18,1.24v0a25,25,0,0,0,6.51.47,24.56,24.56,0,0,0,22.52-21c0,.23.11.44.16.67.07.47.18,1,.23,1.45v0a6.43,6.43,0,0,1,.1.67v.11a5.29,5.29,0,0,1,0,.67,8.09,8.09,0,0,1,.06.85v.41c0,.13,0,.29,0,.42s0,.31,0,.46V118c0,.18,0,.34,0,.52a1.42,1.42,0,0,1,0,.34c0,.18,0,.36,0,.56a.66.66,0,0,0,0,.24c0,.2-.05.38-.08.59a.86.86,0,0,1,0,.23c0,.26-.08.49-.1.75v0c-.06.24-.11.49-.16.73v.07l-.15.7s0,.08,0,.1a5.53,5.53,0,0,1-.18.7v.08c-.08.26-.16.49-.21.72a.1.1,0,0,0,0,0l-.24.78-.28.75c-.1.26-.18.51-.28.75s-.21.49-.31.75h0a7.79,7.79,0,0,1-.34.72,1.13,1.13,0,0,1-.07.18.35.35,0,0,0-.05.08,24.42,24.42,0,0,1-7.26,8.67c-.21.13-.41.29-.62.44,0,.06-.13.08-.18.13s-.36.26-.57.39l.08.16h0l1.09-.16h0c.68-.1,1.35-.23,2-.36.18,0,.39-.08.57-.13l.36-.08c.18,0,.36-.08.54-.1l.46-.13a48.34,48.34,0,0,0,7.49-2.48,41.32,41.32,0,0,1-16,13.09,41.69,41.69,0,0,0,8.8-1.52,41.24,41.24,0,0,0,24.41-19.5,41.28,41.28,0,0,1-7,16.61,40.61,40.61,0,0,0,17.77-27.69,41,41,0,0,1,.75,12.45c18.64-26,1.55-53-5.61-60.07,0-.05-.05-.08-.05-.13s0,0,0,0,0,0,0,0c0,.31,0,.62-.05.93-.08.6-.16,1.16-.26,1.73s-.28,1.14-.44,1.71-.39,1.11-.62,1.65-.49,1.06-.77,1.57-.6,1-.93,1.48-.7.95-1.06,1.39a16.68,16.68,0,0,1-1.22,1.29c-.25.24-.49.44-.74.65l-.6.51a13.26,13.26,0,0,1-1.44,1c-.5.31-1,.62-1.53.88s-1.08.49-1.63.72-1.11.39-1.67.55-1.17.28-1.73.38-1.19.16-1.76.21c-.41,0-.83.05-1.24.05-.59,0-1.19-.05-1.76-.1a12.73,12.73,0,0,1-1.75-.26,12.52,12.52,0,0,1-1.73-.44h0a16.62,16.62,0,0,0,1.71-.21c.59-.1,1.16-.23,1.73-.38s1.13-.34,1.68-.55a14,14,0,0,0,1.62-.72c.54-.26,1-.54,1.55-.85s1-.67,1.45-1a14.58,14.58,0,0,0,1.31-1.17,13.22,13.22,0,0,0,1.22-1.26c.39-.47.75-.93,1.08-1.4l.16-.25c.26-.42.51-.83.75-1.24s.54-1,.77-1.58.44-1.08.62-1.65.31-1.11.44-1.68.21-1.16.26-1.73.1-1.19.1-1.76c0-.41,0-.82-.05-1.24,0-.59-.13-1.16-.21-1.73s-.23-1.16-.38-1.73-.36-1.11-.57-1.65-.47-1.08-.72-1.6-.57-1-.88-1.53-.67-1-1-1.42-.77-.87-1.18-1.31c-.21-.21-.44-.44-.67-.65-1.17-.9-2.38-1.75-3.59-2.53-.19-.1-.34-.18-.52-.26a10.15,10.15,0,0,0-2.45-1.08Z" fill="#e0244f" fill-rule="evenodd" opacity="0.1"/><path d="M941.43,198.6a1.56,1.56,0,0,0-.53.1,1.45,1.45,0,0,1,.63.87l0,.13s0,.08,0,.12c0,.6-.15.67-.28,1a1.45,1.45,0,0,0,.09,1.33,1.09,1.09,0,0,0,.08.15c-.25-1.71,1.17-2,1.43-2.5a1.26,1.26,0,0,0-.66-1,1.56,1.56,0,0,0-.8-.23Zm2.14.39a1.77,1.77,0,0,0,0,.19,1.09,1.09,0,0,0,0,.18s0,.11,0,.16a1,1,0,0,1,0,.16l-.08.16a.56.56,0,0,0,0,.08l0,.06-.1.13a.74.74,0,0,1-.13.12h0l-.12.11c-.15.11-.31.19-.46.29l-.13.1a.69.69,0,0,0-.13.11.74.74,0,0,0-.12.13,1.47,1.47,0,0,0-.1.13l-.1.14a1.11,1.11,0,0,1-.07.16.88.88,0,0,0-.05.15,1.54,1.54,0,0,0,0,.17.28.28,0,0,0,0,.09s0,.05,0,.08v.29a1.11,1.11,0,0,0,0,.17.94.94,0,0,0,0,.16s0,.11,0,.16a.31.31,0,0,0,.05.1l-1.55-.6c-.27-.08-.52-.15-.79-.21l-.42-.1c-.4-.08-.82-.14-1.23-.18h0c-.41,0-.8-.06-1.21-.06s-.59,0-.88,0a10.74,10.74,0,0,0-1.24.15l-.3.05-.61.13-.3.09-.29.12-.22.1,0,0-.18.09,0,0-.21.11-.13.07-.07,0-.17.1-.16.1a1.7,1.7,0,0,0-.14.1h0l-.13.1h0l-.1.08,0,0-.1.09,0,0-.12.12h0l-.13.12h0l-.1.11-.05,0-.11.12,0,0-.15.16,0,0a5.5,5.5,0,0,1-.73.63,3.42,3.42,0,0,1-.4.26l-.42.2-.44.16a8.22,8.22,0,0,1-.83.2l-.16,0-.17,0-.16.06-.17.07s-.1.06-.15.1l-.13.11-.13.12a.75.75,0,0,0-.12.14l-.1.15a.83.83,0,0,0-.09.16,1.3,1.3,0,0,0-.08.17l-.06.18a.9.9,0,0,0,0,.16s0,0,0,0,0,.14,0,.18a.66.66,0,0,0,0,.14v.09l0,.12a.61.61,0,0,0,0,.12h0a.75.75,0,0,0,.07.12l.09.12.11.11a.69.69,0,0,0,.13.11,1.61,1.61,0,0,0,.41.3l.11.05h0a0,0,0,0,0,0,0,.9.9,0,0,0,0,.16.59.59,0,0,0,.06.16s0,.09.05.13l0,0,.08.15.1.14.12.13.12.11h0l.12.09.15.09.15.08.14,0,0,0,.09,0a2.83,2.83,0,0,0,0,.83c.06.13.36-.28.65-.75a4.41,4.41,0,0,0,0,1.17c.08.17.48-.36.83-.94a7.79,7.79,0,0,1,9.6,6.87,1.3,1.3,0,0,0-1.39-1,3.51,3.51,0,0,1-1.1,1.53,4.11,4.11,0,0,0-.07-1.35,4.5,4.5,0,0,1-.83,1.7,1.88,1.88,0,0,1-1.62-.72s0-.07-.06-.09a1.21,1.21,0,0,1,0-.14.83.83,0,0,1,0-.15.61.61,0,0,1,0-.14v-.1a.83.83,0,0,1,0-.15,1,1,0,0,1,0-.14l.08-.14c.12-.32.12-.59-.09-.74l-.13-.07-.09,0,0,0-.14,0-.14,0h-.25l-.15,0-.14,0-.14.05-.14.06-.13.07c-1.57,1-.63,3.42.44,4.12a3.24,3.24,0,0,0-.93.25h0a7,7,0,0,0,.91.45c.43.14.89.27,1.09.32h0a6.07,6.07,0,0,0,1.7.12,6.42,6.42,0,0,0,5.88-5.47c0,.06,0,.11,0,.17s0,.25.06.38h0l0,.17v0c0,.06,0,.12,0,.17a1.77,1.77,0,0,1,0,.23v.1s0,.08,0,.11,0,.08,0,.12v.23a.28.28,0,0,1,0,.09c0,.05,0,.1,0,.15v.06a.78.78,0,0,0,0,.16.13.13,0,0,1,0,.06l0,.19h0a1.06,1.06,0,0,1,0,.19v0l0,.19v0c0,.06,0,.12-.05.18v0l-.06.18v0l-.06.2-.08.2a1.46,1.46,0,0,1-.07.19,1.67,1.67,0,0,0-.08.2h0c0,.06,0,.12-.09.19a.05.05,0,0,1,0,0s0,0,0,0a6.39,6.39,0,0,1-1.9,2.27l-.16.11s0,0,0,0l-.15.1,0,0h0l.29,0h0l.53-.1.15,0,.09,0,.14,0,.13,0a13.12,13.12,0,0,0,2-.65,10.86,10.86,0,0,1-4.19,3.42,10.56,10.56,0,0,0,2.3-.4,10.78,10.78,0,0,0,6.38-5.09,10.82,10.82,0,0,1-1.82,4.34,10,10,0,0,0,1.8-1.5,10.72,10.72,0,0,0,2.84-5.73,10.73,10.73,0,0,1,.2,3.25c4.86-6.79.4-13.83-1.47-15.69,0,0,0,0,0,0h0a1.94,1.94,0,0,1,0,.24c0,.16,0,.31-.07.46s-.07.29-.11.44-.1.29-.16.43-.13.28-.2.41-.16.27-.25.39a3.38,3.38,0,0,1-.27.36c-.1.12-.21.23-.32.34l-.2.17-.15.13a3.67,3.67,0,0,1-.38.27,3.11,3.11,0,0,1-.4.22l-.42.19c-.14.06-.29.1-.44.15l-.45.1-.46.05h-.32l-.46,0-.46-.07a3.31,3.31,0,0,1-.45-.12h0a3.44,3.44,0,0,0,.45,0l.45-.1.44-.14c.14-.06.29-.12.42-.19l.41-.22.37-.27c.12-.1.24-.2.35-.31a3.26,3.26,0,0,0,.31-.33,4.57,4.57,0,0,0,.29-.36.25.25,0,0,1,0-.07l.19-.32a4,4,0,0,0,.21-.41c.06-.14.11-.29.16-.43s.08-.29.11-.44a4.14,4.14,0,0,0,.07-.45c0-.16,0-.32,0-.46s0-.22,0-.33,0-.3,0-.45-.06-.3-.1-.45l-.15-.43a3.17,3.17,0,0,0-.19-.42c-.07-.14-.15-.27-.23-.4s-.17-.25-.27-.37-.2-.23-.31-.34a1.37,1.37,0,0,0-.17-.17,11.43,11.43,0,0,0-.94-.66l-.14-.07a2.36,2.36,0,0,0-.64-.28Z" fill="#e0244f" fill-rule="evenodd" opacity="0.1"/><g opacity="0.1"><path d="M730.63,300.9h-25V308h17.14a32.38,32.38,0,0,1-20.72,23.22L661,290.19a32.14,32.14,0,0,1,30.36-21.43,33,33,0,0,1,26.43,13.57l5.36-4.64a39.26,39.26,0,0,0-70,14.64l47.14,47.14C717.41,335.19,730.63,319.47,730.63,300.9Z" fill="#fff"/><path d="M652.05,301.26a38.14,38.14,0,0,0,11.43,27.14,38.77,38.77,0,0,0,27.15,11.43Z" fill="#fff"/><path d="M691.34,250.9a50,50,0,1,0,50,50A50.15,50.15,0,0,0,691.34,250.9Zm-27.86,77.86a38.77,38.77,0,0,1-11.43-27.14L691,340.19C681,339.83,671,336.26,663.48,328.76Zm36.43,10.36-46.78-46.79a39.26,39.26,0,0,1,70-14.64l-5.36,4.64a33,33,0,0,0-26.43-13.57A32.49,32.49,0,0,0,661,290.19l41.07,41.07A32.38,32.38,0,0,0,722.77,308H705.63V300.9h25A39.41,39.41,0,0,1,699.91,339.12Z" fill="#663795"/></g></svg>