<?xml version="1.0" encoding="utf-8"?>
<!-- Generator: Adobe Illustrator 21.0.2, SVG Export Plug-In . SVG Version: 6.00 Build 0)  -->
<svg version="1.1" id="Слой_1" xmlns="http://www.w3.org/2000/svg" xmlns:xlink="http://www.w3.org/1999/xlink" x="0px" y="0px"
	 viewBox="0 0 977.1 752" style="enable-background:new 0 0 977.1 752;" xml:space="preserve">
<style type="text/css">
	.st0{fill:#FFFFFF;}
	.st1{fill:#B3BFE2;}
	.st2{fill:#FDD05B;}
	.st3{fill:#FF1A36;}
</style>
<g id="Options_3_">
	<g>
		<path d="M632.2,132.3c-23.5-0.5-47-1.1-70.6-1.6c-3.5-0.1-3.3,5.3,0.1,5.4c23.5,0.5,47,1.1,70.6,1.6
			C635.8,137.8,635.6,132.4,632.2,132.3z"/>
	</g>
	<g>
		<path d="M632.2,173.8c-23.5-0.5-47-1.1-70.6-1.6c-3.5-0.1-3.3,5.3,0.1,5.4c23.5,0.5,47,1.1,70.6,1.6
			C635.8,179.3,635.6,173.9,632.2,173.8z"/>
	</g>
	<g>
		<path d="M632.2,224.4c-23.5-0.5-47-1.1-70.6-1.6c-3.5-0.1-3.3,5.3,0.1,5.4c23.5,0.5,47,1.1,70.6,1.6
			C635.8,229.8,635.6,224.4,632.2,224.4z"/>
	</g>
	<g>
		<path class="st0" d="M627,210.3c-22.7-1-21.8,30.9-1.4,31.8C646,243,648.1,211.2,627,210.3z"/>
		<path d="M626.4,244.8c-0.3,0-0.6,0-0.9,0c-6.9-0.3-12.7-3.9-15.8-9.8c-3.2-6.2-3-13.8,0.6-19.4c3.5-5.4,9.4-8.3,16.8-7.9
			c7,0.3,12.4,3.6,15.4,9.3c3.1,6,2.8,14-0.9,19.8C638.2,241.9,632.8,244.8,626.4,244.8z M625.9,213c-6.3,0-9.5,2.9-11.1,5.4
			c-2.5,4-2.6,9.6-0.3,14c1.3,2.5,4.4,6.6,11.2,6.9c4.8,0.2,8.8-1.8,11.2-5.6c2.7-4.3,3-10.1,0.7-14.4c-1.4-2.7-4.5-6.1-10.8-6.3
			l0,0C626.5,213,626.2,213,625.9,213z"/>
	</g>
	<g>
		<path class="st0" d="M626.1,162.8c-23.2-0.4-21.4,32.2-0.5,32.5C646.5,195.7,647.7,163.2,626.1,162.8z"/>
		<path d="M625.9,198.1c-0.1,0-0.2,0-0.3,0c-7.1-0.1-13.1-3.6-16.4-9.6c-3.5-6.2-3.4-14,0-19.8c3.4-5.6,9.4-8.6,16.9-8.5
			c7.1,0.1,12.8,3.3,15.9,9c3.4,6.1,3.2,14.2-0.4,20.2C638.3,194.9,632.6,198.1,625.9,198.1z M625.7,165.6c-6.9,0-10.2,3.2-11.8,5.9
			c-2.5,4.1-2.5,9.9,0,14.4c1.4,2.5,4.7,6.7,11.7,6.8c5,0.1,9-2.1,11.4-6c2.7-4.4,2.8-10.4,0.3-14.8c-1.5-2.8-4.8-6.1-11.3-6.2l0,0
			C625.9,165.6,625.8,165.6,625.7,165.6z"/>
	</g>
	<g>
		<path class="st0" d="M626.7,119.5c-23.2-0.4-21.4,32.2-0.5,32.5C647.1,152.3,648.4,119.9,626.7,119.5z"/>
		<path d="M626.6,154.7c-0.1,0-0.2,0-0.4,0c-12.5-0.2-19.1-10.4-19-19.9c0.1-8.7,6.2-18,19.1-18c0.1,0,0.3,0,0.4,0l0,0
			c12.8,0.2,18.5,10,18.4,19C645,145.3,638.6,154.7,626.6,154.7z M626.4,122.2c-10,0-13.6,6.8-13.7,12.7c-0.1,7,4.5,14.3,13.6,14.4
			c0.1,0,0.2,0,0.3,0c8.9,0,13.1-7,13.2-13.6c0.1-6.6-3.9-13.4-13-13.5C626.6,122.2,626.5,122.2,626.4,122.2z"/>
	</g>
</g>
<g id="Window_10_">
	<g id="Window_11_">
		<g>
			<path class="st0" d="M574.3,520.8c-11.6,18.1-32.2,16.7-57.2,19.6c-1,0.2-2.1,0.3-3.2,0.4c0,0,0,0,0,0
				c-6.2,0.6-12.8,1.2-19.6,1.5c-8.2,0.5-16.8,0.8-25.6,1c-2.6,0.1-5.2,0.2-7.8,0.2c-1.1,0-2.2,0.1-3.4,0.1c-1.9,0-3.8,0.1-5.8,0.1
				c-11.2,0.2-22.7,0.4-33.9,0.6h-0.6c-14.4,0.4-28.8,0.7-42.9,0.8c-2.3,0-4.6,0-6.9,0c-16.1,0.1-31.5,0.1-45.9-0.2
				c-44.3-0.8-79.7-3.5-99.7-8.9c-29.9-8.1-19.1-103-14.5-289.6c4.4-176-14.8-150.2,195.8-153.7c176.2-2.9,175.5-1,179.9,157.3
				C586.5,376.3,586.9,501.2,574.3,520.8z"/>
			<path d="M352.4,547.9c-11,0-21.2-0.1-30.9-0.3c-48.5-0.9-81.3-3.9-100.4-9c-26-7-23.9-68.9-19.6-192.2c1-29.6,2.2-63.1,3.1-100.1
				c0.4-14.4,0.6-27.5,0.7-39.2c1.8-115.9,2.8-117,127.8-116.8c20.2,0,43.1,0.1,70-0.4c91.6-1.5,133.1-1.3,155.9,18.6
				c23.4,20.4,24.5,60.1,26.6,139.2l0.1,2.1c4.6,166.5,1.6,255.6-9.1,272.3l0,0c-10.5,16.3-27.6,17.8-47.5,19.7
				c-3.7,0.3-7.6,0.7-11.6,1.2c-1,0.2-2.1,0.3-3.2,0.4l-0.1,0c-6.3,0.7-12.9,1.2-19.6,1.5c-8.8,0.5-17.9,0.8-25.7,1
				c-2.6,0.1-5.2,0.2-7.9,0.2l-15.4,0.3c-9.2,0.2-18.4,0.3-27.6,0.5h-0.7c-15.4,0.4-29.5,0.7-42.9,0.8c-2.3,0-4.6,0-6.9,0
				C362.3,547.8,357.3,547.9,352.4,547.9z M319.3,95.8c-51.7,0-78.7,0.9-92.4,13.4c-14.8,13.5-15.2,41.7-16.1,98
				c-0.2,11.6-0.4,24.8-0.7,39.2c-0.9,37-2.1,70.5-3.1,100.1c-4,116.6-6.3,180.8,15.6,186.8c18.4,5,51.7,7.9,99.1,8.8
				c13.9,0.3,28.9,0.3,45.9,0.2c2.3,0,4.6,0,6.9,0c13.4-0.1,27.4-0.3,42.9-0.8h0.7c9.1-0.2,18.4-0.4,27.6-0.5l15.4-0.3
				c2.6,0,5.2-0.1,7.8-0.2c7.8-0.2,16.8-0.5,25.6-1c6.6-0.3,13.1-0.8,19.4-1.5l0.3,0c0.8-0.1,1.8-0.2,2.8-0.3
				c4.1-0.5,8.1-0.8,11.9-1.2c19.2-1.8,34.4-3.2,43.4-17.2l0,0c10-15.5,12.8-106.1,8.3-269.3l-0.1-2.1C576,92.6,576,92.6,403.2,95.4
				c-27,0.4-49.9,0.4-70.1,0.4C328.3,95.8,323.7,95.8,319.3,95.8z"/>
		</g>
		<g>
			<path d="M566,542.3c-0.1,1.8-0.1,3.7-0.2,5.4c0,0.4,0,0.8,0,1.2c-0.1,1.9-0.8,3.6-2.1,5.3c0,0,0,0,0,0
				c-14.6,1.2-30.4,1.9-46.9,2.4c-1.2-4.4-2.4-8.7-3.8-13c-14,0.2-28.2,0.4-42.2,0.6h-0.7c-18,0.4-35.9,0.7-53.4,0.8
				c-2.9,0-5.7,0-8.6,0c-20,0.1-39.2,0.1-57.2-0.2c-0.1-4.9-0.1-9.7-0.2-14.3c-0.4-30.6-1.2-54.1-1.2-72.2
				c0-50.6,11.1-46,111.8-46.2c73.9-0.2,99.3-5.6,100.4,18.6C563.6,471.9,566.8,509.9,566,542.3z"/>
		</g>
		<g>
			<path class="st1" d="M494.6,493.5c-1.3-2.9-2.5-5.7-3.9-8.6c-6-12.9-16.4-41.1-35.2-33.3c-6.9,2.8-10.6,10.4-13.8,16.7
				c-1.1,2.1-2.1,4.2-3.1,6.3c-0.7,1.5-1.4,3-2.2,4.5c-0.2,0.4-0.4,0.9-0.6,1.3c-3.1,6.6-6.1,13.4-9,20.1c-0.8,2-1.7,4-2.5,6
				c-1.2,2.7-2.4,5.5-3.5,8.2c-1,2.3-2,4.7-3,7c-1.2,2.9-2.5,5.8-3.7,8.8c-0.9,2.1-1.8,4.2-2.6,6.3c-1.1,2.7-2.2,5.4-3.4,8.2
				c2.8,0,5.7,0,8.6,0c17.5-0.1,35.4-0.4,53.4-0.8h0.7c14.1-0.3,28.3-0.5,42.2-0.6C507.9,526.6,501.7,509.8,494.6,493.5z"/>
		</g>
		<g>
			<path class="st0" d="M452.6,488c7.5,0.5,15,3.5,22.5,4.8c6.9,1.2,13.5,1.5,19.5,0.8c-1.3-2.9-2.6-5.7-3.9-8.6
				c-6-12.9-16.4-41-35.2-33.3c-6.9,2.8-10.6,10.4-13.8,16.7c-3.9,7.6-7.4,15.5-10.9,23.4C438,489.7,445.1,487.5,452.6,488z"/>
		</g>
		<g>
			<path class="st0" d="M396.7,435c-21.8,0-19.6,31.8,0,31.8C416.3,466.8,417.1,435,396.7,435z"/>
		</g>
	</g>
	<g id="Chain_1_">
		<g>
			<path d="M277.4,421.5c-1.5,0-2.7-1.2-2.7-2.7v-32.6c0-1.5,1.2-2.7,2.7-2.7c1.5,0,2.7,1.2,2.7,2.7v32.6
				C280.1,420.3,278.8,421.5,277.4,421.5z M302.9,374.8c-1.4,0-2.5-1-2.7-2.4c-0.2-1.5,0.9-2.8,2.4-3c8.4-0.9,18.8-1.3,32.7-1.3h0
				c1.5,0,2.7,1.2,2.7,2.7c0,1.5-1.2,2.7-2.7,2.7c-13.8,0-24,0.4-32.2,1.3C303.1,374.8,303,374.8,302.9,374.8z M400.4,374.5
				C400.4,374.5,400.3,374.5,400.4,374.5c-9.2-0.1-18.4-0.3-27.3-0.5l-5.2-0.1c-1.5,0-2.7-1.3-2.7-2.8s1.3-2.7,2.8-2.7l5.2,0.1
				c9,0.2,18.1,0.4,27.3,0.5c1.5,0,2.7,1.2,2.7,2.7C403.1,373.3,401.9,374.5,400.4,374.5z M432.8,374.2c-1.4,0-2.6-1.1-2.7-2.5
				c-0.1-1.5,1-2.8,2.5-2.9c11-0.9,21.1-3.7,30.1-8.3c1.3-0.7,3-0.2,3.6,1.2c0.7,1.3,0.2,3-1.2,3.6c-9.6,4.9-20.4,7.9-32.1,8.9
				C433,374.2,432.9,374.2,432.8,374.2z M488.7,344.9c-0.6,0-1.2-0.2-1.7-0.6c-1.2-0.9-1.4-2.6-0.5-3.8c6.3-8.2,10.9-17.6,13.6-28.1
				c0.4-1.4,1.9-2.3,3.3-1.9c1.4,0.4,2.3,1.9,1.9,3.3c-2.9,11.2-7.8,21.3-14.6,30C490.3,344.6,489.5,344.9,488.7,344.9z
				 M505.2,283.7c-1.4,0-2.5-1-2.7-2.4c-1.2-10.7-4.2-20.8-9.1-29.9c-0.7-1.3-0.2-3,1.1-3.7c1.3-0.7,3-0.2,3.7,1.1
				c5.2,9.7,8.5,20.5,9.8,31.9c0.2,1.5-0.9,2.8-2.4,3C505.4,283.7,505.3,283.7,505.2,283.7z M474.9,228.2c-0.6,0-1.1-0.2-1.6-0.6
				c-8.1-6.2-17.6-10.7-28.2-13.4c-1.4-0.4-2.3-1.8-2-3.3c0.4-1.5,1.8-2.3,3.3-2c11.3,2.9,21.4,7.7,30.1,14.3
				c1.2,0.9,1.4,2.6,0.5,3.8C476.5,227.9,475.7,228.2,474.9,228.2z M413.5,210.9c0,0-0.1,0-0.1,0c-8.8-0.3-17-0.5-24.4-0.5
				c-2.9,0-5.6,0-8,0.1c-1.4-0.1-2.7-1.2-2.8-2.7c0-1.5,1.2-2.7,2.7-2.8c2.4,0,5.1-0.1,8.1-0.1c7.4,0,15.7,0.2,24.6,0.5
				c1.5,0.1,2.7,1.3,2.6,2.8C416.2,209.8,415,210.9,413.5,210.9z M360.7,197.2c-1.4,0-2.6-1.1-2.7-2.5c-0.2-3.3-0.3-7-0.3-11.2
				c0-6.2,0.2-11,0.2-11.2c0.1-1.5,1.4-2.6,2.8-2.6c1.5,0.1,2.6,1.3,2.6,2.8c0,0-0.2,4.9-0.2,11c0,4,0.1,7.7,0.3,10.8
				c0.1,1.5-1,2.8-2.5,2.9C360.8,197.2,360.7,197.2,360.7,197.2z"/>
		</g>
	</g>
	<g id="Gears_1_">
		<g>
			<path class="st2" d="M420.4,238.3c-77.4,0-69.6,108.3,0,108.3C490.1,346.6,492.6,238.3,420.4,238.3z M420,320.9
				c-36.6,0-40.6-56.9,0-56.9C457.9,264,456.5,320.9,420,320.9z"/>
		</g>
		<g>
			<path class="st2" d="M315.7,259.9c-42.6,0-38.3,59.6,0,59.6C354,319.5,355.4,259.9,315.7,259.9z M315.3,298.7
				c-11.6,0-12.9-18.1,0-18.1C327.4,280.7,327,298.7,315.3,298.7z"/>
		</g>
		<g>
			<path class="st2" d="M424.9,214.6c-20.9-2.3-20.5,1.7-19,21.7c0.3,4.6,0.6,10.7,2.7,12.3c8,5.8,26.4-8.5,26.4-8.5s0.4-7-0.1-16.5
				S429.5,215.1,424.9,214.6z"/>
		</g>
		<g>
			<path class="st2" d="M415.5,368.2c20.9,2.3,20.5-1.7,19-21.7c-0.3-4.6-0.6-10.7-2.7-12.3c-8-5.8-26.4,8.5-26.4,8.5
				s-0.4,7,0.1,16.5S410.9,367.7,415.5,368.2z"/>
		</g>
		<g>
			<path class="st2" d="M489.4,257.8c-8.3-19.4-11.5-17-28.3-5.9c-3.8,2.5-9.1,5.8-9.4,8.4c-1.1,9.9,20.3,18.8,20.3,18.8
				s6.2-3.1,14.3-8.2S491.2,262,489.4,257.8z"/>
		</g>
		<g>
			<path class="st2" d="M360.2,295.2c3.5-13.8,0.7-13.9-12.8-14.8c-3.1-0.2-7.3-0.6-8.5,0.7c-4.6,4.8,3.3,18.5,3.3,18.5
				s4.6,0.9,11.1,1.5C359.7,301.7,359.5,298.2,360.2,295.2z"/>
		</g>
		<g>
			<path class="st2" d="M277.4,264.5c-8.5,11.5-6,12.6,6.2,18.5c2.8,1.4,6.5,3.3,8.1,2.6c6.1-2.7,4-18.3,4-18.3s-3.9-2.6-9.7-5.6
				C280.3,258.8,279.2,262,277.4,264.5z"/>
		</g>
		<g>
			<path class="st2" d="M329.4,247.7c-13.1-5.5-13.6-2.9-16.6,10.4c-0.7,3-1.7,7.1-0.6,8.5c4.1,5.3,18.7-0.4,18.7-0.4
				s1.6-4.4,3.1-10.7C335.6,249.3,332.2,248.9,329.4,247.7z"/>
		</g>
		<g>
			<path class="st2" d="M279,315.6c7,12.4,9,10.6,19.4,1.9c2.4-2,5.7-4.5,5.7-6.4c0.1-6.7-15-11.2-15-11.2s-4,2.5-9.1,6.5
				C275,310.5,277.4,312.9,279,315.6z"/>
		</g>
		<g>
			<path class="st2" d="M332.6,332c13.6-4.3,12.2-6.6,5.9-18.6c-1.5-2.8-3.3-6.5-5-6.9c-6.6-1.4-14,12.4-14,12.4s1.7,4.4,4.5,10.2
				C326.8,334.9,329.6,333,332.6,332z"/>
		</g>
		<g>
			<path class="st2" d="M351,325c8.3,19.4,11.5,17,28.3,5.9c3.8-2.5,9.1-5.8,9.4-8.4c1.1-9.9-20.3-18.8-20.3-18.8s-6.2,3.1-14.3,8.2
				S349.1,320.8,351,325z"/>
		</g>
		<g>
			<path class="st2" d="M480.8,338.8c13.7-16,10.2-17.8-7.1-28c-4-2.3-9.2-5.6-11.7-4.7c-9.4,3.3-7.9,26.5-7.9,26.5
				s5.5,4.2,13.6,9.3S477.8,342.3,480.8,338.8z"/>
		</g>
		<g>
			<path class="st2" d="M359.5,244c-13.7,16-10.2,17.8,7.1,28c4,2.3,9.2,5.6,11.7,4.7c9.4-3.3,7.9-26.5,7.9-26.5s-5.5-4.2-13.6-9.3
				C364.6,235.9,362.5,240.5,359.5,244z"/>
		</g>
		<g>
			<path d="M406.8,262.2c-3.3,1.1-1.9,6.3,1.4,5.2c29.4-9.8,49.7,27.5,25.7,47c-2.7,2.2,1.1,6,3.8,3.8
				C466.1,295.2,441.3,250.6,406.8,262.2z"/>
		</g>
		<g>
			<path d="M323.7,283.6c-4-5.5-12.1-5.8-17.1-1.6c-2.7,2.2,1.2,6,3.8,3.8c2.6-2.1,7-1.7,9,1.1c2,2.8,0.9,7.1-2,8.8
				c-2.9,1.9-0.2,6.6,2.7,4.7C325.8,296.9,327.7,289,323.7,283.6z"/>
		</g>
	</g>
	<g id="Button_8_">
		<g>
			<path class="st1" d="M283.7,416.4c-44.2-2.6-37.2,2.2-39.6,28.1s2,28.4,33.5,30.2c31.5,1.9,34.6-4.5,34.2-27.3
				S309.8,418,283.7,416.4z"/>
		</g>
		<g>
			<path class="st0" d="M288.2,431.1c-4.4,8.1-8.8,16.2-13.2,24.3c-2-3.9-3.9-7.9-5.9-11.8c-1.6-3.1-6.4-0.7-4.8,2.5l8.2,16.4
				c0.9,1.7,3.7,2.1,4.7,0.3c5.2-9.5,10.4-19.1,15.6-28.6C294.3,431.1,289.8,428.1,288.2,431.1z"/>
		</g>
		<g>
			<path d="M301.3,470.7c-7.1,0-14.3,0.1-21.4,0.1c-7,0-16.1,1.7-22.8,0.1c-11.2-2.6-9.1-12.1-9-21.3c0.1-8.2,0.2-16.3,0.3-24.5
				c0-3.5-5.4-3.8-5.4-0.3c-0.1,11.8-0.8,23.8-0.4,35.6c0.1,4.6,0.2,9.2,3.8,12.6c5.1,4.8,14.2,3.3,20.4,3.2
				c11.4-0.1,22.8-0.1,34.2-0.2C304.5,476.1,304.8,470.7,301.3,470.7z"/>
		</g>
	</g>
	<g id="Search_1_">
		<g>
			<path d="M289.7,162.2c-12.5,0-19.3-10.1-19.3-19.6c0-4.8,1.7-9.3,4.8-12.6c3.5-3.7,8.5-5.7,14.5-5.7c12.8,0,18.7,9.7,18.7,18.7
				C308.4,152.6,302,162.2,289.7,162.2z M289.7,129.7c-4.5,0-8.1,1.4-10.5,4c-2.1,2.3-3.3,5.4-3.3,8.9c0,7,4.8,14.2,13.8,14.2
				c9.1,0,13.3-7.1,13.3-13.8c0-3.6-1.2-6.8-3.3-9.2C297.4,131.1,293.9,129.7,289.7,129.7z"/>
		</g>
		<g>
			<path class="st0" d="M432.2,123.5c-107.8-1-106.1-5.6-106.1,25.4c0,26.2,3.9,19.1,100.6,19.9s98.3-0.8,98.9-25.4
				S518.3,124.3,432.2,123.5z"/>
		</g>
		<g>
			<path d="M358.6,171.8c-18.4,0-26.6-0.9-31.1-5.3c-3.9-3.8-4.2-9.7-4.2-17.5v-1.4c0-10.1,0-16.8,4.5-21.3c7-6.9,22.3-6.6,67.8-5.9
				c10.5,0.2,22.6,0.4,36.5,0.5c15.8,0.1,29.1,0.1,39.8,0c33.5-0.2,46-0.2,52.1,6c3.6,3.7,4.2,8.9,4.1,16.6
				c-0.6,27.5-5.4,28.9-101.6,28.1c-20.6-0.2-36.9,0-50,0.2C369.7,171.8,363.8,171.8,358.6,171.8z M365.7,125.4
				c-20.3,0-30.1,0.9-33.9,4.7c-2.9,2.9-2.9,8.3-2.9,17.4v1.4c0,7.6,0.4,11.5,2.6,13.7c4.2,4.1,17,4,45.2,3.6
				c13.1-0.2,29.5-0.3,50.1-0.2c95.7,0.8,95.7-0.5,96.2-22.8c0.2-7.2-0.5-10.7-2.5-12.7c-4.5-4.6-18.2-4.5-48.3-4.4
				c-10.7,0.1-24.1,0.1-39.9,0l0,0c-13.9-0.1-26-0.3-36.5-0.5C383.7,125.6,373.8,125.4,365.7,125.4z"/>
		</g>
		<g>
			<path d="M275.5,152.5c-5.7,6-11.4,12-17.1,18.1c-2.4,2.5,1.4,6.4,3.8,3.8c5.7-6,11.4-12,17.2-18.1
				C281.8,153.8,278,150,275.5,152.5z"/>
		</g>
		<g>
			<path d="M492.2,141.2c-40.9,0.2-81.8,0.5-122.8,0.7c-3.5,0-3.5,5.4,0,5.4c40.9-0.2,81.8-0.5,122.8-0.7
				C495.7,146.6,495.7,141.1,492.2,141.2z"/>
		</g>
	</g>
</g>
<g id="Window_18_">
	<g id="Window_19_">
		<g>
			<g>
				<path d="M566,542.3c-0.1,1.8-0.1,3.7-0.2,5.4c0,0.4,0,0.8,0,1.2c-0.1,1.9-0.8,3.6-2.1,5.3c0,0,0,0,0,0
					c-14.6,1.2-30.4,1.9-46.9,2.4c-1.2-4.4-2.4-8.7-3.8-13c-14,0.2-28.2,0.4-42.2,0.6h-0.7c-18,0.4-35.9,0.7-53.4,0.8
					c-2.9,0-5.7,0-8.6,0c-20,0.1-39.2,0.1-57.2-0.2c-0.1-4.9-0.1-9.7-0.2-14.3c-0.4-30.6-1.2-54.1-1.2-72.2
					c0-50.6,11.1-46,111.8-46.2c73.9-0.2,99.3-5.6,100.4,18.6C563.6,471.9,566.8,509.9,566,542.3z"/>
			</g>
		</g>
		<g>
			<g>
				<path class="st1" d="M494.6,493.5c-1.3-2.9-2.5-5.7-3.9-8.6c-6-12.9-16.4-41.1-35.2-33.3c-6.9,2.8-10.6,10.4-13.8,16.7
					c-1.1,2.1-2.1,4.2-3.1,6.3c-0.7,1.5-1.4,3-2.2,4.5c-0.2,0.4-0.4,0.9-0.6,1.3c-3.1,6.6-6.1,13.4-9,20.1c-0.8,2-1.7,4-2.5,6
					c-1.2,2.7-2.4,5.5-3.5,8.2c-1,2.3-2,4.7-3,7c-1.2,2.9-2.5,5.8-3.7,8.8c-0.9,2.1-1.8,4.2-2.6,6.3c-0.7,1.6-1.4,3.2-2,4.9
					c2.6-0.1,5.1-0.1,7.8-0.2h0.6c9.1-0.2,18.4-0.4,27.6-0.6l15.4-0.3c2.6,0,5.2-0.1,7.8-0.2c7.8-0.2,16.9-0.5,25.6-1
					c5.8-0.3,11.5-0.7,17.1-1.3C506.6,523.1,501,508.1,494.6,493.5z"/>
			</g>
		</g>
		<g>
			<g>
				<path class="st0" d="M452.6,488c7.5,0.5,15,3.5,22.5,4.8c6.9,1.2,13.5,1.5,19.5,0.8c-1.3-2.9-2.6-5.7-3.9-8.6
					c-6-12.9-16.4-41-35.2-33.3c-6.9,2.8-10.6,10.4-13.8,16.7c-3.9,7.6-7.4,15.5-10.9,23.4C438,489.7,445.1,487.5,452.6,488z"/>
			</g>
		</g>
		<g>
			<g>
				<path class="st0" d="M396.7,435c-21.8,0-19.6,31.8,0,31.8C416.3,466.8,417.1,435,396.7,435z"/>
			</g>
		</g>
	</g>
	<g id="Chain_2_">
		<g>
			<g>
				<path d="M277.4,421.5c-1.5,0-2.7-1.2-2.7-2.7v-32.6c0-1.5,1.2-2.7,2.7-2.7c1.5,0,2.7,1.2,2.7,2.7v32.6
					C280.1,420.3,278.8,421.5,277.4,421.5z M302.9,374.8c-1.4,0-2.5-1-2.7-2.4c-0.2-1.5,0.9-2.8,2.4-3c8.4-0.9,18.8-1.3,32.7-1.3h0
					c1.5,0,2.7,1.2,2.7,2.7c0,1.5-1.2,2.7-2.7,2.7c-13.8,0-24,0.4-32.2,1.3C303.1,374.8,303,374.8,302.9,374.8z M400.4,374.5
					C400.4,374.5,400.3,374.5,400.4,374.5c-9.2-0.1-18.4-0.3-27.3-0.5l-5.2-0.1c-1.5,0-2.7-1.3-2.7-2.8s1.3-2.7,2.8-2.7l5.2,0.1
					c9,0.2,18.1,0.4,27.3,0.5c1.5,0,2.7,1.2,2.7,2.7C403.1,373.3,401.9,374.5,400.4,374.5z M432.8,374.2c-1.4,0-2.6-1.1-2.7-2.5
					c-0.1-1.5,1-2.8,2.5-2.9c11-0.9,21.1-3.7,30.1-8.3c1.3-0.7,3-0.2,3.6,1.2c0.7,1.3,0.2,3-1.2,3.6c-9.6,4.9-20.4,7.9-32.1,8.9
					C433,374.2,432.9,374.2,432.8,374.2z M488.7,344.9c-0.6,0-1.2-0.2-1.7-0.6c-1.2-0.9-1.4-2.6-0.5-3.8
					c6.3-8.2,10.9-17.6,13.6-28.1c0.4-1.4,1.9-2.3,3.3-1.9c1.4,0.4,2.3,1.9,1.9,3.3c-2.9,11.2-7.8,21.3-14.6,30
					C490.3,344.6,489.5,344.9,488.7,344.9z M505.2,283.7c-1.4,0-2.5-1-2.7-2.4c-1.2-10.7-4.2-20.8-9.1-29.9c-0.7-1.3-0.2-3,1.1-3.7
					c1.3-0.7,3-0.2,3.7,1.1c5.2,9.7,8.5,20.5,9.8,31.9c0.2,1.5-0.9,2.8-2.4,3C505.4,283.7,505.3,283.7,505.2,283.7z M474.9,228.2
					c-0.6,0-1.1-0.2-1.6-0.6c-8.1-6.2-17.6-10.7-28.2-13.4c-1.4-0.4-2.3-1.8-2-3.3c0.4-1.5,1.8-2.3,3.3-2
					c11.3,2.9,21.4,7.7,30.1,14.3c1.2,0.9,1.4,2.6,0.5,3.8C476.5,227.9,475.7,228.2,474.9,228.2z M413.5,210.9c0,0-0.1,0-0.1,0
					c-8.8-0.3-17-0.5-24.4-0.5c-2.9,0-5.6,0-8,0.1c-1.4-0.1-2.7-1.2-2.8-2.7c0-1.5,1.2-2.7,2.7-2.8c2.4,0,5.1-0.1,8.1-0.1
					c7.4,0,15.7,0.2,24.6,0.5c1.5,0.1,2.7,1.3,2.6,2.8C416.2,209.8,415,210.9,413.5,210.9z M360.7,197.2c-1.4,0-2.6-1.1-2.7-2.5
					c-0.2-3.3-0.3-7-0.3-11.2c0-6.2,0.2-11,0.2-11.2c0.1-1.5,1.4-2.6,2.8-2.6c1.5,0.1,2.6,1.3,2.6,2.8c0,0-0.2,4.9-0.2,11
					c0,4,0.1,7.7,0.3,10.8c0.1,1.5-1,2.8-2.5,2.9C360.8,197.2,360.7,197.2,360.7,197.2z"/>
			</g>
		</g>
	</g>
	<g id="Gears_2_">
		<g>
			<g>
				<path class="st1" d="M420.4,238.3c-77.4,0-69.6,108.3,0,108.3C490.1,346.6,492.6,238.3,420.4,238.3z M420,320.9
					c-36.6,0-40.6-56.9,0-56.9C457.9,264,456.5,320.9,420,320.9z"/>
			</g>
		</g>
		<g>
			<g>
				<path class="st1" d="M315.7,259.9c-42.6,0-38.3,59.6,0,59.6C354,319.5,355.4,259.9,315.7,259.9z M315.3,298.7
					c-11.6,0-12.9-18.1,0-18.1C327.4,280.7,327,298.7,315.3,298.7z"/>
			</g>
		</g>
		<g>
			<g>
				<path class="st1" d="M424.9,214.6c-20.9-2.3-20.5,1.7-19,21.7c0.3,4.6,0.6,10.7,2.7,12.3c8,5.8,26.4-8.5,26.4-8.5
					s0.4-7-0.1-16.5S429.5,215.1,424.9,214.6z"/>
			</g>
		</g>
		<g>
			<g>
				<path class="st1" d="M415.5,368.2c20.9,2.3,20.5-1.7,19-21.7c-0.3-4.6-0.6-10.7-2.7-12.3c-8-5.8-26.4,8.5-26.4,8.5
					s-0.4,7,0.1,16.5S410.9,367.7,415.5,368.2z"/>
			</g>
		</g>
		<g>
			<g>
				<path class="st1" d="M489.4,257.8c-8.3-19.4-11.5-17-28.3-5.9c-3.8,2.5-9.1,5.8-9.4,8.4c-1.1,9.9,20.3,18.8,20.3,18.8
					s6.2-3.1,14.3-8.2S491.2,262,489.4,257.8z"/>
			</g>
		</g>
		<g>
			<g>
				<path class="st1" d="M360.2,295.2c3.5-13.8,0.7-13.9-12.8-14.8c-3.1-0.2-7.3-0.6-8.5,0.7c-4.6,4.8,3.3,18.5,3.3,18.5
					s4.6,0.9,11.1,1.5C359.7,301.7,359.5,298.2,360.2,295.2z"/>
			</g>
		</g>
		<g>
			<g>
				<path class="st1" d="M277.4,264.5c-8.5,11.5-6,12.6,6.2,18.5c2.8,1.4,6.5,3.3,8.1,2.6c6.1-2.7,4-18.3,4-18.3s-3.9-2.6-9.7-5.6
					C280.3,258.8,279.2,262,277.4,264.5z"/>
			</g>
		</g>
		<g>
			<g>
				<path class="st1" d="M329.4,247.7c-13.1-5.5-13.6-2.9-16.6,10.4c-0.7,3-1.7,7.1-0.6,8.5c4.1,5.3,18.7-0.4,18.7-0.4
					s1.6-4.4,3.1-10.7C335.6,249.3,332.2,248.9,329.4,247.7z"/>
			</g>
		</g>
		<g>
			<g>
				<path class="st1" d="M279,315.6c7,12.4,9,10.6,19.4,1.9c2.4-2,5.7-4.5,5.7-6.4c0.1-6.7-15-11.2-15-11.2s-4,2.5-9.1,6.5
					C275,310.5,277.4,312.9,279,315.6z"/>
			</g>
		</g>
		<g>
			<g>
				<path class="st1" d="M332.6,332c13.6-4.3,12.2-6.6,5.9-18.6c-1.5-2.8-3.3-6.5-5-6.9c-6.6-1.4-14,12.4-14,12.4s1.7,4.4,4.5,10.2
					C326.8,334.9,329.6,333,332.6,332z"/>
			</g>
		</g>
		<g>
			<g>
				<path class="st1" d="M351,325c8.3,19.4,11.5,17,28.3,5.9c3.8-2.5,9.1-5.8,9.4-8.4c1.1-9.9-20.3-18.8-20.3-18.8
					s-6.2,3.1-14.3,8.2S349.1,320.8,351,325z"/>
			</g>
		</g>
		<g>
			<g>
				<path class="st1" d="M480.8,338.8c13.7-16,10.2-17.8-7.1-28c-4-2.3-9.2-5.6-11.7-4.7c-9.4,3.3-7.9,26.5-7.9,26.5
					s5.5,4.2,13.6,9.3S477.8,342.3,480.8,338.8z"/>
			</g>
		</g>
		<g>
			<g>
				<path class="st1" d="M359.5,244c-13.7,16-10.2,17.8,7.1,28c4,2.3,9.2,5.6,11.7,4.7c9.4-3.3,7.9-26.5,7.9-26.5s-5.5-4.2-13.6-9.3
					C364.6,235.9,362.5,240.5,359.5,244z"/>
			</g>
		</g>
		<g>
			<g>
				<path d="M406.8,262.2c-3.3,1.1-1.9,6.3,1.4,5.2c29.4-9.8,49.7,27.5,25.7,47c-2.7,2.2,1.1,6,3.8,3.8
					C466.1,295.2,441.3,250.6,406.8,262.2z"/>
			</g>
		</g>
		<g>
			<g>
				<path d="M323.7,283.6c-4-5.5-12.1-5.8-17.1-1.6c-2.7,2.2,1.2,6,3.8,3.8c2.6-2.1,7-1.7,9,1.1c2,2.8,0.9,7.1-2,8.8
					c-2.9,1.9-0.2,6.6,2.7,4.7C325.8,296.9,327.7,289,323.7,283.6z"/>
			</g>
		</g>
	</g>
	<g id="Button_16_">
		<g>
			<g>
				<path class="st1" d="M283.7,416.4c-44.2-2.6-37.2,2.2-39.6,28.1s2,28.4,33.5,30.2c31.5,1.9,34.6-4.5,34.2-27.3
					S309.8,418,283.7,416.4z"/>
			</g>
		</g>
		<g>
			<g>
				<path class="st0" d="M288.2,431.1c-4.4,8.1-8.8,16.2-13.2,24.3c-2-3.9-3.9-7.9-5.9-11.8c-1.6-3.1-6.4-0.7-4.8,2.5l8.2,16.4
					c0.9,1.7,3.7,2.1,4.7,0.3c5.2-9.5,10.4-19.1,15.6-28.6C294.3,431.1,289.8,428.1,288.2,431.1z"/>
			</g>
		</g>
		<g>
			<g>
				<path d="M301.3,470.7c-7.1,0-14.3,0.1-21.4,0.1c-7,0-16.1,1.7-22.8,0.1c-11.2-2.6-9.1-12.1-9-21.3c0.1-8.2,0.2-16.3,0.3-24.5
					c0-3.5-5.4-3.8-5.4-0.3c-0.1,11.8-0.8,23.8-0.4,35.6c0.1,4.6,0.2,9.2,3.8,12.6c5.1,4.8,14.2,3.3,20.4,3.2
					c11.4-0.1,22.8-0.1,34.2-0.2C304.5,476.1,304.8,470.7,301.3,470.7z"/>
			</g>
		</g>
	</g>
	<g id="Search_2_">
		<g>
			<g>
				<path d="M289.7,162.2c-12.5,0-19.3-10.1-19.3-19.6c0-4.8,1.7-9.3,4.8-12.6c3.5-3.7,8.5-5.7,14.5-5.7c12.8,0,18.7,9.7,18.7,18.7
					C308.4,152.6,302,162.2,289.7,162.2z M289.7,129.7c-4.5,0-8.1,1.4-10.5,4c-2.1,2.3-3.3,5.4-3.3,8.9c0,7,4.8,14.2,13.8,14.2
					c9.1,0,13.3-7.1,13.3-13.8c0-3.6-1.2-6.8-3.3-9.2C297.4,131.1,293.9,129.7,289.7,129.7z"/>
			</g>
		</g>
		<g>
			<g>
				<path class="st0" d="M432.2,123.5c-107.8-1-106.1-5.6-106.1,25.4c0,26.2,3.9,19.1,100.6,19.9s98.3-0.8,98.9-25.4
					S518.3,124.3,432.2,123.5z"/>
			</g>
		</g>
		<g>
			<g>
				<path d="M358.6,171.8c-18.4,0-26.6-0.9-31.1-5.3c-3.9-3.8-4.2-9.7-4.2-17.5v-1.4c0-10.1,0-16.8,4.5-21.3
					c7-6.9,22.3-6.6,67.8-5.9c10.5,0.2,22.6,0.4,36.5,0.5c15.8,0.1,29.1,0.1,39.8,0c33.5-0.2,46-0.2,52.1,6
					c3.6,3.7,4.2,8.9,4.1,16.6c-0.6,27.5-5.4,28.9-101.6,28.1c-20.6-0.2-36.9,0-50,0.2C369.7,171.8,363.8,171.8,358.6,171.8z
					 M365.7,125.4c-20.3,0-30.1,0.9-33.9,4.7c-2.9,2.9-2.9,8.3-2.9,17.4v1.4c0,7.6,0.4,11.5,2.6,13.7c4.2,4.1,17,4,45.2,3.6
					c13.1-0.2,29.5-0.3,50.1-0.2c95.7,0.8,95.7-0.5,96.2-22.8c0.2-7.2-0.5-10.7-2.5-12.7c-4.5-4.6-18.2-4.5-48.3-4.4
					c-10.7,0.1-24.1,0.1-39.9,0l0,0c-13.9-0.1-26-0.3-36.5-0.5C383.7,125.6,373.8,125.4,365.7,125.4z"/>
			</g>
		</g>
		<g>
			<g>
				<path d="M275.5,152.5c-5.7,6-11.4,12-17.1,18.1c-2.4,2.5,1.4,6.4,3.8,3.8c5.7-6,11.4-12,17.2-18.1
					C281.8,153.8,278,150,275.5,152.5z"/>
			</g>
		</g>
		<g>
			<g>
				<path d="M492.2,141.2c-40.9,0.2-81.8,0.5-122.8,0.7c-3.5,0-3.5,5.4,0,5.4c40.9-0.2,81.8-0.5,122.8-0.7
					C495.7,146.6,495.7,141.1,492.2,141.2z"/>
			</g>
		</g>
	</g>
</g>
<g id="Cloth_2_">
	<g>
		<path class="st0" d="M544.5,450.4c-26.8,11.3-37.9,41.5-44.2,64.1c-6.3,22.6,4.5,45.1,5.4,83c0.9,37.9,0.9,54.2,4.5,58.7
			c3.6,4.5,55.1-6.3,60.5-5.4c5.4,0.9,5.4,17.2,17.1,4.5c11.7-12.6,54.2-63.2,54.2-63.2s24.4-13.5-6.3-64.1
			C605,477.5,585.1,433.2,544.5,450.4z"/>
		<path d="M580.4,662.8c-0.2,0-0.5,0-0.7,0c-3.6-0.4-5.6-3.6-7.1-6.2c-0.6-1.1-1.8-3-2.4-3.1c-1.7-0.2-11,1.2-19.2,2.4
			c-29.8,4.6-40.1,5.5-42.9,2c-3.8-4.8-4.1-17.1-4.9-50l-0.2-10.3c-0.4-15.7-2.5-28.8-4.3-40.4c-2.6-16-4.8-29.8-1-43.4
			c6.3-22.6,18-54.1,45.8-65.8c38.3-16.2,58.8,18.4,84.7,62.3c3.2,5.3,6.4,10.9,9.8,16.4c13.4,22.1,18.4,40.3,14.8,53.9
			c-2.3,8.6-7.3,12.6-9,13.6c-3.7,4.4-42.8,51-54,63C586.3,661,583.3,662.8,580.4,662.8z M569.8,648c0.5,0,1,0,1.3,0.1
			c3,0.5,4.7,3.3,6.1,5.7c0.9,1.5,2.1,3.5,3,3.6c0.4,0.1,2-0.1,5.6-3.9c11.6-12.4,53.6-62.6,54.1-63.1l0.3-0.4l0.4-0.2
			c0.2-0.1,4.9-2.9,6.9-10.8c2.1-8.4,1.4-23.8-14.2-49.5c-3.4-5.6-6.7-11.1-9.8-16.5c-25.6-43.2-44-74.4-78-60.1l0,0
			c-25.4,10.7-36.1,38.9-42.7,62.3c-3.5,12.5-1.5,25.1,1.1,41.1c1.9,11.7,4,25,4.4,41.1l0.2,10.3c0.6,27.4,1,42.8,3.5,46.6
			c3.9,1.5,26-1.9,38-3.7C560.6,648.9,566.8,648,569.8,648z M512,654.2"/>
	</g>
	<g>
		<path d="M575.6,653.1c-6.6-14.8-13.1-29.5-19.7-44.3c-1.4-3.2-6.1-0.4-4.7,2.7l19.7,44.3C572.3,659,577,656.2,575.6,653.1z"/>
	</g>
	<g>
		<path d="M530.4,599.3c-0.3-3.5-5.7-3.5-5.4,0c0.8,10.8,1.6,21.7,2.4,32.5c0.3,3.5,5.7,3.5,5.4,0C532,621,531.2,610.1,530.4,599.3z
			"/>
	</g>
</g>
<g id="Hand_2_13_">
	<g>
		<path class="st3" d="M591.4,627.9c-64.7-43.1-92.4-53.8-83.3-72.1c6.8-13.5,54.8,14.2,54.8,14.2s-59.9-73.1-46.7-87.3
			c10-10.7,21.3-1,21.3-1s-7.1-14.2,3-20.3s19.3,2,19.3,2s-3-13.2,8.1-16.2c14-3.8,21,19.5,50.4,59.1s91.7,68.8,90.7,77.9
			c-1,9.1-60.9,66-70.1,67C630,652.3,603.6,636.1,591.4,627.9z"/>
	</g>
	<g>
		<path d="M583.4,542.4c-17-19-30.6-40.3-41-63.6c-1.4-3.2-6.1-0.4-4.7,2.7c10.5,23.8,24.5,45.3,41.8,64.7
			C581.9,548.8,585.7,545,583.4,542.4z"/>
	</g>
	<g>
		<path d="M594.6,517.7c-13.3-17.6-25.3-35.9-36.1-55.1c-1.7-3-6.4-0.3-4.7,2.7c10.8,19.2,22.8,37.6,36.1,55.1
			C592,523.2,596.7,520.5,594.6,517.7z"/>
	</g>
	<g>
		<path d="M529.1,563c-4.4-4.6-12-4.4-16.6-0.1c-2.5,2.4,1.3,6.2,3.8,3.8c2.4-2.2,6.6-2.4,8.9,0.1c2.3,2.6,1.6,6.7-0.8,8.9
			c-2.6,2.4,1.3,6.2,3.8,3.8C532.9,575.3,533.5,567.6,529.1,563z"/>
	</g>
	<g>
		<path d="M530.8,492.8c-2,1.1-4.9,0.5-5.9-1.7c-1-2.1,0.4-4.9,2.5-5.6c3.3-1.1,1.9-6.4-1.4-5.2c-5.2,1.8-8.4,7.7-6.1,12.9
			c2.3,5.2,8.9,6.9,13.6,4.3C536.6,495.7,533.9,491.1,530.8,492.8z"/>
	</g>
	<g>
		<path d="M550.6,471.8c-1,1.5-3.8,1.8-5,0.3c-1.2-1.5-0.1-4.2,1.6-4.7c3.3-1.1,1.9-6.3-1.4-5.2c-5.3,1.7-8,8.6-4.4,13.2
			c3.5,4.6,10.9,3.8,13.9-0.9C557.2,471.6,552.5,468.9,550.6,471.8z"/>
	</g>
	<g>
		<path d="M575.8,457.7c-0.8,1.6-3.2,2.7-4.8,1.3c-1.2-1-1.2-3.6,0.1-4.6c1.2-0.9,1.8-2.3,1-3.7c-0.7-1.2-2.5-1.8-3.7-1
			c-4.2,3.1-5.1,9.6-1,13.3c3.9,3.5,10.7,2.1,13.1-2.6C582,457.3,577.3,454.6,575.8,457.7z"/>
	</g>
</g>
<g id="Hand_3_2_">
	<g>
		<path class="st3" d="M318.9,248.2c-8.1,6.3-20.8-7.2-36.1,9.9c-15.3,17.2-26.2,59.6,1.8,72.2c28,12.6,43.6-5.6,48,8
			c4.4,13.6-18.2,22.7-56.1,22.7s-33.4,0-50.5,19s-45.1,64.1-52.4,61.4c-7.2-2.7-8.1-42.4-11.7-79.4c-3.6-37,0-29.8,33.4-72.2
			s36.1-52.4,56.9-52.4c0,0,13.5-11.7,27.1-4.5c0,0,19.9-7.2,34.3-0.9S318.9,248.2,318.9,248.2z"/>
	</g>
	<g>
		<path d="M277.5,232c-11.5,4.4-20.2,13.5-23.7,25.3c-1,3.3,4.2,4.8,5.2,1.4c3-9.9,10.2-17.9,20-21.5
			C282.2,236,280.8,230.8,277.5,232z"/>
	</g>
	<g>
		<path d="M248,235.9c-5.9,3.4-10.6,8.4-13.6,14.5c-1.5,3.1,3.1,5.9,4.7,2.7c2.6-5.3,6.5-9.6,11.6-12.6
			C253.7,238.8,251,234.1,248,235.9z"/>
	</g>
	<g>
		<path d="M328.5,341.4c-3.4-2.5-8.5-2.1-11.5,0.8c-2.9,2.9-3.3,7.6-1.3,11.1c1.8,3,6.5,0.3,4.7-2.7c-2.2-3.7,2.1-6.9,5.3-4.5
			c1.2,0.9,3,0.2,3.7-1C330.2,343.8,329.6,342.3,328.5,341.4z"/>
	</g>
	<g>
		<path d="M318,237.6c-2.5,4-8.4,0.5-6.2-3.6c1.7-3.1-3-5.8-4.7-2.7c-2.3,4.2-1.1,9.9,3.2,12.4c4.3,2.5,9.8,0.7,12.4-3.3
			C324.5,237.4,319.9,234.7,318,237.6z"/>
	</g>
</g>
<g id="Hand_3">
	<g id="Hand_3_3_">
		<g>
			<path class="st3" d="M677.6,358.3c22.6,19.9,38.6,70.3,42.7,80.4c3.1,7.7,6.9,8.4,43.9-13.5s39-23.6,34.2-40.1
				c-4.7-16.5-19.3-77.6-72.4-104.3C673,254.2,677.6,358.3,677.6,358.3z"/>
		</g>
		<g>
			<path d="M758.8,385.1c-8.5-8.9-13.6-19.7-15.3-31.9c-0.5-3.4-5.7-2.2-5.3,1.2c1.8,13,7.5,24.8,16.6,34.3
				C757.2,391.2,761.2,387.6,758.8,385.1z"/>
		</g>
	</g>
	<g id="Wrench_1_">
		<g>
			<path class="st1" d="M675.8,216.7c6.9,2.9-3.6,36.5,1.2,45.1c2.1,3.7,15.8,21.7,31.2,41.8c11.4,14.8,23.7,30.9,32.8,43
				c-4.3,8.9-9.1,18.2-14,27.5c-1.7,3.2-6,3.6-8.3,0.8c-8.1-10-24.4-30.3-31.3-39.2c-36.7-47.1-39.4-51.1-46-55.6
				c-8.4-5.8-27.9-8.4-36.8-10.9c-8.9-2.6-5.4-28.5-4.1-38.3c1.3-9.7,27.4,22.2,32.7,22.3c5.3,0,21.2-10.4,21.3-15.6
				c0-5.3-25.8-29.9-23.3-33.5C633.7,200.5,668.9,213.8,675.8,216.7z"/>
		</g>
		<g>
			<path d="M656.5,235.8c-5.3-12.4-13.2-23.2-23.4-32.1c-2.6-2.3-6.6,1.4-4,3.7c9.9,8.6,17.5,18.9,22.6,30.9
				C653.1,241.6,657.9,239,656.5,235.8z"/>
		</g>
		<g>
			<path d="M718.6,377.9c-1.2,0.9-2.9,0.7-3.8-0.5c-8.4-11.1-46.9-62.1-60-79.5c-13.5-17.9-21.1-19.5-39.4-23.3l-2.7-0.6
				c-18-3.8-17.5-10.4-16-26.4c0.4-4.4,0.9-10,1.1-16.6c0-1.5,1.4-2.6,2.8-2.6c1.5,0.1,2.7,1.3,2.6,2.8c-0.2,6.8-0.7,12.4-1.1,16.9
				c-1.4,15.8-1.6,17.9,11.8,20.7l2.7,0.6c18.6,3.9,27.9,5.8,42.6,25.4c13.1,17.4,51.6,68.4,60,79.5
				C720,375.3,719.8,377,718.6,377.9L718.6,377.9z"/>
		</g>
	</g>
	<g id="Fingers_3_">
		<g>
			<path class="st3" d="M726.1,280.8c-55.9-23.2-65.1-19.9-65.6-7.3c-0.5,12.6,59.7,40.5,59.7,40.5L726.1,280.8z"/>
		</g>
		<g>
			<path class="st3" d="M652.7,285.8c-24.6,3-5.7,27.8-5.7,27.8s-4.3,17,10.6,27.6c0,0-2.5,16.2,11.7,22.2c14.2,6,38.5,1.4,41.9-8.2
				c4.1-11.6-8.4-15.7-8.4-15.7c3.6-1.1,13.2-20.5-3.4-27.2c0,0-1.1-16.3-17.1-22.4C669,284.7,658.1,285.2,652.7,285.8z"/>
		</g>
		<g>
			<path d="M701,306c-3.7-12.1-14.8-20.5-27.5-20.4c-3.5,0-3.7,5.4-0.2,5.4c10.2-0.1,19.5,6.3,22.5,16.2
				C696.8,310.5,702.1,309.3,701,306z"/>
		</g>
		<g>
			<path d="M696.8,310.7c-13.8-0.6-27.7-1.2-41.5-1.7c-3.5-0.1-3.7,5.3-0.2,5.4c13.8,0.6,27.7,1.2,41.5,1.7
				C700,316.2,700.3,310.8,696.8,310.7z"/>
		</g>
		<g>
			<path d="M703.7,338.5c-14.2,1-28.3,0.8-42.4-0.5c-3.5-0.3-3.7,5.1-0.2,5.4c14.1,1.3,28.3,1.5,42.4,0.5
				C706.9,343.7,707.2,338.2,703.7,338.5z"/>
		</g>
		<g>
			<path d="M708.2,359.5c-5.4,4.7-12.4,6.1-19.2,3.9c-3.3-1.1-5,4.1-1.7,5.2c8.6,2.8,17.7,0.9,24.5-5
				C714.4,361.2,710.8,357.2,708.2,359.5z"/>
		</g>
		<g>
			<path class="st0" d="M700,316.7c-4.1-1.3-8.9,0.2-11.2,3.9c-2.2,3.7-1.4,8.8,1.8,11.7c2.6,2.3,6.6-1.3,4-3.7
				c-3.3-3-0.8-8.3,3.7-6.8C701.7,323,703.3,317.8,700,316.7z"/>
		</g>
		<g>
			<path class="st0" d="M696.4,299.9c-1.9-5.2-7.7-8.6-13.1-6.4c-5.3,2.2-7.4,8.7-4.9,13.8c1.5,3.1,6.3,0.6,4.8-2.5
				c-1-2.1-0.3-5.1,2-6.2c2.2-1,5.2,0.3,6,2.6C692.2,304.4,697.5,303.2,696.4,299.9z"/>
		</g>
		<g>
			<path class="st0" d="M679.8,266.2c-2.4,2.8-7.1,2.1-7.2-2.1c-0.1-3.5-5.5-3.7-5.4-0.2c0.1,4,2.3,7.7,6.2,9.1
				c3.5,1.2,7.6,0.1,10-2.7C685.7,267.6,682,263.6,679.8,266.2z"/>
		</g>
		<g>
			<path class="st0" d="M702.9,357.3c-4.3-0.4-5.1-6.3-0.9-7.6c3.3-1.1,2.1-6.3-1.2-5.3c-4.3,1.4-7.5,5.3-7,10
				c0.5,4.6,4.4,7.9,8.9,8.3C706.2,363,706.4,357.6,702.9,357.3z"/>
		</g>
	</g>
</g>
<g id="Glow_5_">
	<g>
		<g>
			<path class="st0" d="M432.8,520.7c-9.2,1.5-11.3-8-11.7-15.5c0.1-1.5,0.1-3.1-0.1-4.7c-0.4-3.4-5.4-3.6-5.4,0
				c0,1.2,0,2.5,0.1,3.8c-0.2,6.5-3,12.4-8.1,16.7c-2.1-0.5-3.9,2.3-2.6,4.3c0.3,1.2,1.3,2.2,2.5,2.1c3.8,3.2,6.4,7.1,7.9,12
				c0.8,2.6,4.4,2.5,5.2,0c2.2-6.8,6.9-11.4,13.7-13.5C437.6,524.9,436.2,520.1,432.8,520.7z M418.1,532c-1.6-2.9-3.6-5.4-6-7.7
				c2.6-2.4,4.6-5.1,6.1-8c1.4,3.6,3.6,6.7,6.7,8.4C422.1,526.6,419.8,529.1,418.1,532z"/>
		</g>
	</g>
	<g>
		<g>
			<path class="st1" d="M563.3,384.2c-5.1-2.3-6.3-7.4-7.4-12.4c-0.7-3.2-5-2.1-5.3,0.7c-0.5,3.9-1.3,10-6.6,10.2
				c-1.3,0-2.1,0.9-2.5,1.9c-1.8,1.3-1.3,4.8,1.6,4.9c4.9,0.2,8.2,4.1,8,8.9c-0.1,3.5,5.1,3.4,5.4,0c0.4-4.4,2.9-7.5,6.8-9.5
				C565.1,388,565.1,385,563.3,384.2z M554,389.9c-1.1-1.5-2.5-2.8-4.1-3.7c1.5-1.1,2.7-2.6,3.6-4.4c0.9,1.8,2.1,3.4,3.5,4.8
				C555.9,387.5,554.8,388.6,554,389.9z"/>
		</g>
	</g>
</g>
</svg>
