<?xml version="1.0" encoding="utf-8"?>
<!-- Generator: Adobe Illustrator 21.0.2, SVG Export Plug-In . SVG Version: 6.00 Build 0)  -->
<svg version="1.1" id="Слой_1" xmlns="http://www.w3.org/2000/svg" xmlns:xlink="http://www.w3.org/1999/xlink" x="0px" y="0px"
	 viewBox="0 0 977.1 752" style="enable-background:new 0 0 977.1 752;" xml:space="preserve">
<style type="text/css">
	.st0{fill:#FFFFFF;}
	.st1{fill:#FDD05B;}
	.st2{fill:#B3BFE2;}
</style>
<g id="Hand_8_">
	<g>
		<path class="st0" d="M579.4,497.5c-1.3,0.1-2.7,0.2-4.1,0.5c0-0.3-0.1-0.6-0.1-0.9c-5.3,0.1-10.7-0.2-15.9-0.3
			c-19.4-0.6-39,1-58.4,1.7c-20.5,0.7-39.9-7.5-60.4-7.2c-11.2,0.2-24.4,10.9-35.5,8.5c0,0.1,0,0.2,0.1,0.3
			c-16.2-1.8-28.7-2.6-28.7-2.6c-44.7,8.1-56.9,33.8-74.5,66.3c-17.6,32.5-16.2,23,39.3,48.7c55.5,25.7,70.4,35.2,94.8-5.4
			c24.4-40.6,29.8-48.7,43.3-50.1c13.5-1.4,66.3-8.1,90.7-24.4C594.3,516.5,599.7,496.1,579.4,497.5z"/>
		<path d="M401.5,637.5c-13.3,0-29.7-7.6-54.1-19l-7.5-3.5c-11.1-5.2-20-8.9-27.1-11.8c-14.6-6.1-21.3-8.9-23.2-14.3
			c-1.8-5.1,1.2-10.6,7.2-21.6c0.8-1.5,1.7-3.1,2.6-4.8l2.1-3.9c16.8-31.2,30.1-55.8,74.3-63.8l0.3-0.1l0.3,0
			c0.1,0,10.9,0.7,25.2,2.3l-0.1-0.6l3.8,0.6c5.4,1.1,12-1.5,18.3-4c5.5-2.2,11.2-4.5,16.7-4.6c10.3-0.1,20.4,1.8,30.1,3.7
			c9.9,1.9,20.1,3.9,30.2,3.5c5.7-0.2,11.4-0.5,17.2-0.7c13.6-0.7,27.6-1.3,41.4-0.9l3.9,0.1c3.9,0.1,8,0.3,11.9,0.2l2.5-0.1
			l0.1,0.6c0.5-0.1,1-0.1,1.5-0.1h0c10.6-0.7,13.8,4.1,14.8,7c2.9,8.7-6.3,22.3-22.6,33.2c-26.8,17.9-85.4,24.2-91.9,24.8
			c-11.9,1.2-16.7,7.8-41.3,48.8C425.7,629.3,415.3,637.5,401.5,637.5z M376.4,500.2c-41.3,7.6-53.4,30-70.1,61l-2.1,3.9
			c-0.9,1.7-1.8,3.3-2.6,4.8c-4.9,8.9-7.9,14.3-6.9,17.2c1.1,3.2,8.3,6.2,20.2,11.1c7.2,3,16.1,6.7,27.3,11.9l7.5,3.5
			c50,23.3,61.8,28.8,83.8-7.8c24.7-41.1,30.4-49.9,45.4-51.4c23.4-2.3,68.6-10,89.5-23.9c15.1-10.1,22.3-21.6,20.5-26.9
			c-1.1-3.4-6.3-3.5-9.3-3.3c-1.3,0.1-2.5,0.2-3.8,0.4l-2.9,0.4l-0.1-1.2c-3.2,0.1-6.5-0.1-9.7-0.2l-3.9-0.1
			c-13.6-0.4-27.5,0.3-41,0.9c-5.8,0.3-11.5,0.6-17.2,0.7c-10.8,0.4-21.3-1.7-31.4-3.6c-9.5-1.8-19.2-3.7-29-3.6
			c-4.5,0.1-9.4,2.1-14.7,4.2c-5.7,2.3-11.6,4.6-17.3,4.7l0.1,0.5l-3.9-0.5C390.2,501.2,378.5,500.4,376.4,500.2z"/>
	</g>
	<g>
		<path d="M537.9,501.2c-9.4,9.2-22,13.4-35,11.3c0,0-0.1,0-0.1,0c0.2-0.2,0.5-0.4,0.7-0.5c-2.7,0.3-3,2.2-3.9,3.6
			c0,1,0.6,1.9,1.9,2.1c15,2.4,29.4-2.1,40.3-12.7C544.2,502.6,540.4,498.7,537.9,501.2z"/>
	</g>
	<g>
		<path d="M585.2,506.4c-7.7-0.9-15.3,4.8-16.5,12.5c-0.5,3.4,4.7,4.9,5.2,1.4c0.9-5.5,5.7-9.2,11.3-8.5
			C588.6,512.2,588.6,506.8,585.2,506.4z"/>
	</g>
</g>
<g id="Window_9_">
	<g>
		<g>
			<g>
				<path class="st0" d="M375.3,503.7c-19.8,0-33.5-0.6-44.7-2c-55.5-7-55.1-36.9-53.7-125.8c0.3-17.8,0.6-38,0.5-61.1
					c0-13-0.2-25.3-0.4-37.2c-1-72.2-1.6-120,31.7-135.8c19.1-9.1,65.4-10.4,112.6-10.4c13.1,0,26.6,0.1,40.2,0.2
					c13.7,0.1,27.4,0.2,40.8,0.2c8,0,15.8,0,23.5-0.1l3.8,0c16.5-0.2,30.7-0.4,43.5-0.4c87.3,0,99.9,9,104.4,74.2
					c1.6,23.1,5.7,84.3,5.9,125.1c0.4,85.4-1.8,128-23.3,149.6c-21.6,21.7-62.5,21.7-136.7,21.8c-22,0-46.9,0.1-75.2,0.6
					c-0.2,0-0.5,0-0.9,0l-17.1,0.4C409,503.3,390.9,503.7,375.3,503.7z"/>
			</g>
		</g>
	</g>
	<g>
		<g>
			<g>
				<path d="M573.1,133.9c85.9,0,97.4,8.1,101.7,71.6c1.5,22.9,5.7,84.4,5.8,124.9c0.8,193.2-10.5,164.9-232.6,169.3
					c-0.3,0-0.6,0-0.9,0c-28.5,0.6-52.2,1.2-71.9,1.2c-17.8,0-32.4-0.5-44.3-2c-63.6-8-50.4-44.5-50.8-184.2
					c-0.2-92.1-7.2-153,29.8-170.6c18.1-8.6,61.7-10.1,111.4-10.1c26.3,0,54.2,0.4,81,0.4c8,0,15.8,0,23.5-0.1
					C543.7,134.1,559.4,133.9,573.1,133.9 M573.1,128.4v5.4V128.4c-12.8,0-27.1,0.2-43.6,0.4l-3.8,0c-7.1,0.1-14.8,0.1-23.4,0.1
					c-13.4,0-27.3-0.1-40.8-0.2c-13.3-0.1-27.1-0.2-40.2-0.2c-47.5,0-94.1,1.3-113.7,10.6c-34.9,16.6-34.2,65-33.2,138.3
					c0.2,11.9,0.3,24.2,0.4,37.2c0.1,23-0.3,43.2-0.5,61c-0.7,45.2-1.1,75,5.5,94.6c7,20.5,21.6,30.3,50.5,34
					c11.2,1.4,25.1,2.1,45,2.1c15.7,0,33.8-0.4,54.8-0.8c5.5-0.1,11.2-0.2,17.1-0.4c0,0,0,0,0.1,0c0.3,0,0.6,0,0.9,0
					c28.3-0.6,53.1-0.6,75-0.6c75-0.1,116.3-0.1,138.7-22.6c22.3-22.4,24.5-63.4,24.1-151.5c-0.2-40.8-4.3-102.2-5.9-125.3
					c-2.2-32.6-6.5-52.4-22.5-63.7C642.1,130.5,617,128.4,573.1,128.4L573.1,128.4z"/>
			</g>
		</g>
	</g>
	<g>
		<g>
			<path class="st1" d="M528,379.5c-2,36.6-15.9,31-94.2,30.5c-3.2,0-6.4,0-9.8,0c-9.7,0-18.4,0.1-26.3,0.2
				c-47.9,0.5-63.5,0.8-68.8-23.1c-2.4-10.8-2.6-26.5-2.8-49.2c-0.3-38.6-0.4-68.4,17.9-75.7c15.1-6.1,66.3-3.5,107-3.8
				c64.1-0.5,71.3-0.8,73.9,30.1c0.8,9.6,3,35.4,3.1,52.4C528.2,357.2,528.5,369.8,528,379.5z"/>
		</g>
	</g>
	<g>
		<g>
			<path class="st2" d="M448,499.7c-0.3,0-0.6,0-0.9,0c-54.3,1.1-91.2,2.4-116.2-0.8c0.1-27.2,2.8-33.5,20.5-35.3
				c7.4-0.7,65.3,0.7,72.8,1.2C443.6,466.1,447.5,472.5,448,499.7z"/>
		</g>
	</g>
	<g>
		<g>
			<g>
				<path class="st0" d="M282.9,190.6c-0.8,0-1.5-0.3-2-0.9c-0.5-0.6-0.8-1.4-0.6-2.3c4.2-23.9,13.3-38.5,28.5-45.7
					c19.2-9.1,65.5-10.4,112.7-10.4c13.1,0,26.6,0.1,40.2,0.2c13.7,0.1,27.4,0.2,40.8,0.2c7.9,0,15.7,0,23.3-0.1l3.7,0
					c16.5-0.2,30.8-0.4,43.7-0.4c68.2,0,90.9,5.4,99.7,39.2c0.2,0.8,0,1.6-0.5,2.3c-0.5,0.7-1.3,1.1-2.1,1.1
					c-103,3-207.7,8.1-308.9,13c-26.1,1.3-52.2,2.5-78.2,3.8C283,190.6,283,190.6,282.9,190.6z"/>
			</g>
		</g>
	</g>
	<g>
		<g>
			<g>
				<path d="M573.1,133.9c66.9,0,88.7,4.9,97.1,37.2C541,174.8,412,181.7,282.9,187.9c3.8-21.5,11.6-36.4,27-43.7
					c18.1-8.6,61.8-10.1,111.6-10.1c26.3,0,54.2,0.4,80.9,0.4c7.9,0,15.7,0,23.4-0.1C543.7,134.1,559.3,133.9,573.1,133.9
					 M573.1,128.4c-12.8,0-27.1,0.2-43.7,0.4l-3.7,0c-7.1,0.1-14.7,0.1-23.3,0.1c-13.4,0-27.3-0.1-40.8-0.2
					c-13.3-0.1-27.1-0.2-40.2-0.2c-55,0-95.4,1.8-113.9,10.6c-16,7.6-25.6,22.8-30,47.7c-0.3,1.6,0.2,3.3,1.3,4.5
					c1,1.2,2.5,1.8,4.1,1.8c0.1,0,0.2,0,0.3,0c26-1.2,52-2.5,78.1-3.8c101.3-4.9,206-10,309-13c1.6,0,3.2-0.8,4.2-2.2
					c1-1.3,1.3-3,0.9-4.6C665.7,132.2,638.2,128.4,573.1,128.4L573.1,128.4z"/>
			</g>
		</g>
	</g>
	<g>
		<g>
			<path d="M503.3,206.1c-150.2,0.9-159.1-5.8-159,16.8c0.2,29.6-9.5,22.8,142.6,21.8c152.1-0.9,146.1,4.2,146.7-17.5
				C634.5,198.6,631.7,205.3,503.3,206.1z"/>
		</g>
	</g>
	<g>
		<g>
			<path class="st0" d="M499,263.8c-23.2-1-22.2,31.6-1.4,32.5C518.5,297.1,520.6,264.7,499,263.8z"/>
		</g>
	</g>
	<g>
		<g>
			<path class="st2" d="M618,148.3c-8.9-0.4-8.5,12.1-0.5,12.4C625.4,161.1,626.3,148.7,618,148.3z"/>
		</g>
	</g>
	<g>
		<g>
			<path class="st2" d="M643.7,148.3c-8.9-0.4-8.5,12.1-0.5,12.4C651.2,161.1,652,148.7,643.7,148.3z"/>
		</g>
	</g>
	<g>
		<g>
			<path class="st2" d="M589.5,148.3c-8.9-0.4-8.5,12.1-0.5,12.4C597,161.1,597.8,148.7,589.5,148.3z"/>
		</g>
	</g>
	<g>
		<g>
			<g>
				<path class="st0" d="M482.6,407.9c-6.4,0-13.5-0.1-21.9-0.3c-8-0.1-16.9-0.3-26.9-0.4l-9.8,0c-8,0-15.3,0.1-22,0.1
					c5.1-11,27.8-59.7,27.8-59.7c0.9-1.9,1.8-4.2,2.8-6.9c0-0.1,0.5-1.2,0.5-1.2c0.8-2.2,1.7-4.5,2.7-7
					c4.9-12.2,11.8-26.2,22.2-26.8l0.5,0c5.9,0,10.6,4.9,15.2,10.3c2.5,3,5,6,7.5,9.1c1.5,1.9,3,3.7,4.4,5.6
					c2.2,2.8,4.4,5.5,6.6,8.3c2.6,3.3,5.1,6.5,7.7,9.7l2.4,2.9c7.7,9.6,15.4,19.1,23,28.7C523.8,404.2,517.8,407.9,482.6,407.9
					C482.6,407.9,482.6,407.9,482.6,407.9z"/>
			</g>
		</g>
		<g>
			<g>
				<path d="M458.5,308.5c4.8,0,8.9,4.4,13.1,9.3c2.7,3.2,5.3,6.3,7.4,9c1.5,1.8,3,3.7,4.4,5.6c2.2,2.7,4.3,5.5,6.5,8.2
					c2.6,3.3,5.1,6.5,7.7,9.8l3.7,4.6c7,8.7,14,17.5,21,26.2c-0.9,12.8-3.5,17-7.2,19.4c-5.7,3.7-16.7,4.5-32.7,4.5
					c-6.3,0-13.5-0.1-21.8-0.3c-7.9-0.1-16.9-0.3-27-0.4c-1.6,0-3.1,0-4.7,0c-1.7,0-3.4,0-5.1,0c-6.3,0-12.2,0-17.7,0.1
					c4.3-9.1,8.5-18.2,12.7-27.4l0.8-1.7c2.1-4.5,4.2-9,6.3-13.5c2.1-4.4,4.1-8.9,6.2-13.4c0.9-2,1.8-4.3,2.9-7.1
					c0-0.1,0.1-0.2,0.1-0.4l0.3-0.8c0.8-2.2,1.7-4.5,2.7-6.9c4.6-11.4,10.9-24.6,19.8-25.1C458.3,308.5,458.4,308.5,458.5,308.5
					 M435.6,339.6L435.6,339.6L435.6,339.6 M458.5,303.1c-0.2,0-0.4,0-0.7,0c-12.1,0.6-19.3,15.4-24.5,28.5
					c-1.1,2.8-2.2,5.6-3.1,8.1v0c-1,2.6-1.9,4.9-2.8,6.8c-4.2,8.9-8.3,17.9-12.5,26.8c-5.7,12.3-11.4,24.5-17.2,36.8
					c7.9-0.1,16.6-0.2,26.3-0.2c3.4,0,6.6,0,9.8,0c20.3,0.1,36.2,0.6,48.8,0.6c35.9,0,43.9-4,45.4-31.1c-8.6-10.8-17.3-21.6-26-32.4
					c-4.8-6-9.5-12-14.2-18c-1.5-1.9-3-3.7-4.5-5.6c-2.5-3.1-5-6.1-7.5-9.1C471.3,309.1,466,303.1,458.5,303.1L458.5,303.1z"/>
			</g>
		</g>
	</g>
	<g>
		<g>
			<g>
				<path class="st0" d="M379.7,407.5c-33.4,0-43.6-2.5-47.9-19.8l8.6-10.1c8.3-9.8,16.5-19.5,24.8-29.2l0.2-0.3
					c0.9-1.1,1.8-2.2,2.8-3.3c0.7-0.9,1.4-1.7,2.2-2.5c3.6-4,8.3-8.6,13.1-8.6c2.4,0,4.8,1.1,7.3,3.3c4.4,4,7.5,10.2,10.4,16.2
					l0.7,1.4c0.7,1.5,1.4,2.9,2.2,4.3c0.1,0.2,0.2,0.4,0.3,0.5c2.8,5.1,5.4,10.1,8,15.1c2.9,5.5,5.8,11.1,8.7,16.7
					c2.8,5.3,5.5,10.7,8.2,16l-5.4,0c-9.7,0-18.4,0.1-26.3,0.2l-0.8,0C390.7,407.5,384.9,407.5,379.7,407.5z"/>
			</g>
		</g>
		<g>
			<g>
				<path d="M383.6,336.4c1.7,0,3.5,0.9,5.5,2.7c4,3.6,7,9.6,9.8,15.4l0.3,0.6l0.3,0.7c0.7,1.5,1.5,3,2.3,4.5
					c0.1,0.1,0.1,0.2,0.2,0.3c0.1,0.1,0.1,0.3,0.2,0.4c2.5,4.6,5.1,9.5,7.9,14.9c2.9,5.5,5.8,11.1,8.7,16.6
					c1.9,3.7,3.9,7.6,6.2,12.1c-0.3,0-0.7,0-1,0c-9.8,0-18.4,0.1-26.3,0.2l-0.8,0c-6.2,0.1-12,0.1-17.2,0.1
					c-32.8,0-41.1-2.7-44.9-16.5l7.1-8.4c8.3-9.8,16.9-19.9,25.4-29.9c0,0,0.1-0.1,0.1-0.1c1-1.1,1.9-2.3,3-3.5
					c0.7-0.8,1.4-1.6,2.1-2.4C375.5,340.8,379.8,336.4,383.6,336.4 M383.6,331c-5.6,0-10.6,4.4-15.1,9.5c-0.8,0.8-1.5,1.7-2.2,2.5
					c-1,1.2-2,2.4-3,3.6c-11.5,13.4-22.9,26.9-34.3,40.4c4.6,20.6,16.8,23.3,50.8,23.3c5.4,0,11.4-0.1,18-0.1
					c7.9-0.1,16.6-0.2,26.3-0.2c3.4,0,6.6,0,9.8,0c-3.4-6.7-6.7-13.4-10.2-20c-2.9-5.6-5.8-11.1-8.7-16.7c-2.6-5-5.3-10-8-14.9
					c-0.1-0.2-0.2-0.5-0.4-0.7c-0.8-1.5-1.7-3.2-2.5-4.9c-3.1-6.3-6.4-13.2-11.3-17.7C389.5,332.1,386.5,331,383.6,331L383.6,331z"
					/>
			</g>
		</g>
	</g>
	<g>
		<g>
			<path d="M407,358.3c-4.7,5-10.5,8.3-18.1,7.8c-4.5-0.3-8.3-2.1-11.4-5.3c-2.4-2.5-2.9-5.5-4.8-8.2c-3-4.1-6.3-5.9-9.4-6.1
				c1-1.2,2-2.4,3-3.6c0.7-0.9,1.5-1.7,2.2-2.5c0.2,0.1,0.4,0.2,0.6,0.2c5.6,2.6,6.4,7.4,9.6,12.1c9,13.1,18.4,8.2,25.5-0.1
				c0.8,1.7,1.7,3.4,2.5,4.9C406.7,357.9,406.8,358.1,407,358.3z"/>
		</g>
	</g>
	<g>
		<g>
			<path d="M487.8,329c-3.4,0.6-6.8,2.1-10.5,4.4c-3.6,2.4-5.6,5.8-9.9,7.2c-3.5,1.1-7.1,0.9-10.6,0.4c-2.6-0.4-5-1.1-7.5-1.9
				c-2.1-0.7-4.3-1.4-6.5-2c-4.7-1.9-8.8-0.6-12.5,2.5c0.9-2.5,2-5.2,3.1-8.1c6.9-0.2,15,2.4,21.2,3.5c15.1,2.7,17.7-8.1,28.7-11.6
				C484.8,325.3,486.3,327.2,487.8,329z"/>
		</g>
	</g>
	<g>
		<g>
			<path d="M487.3,423.7c-14.7-0.2-25.6-0.1-33.4,1.3c-22.7,4.3-20.3,15.3-20.3,25.1c0,13.2,7.1,12.6,51.5,12.6
				c53.3,0,58.2-6.7,58.2-21.8C543.3,428.4,518,424,487.3,423.7z"/>
		</g>
	</g>
	<g>
		<g>
			<path class="st1" d="M497.7,423c-57.8-0.6-53.3,3.1-53.3,16.3c0,13.2,7.1,12.6,51.5,12.6c53.3,0,47.8-5,46.9-17.6
				C541.9,421.7,528.4,423.3,497.7,423z"/>
		</g>
	</g>
	<g>
		<g>
			<path class="st2" d="M655.5,276.8c-11.8-0.3-10,1.5-9.8,26.8c0.2,25.3,0.1,27.1,10.1,26.5c10.1-0.6,7.4-5.2,7.2-29.6
				C662.7,276.1,663.6,277.1,655.5,276.8z"/>
		</g>
	</g>
	<g>
		<g>
			<path d="M605.1,272.2c-18.7-0.6-37.3-1.2-56-1.8c-3.5-0.1-3.5,5.3,0,5.4c18.7,0.6,37.3,1.2,56,1.8
				C608.6,277.7,608.6,272.3,605.1,272.2z"/>
		</g>
	</g>
	<g>
		<g>
			<path d="M603.3,301.2l-54.2,0.3c-3.5,0-3.5,5.4,0,5.4l54.2-0.3C606.8,306.6,606.8,301.2,603.3,301.2z"/>
		</g>
	</g>
	<g>
		<g>
			<path d="M349.6,424.1c-5.4-0.3-10.8-0.6-16.3-0.8c-3.5-0.2-3.5,5.2,0,5.4c5.4,0.3,10.8,0.6,16.3,0.8
				C353.1,429.7,353.1,424.3,349.6,424.1z"/>
		</g>
	</g>
	<g>
		<g>
			<path d="M504.9,434.6c-9.6,0.2-19.3,0.5-28.9,0.7c-3.5,0.1-3.5,5.5,0,5.4c9.6-0.2,19.3-0.5,28.9-0.7
				C508.4,439.9,508.4,434.5,504.9,434.6z"/>
		</g>
	</g>
	<g>
		<g>
			<path d="M597,477.4c-11.3,0.1-22.6,0.3-33.8,0.4c-3.5,0-3.5,5.5,0,5.4c11.3-0.1,22.6-0.3,33.8-0.4
				C600.5,482.7,600.5,477.3,597,477.4z"/>
		</g>
	</g>
	<g>
		<path d="M487.6,359.5c-4.6,0.2-9.3,0.9-13.8,1.4c-3.6,0.4-21.9,1.1-8.6-4.6c2.3-1,9.1-3.6,11.4-4.5c5.3-2.1,10.6-4.2,15.9-6.3
			c3.2-1.3,1.8-6.5-1.4-5.2c-9.1,3.6-18.2,7.2-27.3,10.8c-3.5,1.4-7.8,2.3-9.9,5.7c-3.5,5.8,1.7,9.5,7.3,10.4c6,1,13.5-0.9,19.5-1.5
			c2.2-0.2,7.8-1,10.1-0.9c6.9,0.3,8.9,3.7,6.7,6.7c-2.2,3-8.5,5.6-15.6,7.2c-19.8,4.3-39.7,7.9-59.5,11.8c-3.4,0.7-2,5.9,1.4,5.2
			c19.8-3.9,39.7-7.8,59.5-11.8c7.8-1.6,20.8-3.3,21.2-14C504.8,360.2,494.8,359.2,487.6,359.5z"/>
	</g>
</g>
<g id="Glow_4_">
	<g>
		<path class="st1" d="M604,388.6c-17.4-2.3-17.7-22.3-17.4-35.5c0-3.5-5.3-3.5-5.4,0c0,0.9,0,1.8,0,2.8
			c-0.2,14.1-2.1,32.8-20.2,34.3c-3.1,0.2-3.4,4.6-0.9,5.3c0.2,0.2,0.4,0.4,0.7,0.5c10.7,5.1,17.4,13.3,20.1,24.9
			c0.7,3,5.4,2.3,5.3-0.7c-0.4-12.4,6.6-22.6,18.6-26.2C607.8,392.9,606.8,389,604,388.6z M582.1,409c-3.2-6.2-7.8-11.2-13.9-15.1
			c8.2-3,12.8-9.9,15.4-18c2.1,6.8,6,12.6,12.6,15.8C589.3,395.6,584.4,401.7,582.1,409z"/>
	</g>
	<g>
		<path class="st1" d="M634.6,431.3c-6.5-0.7-10.8-6.2-10.7-12.6c0.1-3-4.7-3.8-5.3-0.7c-1.3,6.4-5,10.9-10.9,13.4
			c-0.3-0.1-0.6-0.2-1-0.3c-3.4-0.8-4.8,4.4-1.4,5.2c7.3,1.8,12.2,7.8,12.3,15.3c0.1,2.9,4.8,3.8,5.3,0.7c1.3-7.2,5.6-13,12.4-15.7
			C638.2,435.5,637.7,431.7,634.6,431.3z M620.8,442.5c-1.6-3.3-4-6.1-7-8.2c2.8-1.8,5.1-4.1,6.8-6.8c1.6,3.1,4.2,5.5,7.3,7.2
			C625,436.8,622.6,439.5,620.8,442.5z"/>
	</g>
</g>
<g id="Dashes_14_">
	<g>
		<path class="st1" d="M781.7,175.5c-20.3,10.3-40.6,20.5-60.9,30.8c-3.1,1.6-0.4,6.2,2.7,4.7c20.3-10.3,40.6-20.5,60.9-30.8
			C787.6,178.6,784.8,174,781.7,175.5z"/>
	</g>
	<g>
		<path class="st1" d="M756.1,369.5c-12.3-6.7-24.6-13.3-37-20c-3.1-1.7-5.8,3-2.7,4.7c12.3,6.7,24.6,13.3,37,20
			C756.5,375.9,759.2,371.2,756.1,369.5z"/>
	</g>
	<g>
		<path class="st1" d="M222.1,362.7c-10.5,1.5-21.1,3.1-31.6,4.6c-3.4,0.5-2,5.7,1.4,5.2c10.5-1.5,21.1-3.1,31.6-4.6
			C227,367.4,225.5,362.2,222.1,362.7z"/>
	</g>
	<g>
		<path class="st1" d="M241,301.4c-24.9-18.8-49.9-37.6-74.8-56.4c-2.8-2.1-5.5,2.6-2.7,4.7c24.9,18.8,49.9,37.6,74.8,56.4
			C241,308.2,243.7,303.5,241,301.4z"/>
	</g>
</g>
<g id="Bow_1_">
	<g>
		<path class="st0" d="M410.1,177.5C296.4,291.3,267.1,307,267.1,327.4c0,20.3-4.1,69.1,6.8,65c10.8-4.1,70-65.4,136.3-131.8
			s143.1-128.2,136.3-136.3c-2.9-3.5-14.4-6.3-31.6-5.4c-20.2,1.1-43.7-2.2-55.1,8.1C446.3,139.2,425,162.6,410.1,177.5z"/>
		<path d="M272.6,395.3c-1.1,0-2.2-0.3-3.2-1c-6.3-4.5-6.2-24.6-5.4-52.6c0.2-5.4,0.3-10.4,0.3-14.3c0-14,11.6-24.9,50-61.1
			c22-20.7,52.1-49,93.8-90.7l0,0c5.6-5.6,12.1-12.4,18.9-19.5c11-11.5,22.4-23.4,30.8-31.1c9.4-8.5,25.9-8.5,41.9-8.6
			c4.9,0,10,0,14.8-0.3c16.6-0.9,29.9,1.6,33.8,6.4c5.3,6.3-7.8,19.6-61.8,69.3c-23.2,21.4-49.6,45.6-74.6,70.6
			c-13.9,13.9-27.6,27.7-40.5,40.7c-56,56.4-88.1,88.5-96.8,91.7C274,395.2,273.3,395.3,272.6,395.3z M410.1,177.5l1.9,1.9
			c-41.8,41.8-71.9,70.1-93.9,90.8c-36.2,34-48.3,45.4-48.3,57.1c0,4-0.2,9.1-0.3,14.5c-0.4,13.8-1.4,46.2,3.2,48c0,0,0.1,0,0.3-0.1
			c8-3,48.2-43.5,94.8-90.5c12.9-13,26.6-26.8,40.5-40.7c25.2-25.2,51.5-49.4,74.8-70.8c29.8-27.4,60.6-55.8,61.1-62.1
			c-2.4-2.3-12.7-5.1-29.2-4.2c-4.9,0.3-10.1,0.3-15.1,0.3c-15,0-30.5,0-38.3,7.2c-8.3,7.5-19.6,19.4-30.6,30.8
			c-6.8,7.2-13.3,13.9-19,19.6L410.1,177.5z"/>
	</g>
	<g>
		<path class="st0" d="M424.6,237.1c29.8,23.5,40.6,28.9,40.6,35.2s-30.7,19-41.5,22.6c-10.8,3.6-25.3-57.8-25.3-57.8H424.6z"/>
		<path d="M422.7,297.7c-0.9,0-2-0.2-3.1-0.9c-10.9-6.1-21.8-50.3-23.8-59.1l-0.8-3.3h30.5l0.7,0.6c8.9,7,16.1,12.4,21.8,16.7
			c14.4,10.8,19.8,14.9,19.8,20.6c0,10.2-42.9,25-43.4,25.1C424,297.6,423.4,297.7,422.7,297.7z M401.8,239.8
			c4.9,19.7,14,48.7,20.4,52.3c0.2,0.1,0.4,0.2,0.6,0.2c16.1-5.4,38.6-16.3,39.7-20.1c0-3-5.9-7.4-17.7-16.2
			c-5.6-4.2-12.6-9.4-21.2-16.2H401.8z"/>
	</g>
	<g>
		<path class="st0" d="M394.8,252.4c-12.6,48.7-20.8,71.3-15.3,75.8s36.1-7.2,39.7-11.7c3.6-4.5,5.4-79.4,5.4-79.4L394.8,252.4z"/>
		<path d="M383.6,332c-2.7,0-4.6-0.5-5.9-1.6c-5.5-4.6-2.2-16.7,6.5-48.9c2.3-8.6,5-18.4,7.9-29.7l0.3-1.2l34.9-18l-0.1,4.6
			c-0.6,22.8-2.2,76.3-6,81.1c-3.6,4.5-24.3,12.5-35.1,13.6C385.3,331.9,384.4,332,383.6,332z M397.1,254.3
			c-2.8,10.8-5.4,20.3-7.6,28.5c-6.2,22.9-11.1,41-8.3,43.3c3.7,2.9,32.6-7.3,35.9-11.3c1.9-3.7,3.8-39.7,4.7-73.2L397.1,254.3z"/>
	</g>
	<g>
		<path class="st0" d="M455.3,171.2c-18.1-33.4-27.1-43.3-36.1-35.2c-9,8.1-22.6,62.3-22.6,62.3l-17.1,5.4c-40.6-9-40.9-7-42.4,1.8
			c-1.2,6.9,3.3,79.5,7.8,92.8c2.1,6.1,5.2,12.7,12.5,12.7c8.6,0,15.8-10.3,20.7-16.1c8.3-9.8,15.1-20.7,20.6-32.2
			c0.5-0.9,0.3-1.8-0.1-2.5l31.9-20.3c0,0,38.4-7.2,42.9-14.4C477.8,218.1,473.3,204.6,455.3,171.2z"/>
		<path d="M357.3,313.7L357.3,313.7c-10,0-13.4-9.8-15.1-14.6c-4.8-13.9-9-87.6-7.9-94.1c0.6-3.3,1.1-6.4,3.9-8.3
			c4.4-3,12.9-2.1,41,4.1l15-4.7c2.5-10,14.2-54.2,23-62.2c3-2.7,6.2-3.8,9.5-3.2c7.8,1.4,15.9,11.6,30.8,39.2
			c19,35.2,23.2,48.5,18,56.9c-4.8,7.6-36.5,14.1-44.2,15.6l-29.8,19c0,0.8-0.2,1.7-0.6,2.5c-5.9,12.2-12.9,23.2-21,32.8
			c-0.6,0.7-1.2,1.4-1.8,2.2C373.2,305.1,366.2,313.7,357.3,313.7z M345.4,200.5c-1.9,0-3.3,0.2-4.1,0.7c-0.9,0.6-1.1,2-1.6,4.7
			c-1.1,6.1,3.2,78.5,7.7,91.5c2.3,6.5,4.8,10.9,9.9,10.9h0c6.3,0,12.3-7.4,16.8-12.9c0.6-0.8,1.3-1.6,1.8-2.2
			c7.8-9.3,14.6-19.9,20.3-31.7l-1.3-2.2l2.2-1.4l32.3-20.6l0.5-0.1c18.3-3.4,38.6-9.3,41.1-13.2c3.8-6-1.1-20-18.1-51.4l0,0
			c-9.4-17.3-19.9-35.2-27-36.4c-1-0.2-2.6-0.2-5,1.9c-6.2,5.6-16.4,39.5-21.8,60.9l-0.4,1.5l-19.3,6.1l-0.7-0.2
			C362.7,202.7,351.3,200.5,345.4,200.5z"/>
	</g>
	<g>
		<path d="M429.8,175.5c-5.7,6.3-13.9,16.4-19.6,22.7c-2.3,2.6,1.5,6.4,3.8,3.8c5.7-6.3,13.9-16.4,19.6-22.7
			C435.9,176.8,432.1,172.9,429.8,175.5z"/>
	</g>
	<g>
		<path d="M383.5,239.7c-3.3,2.1-11.2,7.3-14.5,9.4c-2.9,1.9-0.2,6.6,2.7,4.7c3.3-2.1,11.2-7.3,14.5-9.4
			C389.2,242.5,386.5,237.8,383.5,239.7z"/>
	</g>
	<g>
		<path d="M380.4,223.3c-4.2,0.6-12.8,1.8-17,2.5c-3.4,0.5-2,5.7,1.4,5.2c4.2-0.6,12.8-1.8,17-2.5
			C385.3,228,383.8,222.8,380.4,223.3z"/>
	</g>
	<g>
		<path class="st0" d="M390.3,187.4c-15.9,12.5-15.3,10.8-11.7,33.4c3.6,22.6,7.2,45.1,22.6,37c15.3-8.1,36.4-18.2,28-32.5
			C405.6,185.6,402.9,177.5,390.3,187.4z"/>
		<path d="M395.2,262.3c-1.7,0-3.2-0.4-4.7-1.1c-9-4.5-11.7-21.7-14.7-39.9l-0.5-3c-3.2-19.5-2.8-20.4,11.1-31.3l2.1-1.6l0,0
			c3.3-2.6,7.2-5.1,11.5-4.3c7,1.3,12.2,10.3,24.9,32c2,3.3,4.1,7,6.4,11c2.3,3.8,2.9,7.7,1.8,11.6c-2.8,10-16.4,17.1-28.5,23.5
			l-2.4,1.3C399.8,261.6,397.4,262.3,395.2,262.3z M391.9,189.6l-2.1,1.7c-11.8,9.3-11.8,9.3-9.1,26.2l0.5,3
			c2.4,15.3,5.2,32.6,11.7,35.9c1.8,0.9,4.1,0.6,6.9-0.8l2.4-1.3c10.5-5.5,23.6-12.4,25.8-20.1c0.7-2.4,0.3-4.8-1.2-7.3
			c-2.3-4-4.5-7.6-6.4-11c-10.8-18.4-16.7-28.5-21.2-29.4C397.3,186,395.2,187,391.9,189.6L391.9,189.6z"/>
	</g>
</g>
<g id="Thumb_5_">
	<g>
		<g>
			<path class="st0" d="M521.1,473.1c-11.2-13.9-43.8,5.3-100.1,39.3l79.9-1.4C518.9,496.2,529.1,483.1,521.1,473.1z"/>
		</g>
		<g>
			<path d="M502.6,513.2l-3.4-4.2c19.4-16,25.7-26.9,19.9-34.2c-9.6-12-28.3-2.1-83.8,31.4l-2.8-4.6c57.6-34.8,78.1-46,90.8-30.2
				C533.8,484.7,517.8,500.7,502.6,513.2z"/>
		</g>
	</g>
	<g>
		<path d="M433.7,501.6c-33.2-2.4-61.5,18.5-69.3,50.8c-0.8,3.4,4.4,4.8,5.2,1.4c7.2-30,33.3-49,64-46.8
			C437.2,507.2,437.1,501.8,433.7,501.6z"/>
	</g>
	<g>
		<path d="M503.5,511.9c2.7-2.1,5.4-4.2,8.2-6.2c2.8-2,0.1-6.7-2.7-4.7c-17.9,13.2-35,27.5-51.1,42.9c-2.5,2.4,1.3,6.2,3.8,3.8
			c11.2-10.7,22.9-20.8,35-30.5c-0.2,0-0.4,0-0.6,0c0.2,0,0.4,0,0.6,0c1-0.8,1.9-1.6,2.9-2.3c0,0.2,0,0.4,0,0.6
			C500.5,514.1,500.8,512.2,503.5,511.9z"/>
	</g>
	<g>
		<path d="M517.5,481.7c-5.4-4.5-13.4-5.2-19.1-0.6c-5.6,4.5-6.7,12.6-3.4,18.8c1.6,3.1,6.3,0.3,4.7-2.7c-4.8-8.9,6-18.2,14-11.6
			C516.3,487.7,520.2,483.9,517.5,481.7z"/>
	</g>
</g>
</svg>
