<?xml version="1.0" encoding="utf-8"?>
<!-- Generator: Adobe Illustrator 21.1.0, SVG Export Plug-In . SVG Version: 6.00 Build 0)  -->
<svg version="1.1" xmlns="http://www.w3.org/2000/svg" xmlns:xlink="http://www.w3.org/1999/xlink" x="0px" y="0px"
	 viewBox="0 0 3000 3000" style="enable-background:new 0 0 3000 3000;" xml:space="preserve">
<g id="fill">
	<g>
		<path style="fill:#FF5777;" d="M2827.2,1873.4c-14.8,0-26.8,12-26.8,26.8c0,14.8,12,26.8,26.8,26.8s26.8-12,26.8-26.8
			C2854,1885.4,2842,1873.4,2827.2,1873.4z"/>
		<path style="fill:#FF5777;" d="M1477.1,1110.2c2.4,15.6,15.7,26.9,31.7,26.9c0.1,0,0.2,0,0.4,0c7.4-0.1,14.9,1.5,21.7,4.7
			c16.6,7.7,27.7,23.8,29,42c1.4,18.7-8.2,36.7-24.9,47l-18.5,11.4c-10.8,6.7-16.6,19.1-14.7,31.6l7.9,52.4
			c2.4,15.6,15.7,26.9,31.7,26.9c0.1,0,0.2,0,0.3,0c0.2,0,0.3,0,0.5,0c7.4,0,14.5,1.6,21.2,4.7c16.5,7.7,27.6,23.8,29,42
			c1.4,18.7-8.2,36.7-24.9,47l-18.5,11.4c-10.8,6.7-16.6,19.1-14.7,31.6l7.6,50.6c0,0.1,0,0.2,0,0.3l0.2,1.5
			c2.3,15.6,15.9,26.9,32.2,26.9c0.2,0,0.3,0,0.5,0c13.4,0,26.3,5.4,36.1,15.2c3.2,3.2,5.8,6.8,7.9,10.7c12.8,24.1,5.2,53-17.7,67.1
			l-19.6,12.1c-10.8,6.7-16.6,19.1-14.7,31.6l7.8,51.5c2.4,15.8,16.3,27.7,32.3,27.7c0,0,0,0,0.1,0h0.3c25.1,0,46,18,49.8,42.8
			c3,20-6.1,39.7-23.3,50.3l-19.6,12c-10.8,6.7-16.6,19.1-14.7,31.6l9.2,61.2c0.8,5.2,3.8,9.8,8.2,12.6c4.5,2.9,10.1,3.6,15.3,2.1
			c4.4-1.3,7.8-2,10.3-2c25.1,0,46,18,49.8,42.8c3,20-6.1,39.7-23.3,50.3l-30.3,18.7c-6.2,3.8-9.5,10.9-8.4,18.1l2.1,13.7
			c0.9,6,4.8,11.2,10.3,13.7c2.4,1.1,5,1.7,7.6,1.7c3.3,0,6.6-0.9,9.5-2.7l52.8-32.5c11-6.8,16.8-19.4,14.9-32.2l-14.3-95l-0.1-0.5
			l-0.4-0.2c-0.5-0.3-1-0.5-1.4-0.7c0.2-2.4,0.3-5,0.5-7.8l0-0.1l-110-728.7l-0.1-0.6l-0.5-0.2c-0.4-0.1-0.7-0.3-1.1-0.4l-0.9-8.3
			c0.3-0.6,0.5-1.3,0.8-2l0.1-0.2l-35.1-232.7c-4.2-27.8-30.2-46.9-58-42.8c-13.4,2-25.3,9.2-33.3,20.1c-8.1,11-11.4,24.4-9.4,37.8
			L1477.1,1110.2z"/>
		<path style="fill:#FF5777;" d="M1224.2,1722.9c0-0.1,0-0.1,0-0.2l-2.8-18.8l-0.5-0.2c-0.2-0.1-0.4-0.2-0.6-0.3
			c-0.2-3.5-0.4-7.3-0.7-11.5l-68.7-455.5c-2-13.4-9.2-25.3-20.1-33.4c-10.9-8.1-24.4-11.4-37.8-9.4c-24.7,3.7-43.3,25.3-43.3,50.2
			c0,2.5,0.2,5.1,0.6,7.7l107.1,709.7l0.1,0.5l108.8,66.9l0.4,0.2l0.4-0.1c0.9-0.2,1.8-0.5,2.6-0.9l0.7-0.3l-4.8-32.2L1224.2,1722.9
			z"/>
		<path style="fill:#FF5777;" d="M1564.3,1387l-0.1-0.2l-7-4.3c-1.6-1-2.8-2.3-3.8-4l-0.2-0.3l-0.3-0.1c-8.2-3.5-17.3-2.8-24.9,1.9
			l-16.2,10v0L1239.3,1558c-8.1,5-13,13.7-13,23.2c0,1.4,0.1,2.7,0.3,4c1.4,9.1,7.2,16.8,15.5,20.7c3.7,1.7,7.6,2.6,11.5,2.6
			c5,0,9.9-1.4,14.3-4l288.7-178c9.3-5.7,14.3-16.4,12.7-27.3v0C1568.6,1394.8,1566.9,1390.6,1564.3,1387z"/>
		<path style="fill:#FF5777;" d="M1209.6,1390c3.7,1.7,7.6,2.5,11.4,2.5c5,0,9.9-1.4,14.3-4.1l288.6-177.9
			c11.9-7.3,16.3-22,10.4-34.9c-2.1-4.7-5.8-8.8-10.3-11.5c-9.1-5.5-19.8-5.6-28.8-0.1L1206.7,1342c-8.1,5-13,13.7-13,23.3
			c0,1.4,0.1,2.7,0.3,4.1C1195.5,1378.4,1201.3,1386.2,1209.6,1390z"/>
		<path style="fill:#FF5777;" d="M1621.8,1858.4c9.3-5.7,14.3-16.4,12.7-27.3v0c-2.3-15.3-15.4-23.2-27.1-23.2
			c-4.9,0-9.9,1.4-14.2,4.1l-15.6,9.6c-0.1,0-0.1,0.1-0.2,0.1l0,0l-270.5,166.7c-10.5,6.5-15.4,19.3-11.8,31.1
			c2.4,8.2,8.4,14.6,16.4,17.6c3.2,1.2,6.5,1.8,9.7,1.8c5,0,9.9-1.4,14.3-4.1l242.4-149.4L1621.8,1858.4z"/>
		<path style="fill:#FF5777;" d="M1545.3,1669.5c0.1-0.1,0.2-0.1,0.2-0.2l42.9-26.4c9.9-6.1,15.2-17.5,13.3-28.4
			c-1.4-8.6-6.7-15.7-14.5-19.6c-8.4-4.3-19-3.7-27.5,1.6l-14.7,9.1l-0.2,0l-0.2,0.2L1271.9,1774c-8,4.9-13,13.8-13,23.2
			c0,1.2,0.1,2.5,0.3,4.1c1.4,9.1,7.2,16.8,15.5,20.7c3.7,1.7,7.6,2.5,11.5,2.5c5,0,9.9-1.4,14.3-4.1L1545.3,1669.5z"/>
		<path style="fill:#FF5777;" d="M1610.2,2097.9l46.8-28.8c9.3-5.8,14.3-16.5,12.7-27.3v0c-2.3-15.3-15.4-23.2-27.1-23.2
			c-5,0-9.9,1.4-14.2,4.1l-18.9,11.6l-0.2,0.1l-129,79.5c-8.1,5-13,13.7-13,23.2c0,9.5,4.9,18.2,13,23.2c4.4,2.7,9.3,4.1,14.3,4.1
			c4.9,0,9.9-1.4,14.3-4.1l100.9-62.2C1610,2098.1,1610.1,2098,1610.2,2097.9z"/>
		<path style="fill:#FF5777;" d="M1658.3,2600.5c-49.6,0-90,40.4-90,90s40.4,90,90,90s90-40.4,90-90S1707.9,2600.5,1658.3,2600.5z"
			/>
		<path style="fill:#FF5777;" d="M852.1,328.2c-23.6,0-42.8,19.2-42.8,42.8c0,23.6,19.2,42.7,42.8,42.7c23.6,0,42.7-19.2,42.7-42.7
			C894.8,347.4,875.6,328.2,852.1,328.2z"/>
		<path style="fill:#FF5777;" d="M826.2,1638.1c-14.8,0-26.8,12-26.8,26.8s12,26.8,26.8,26.8s26.8-12,26.8-26.8
			S841,1638.1,826.2,1638.1z"/>
		<path style="fill:#FF5777;" d="M357.7,974.5c-14.8,0-26.8,12-26.8,26.8s12,26.8,26.8,26.8s26.8-12,26.8-26.8
			S372.5,974.5,357.7,974.5z"/>
	</g>
	<g>
		<path style="fill:#1FAAFF;" d="M1688.9,920.1c-14.8,0-26.8,12-26.8,26.8s12,26.8,26.8,26.8s26.8-12,26.8-26.8
			S1703.7,920.1,1688.9,920.1z"/>
		<path style="fill:#1FAAFF;" d="M2617.8,601.5c-49.6,0-90,40.4-90,90s40.4,90,90,90s90-40.4,90-90S2667.4,601.5,2617.8,601.5z"/>
		<path style="fill:#1FAAFF;" d="M2607.4,2342.8c-24.8,0-45.1,20.2-45.1,45.1c0,24.9,20.2,45.1,45.1,45.1s45.1-20.2,45.1-45.1
			C2652.4,2363,2632.2,2342.8,2607.4,2342.8z"/>
		<path style="fill:#1FAAFF;" d="M2381.5,2075.4l-28.8-18l-377.8,232.4c-5.5,3.4-8.6,9-8.6,15.4c0,6.4,3.1,12.1,8.6,15.4
			c2.9,1.8,6.2,2.7,9.5,2.7c3.3,0,6.6-0.9,9.5-2.7l391.4-240.6l1.1-0.7l-0.9-0.9C2384.3,2077.3,2383,2076.3,2381.5,2075.4z"/>
		<path style="fill:#1FAAFF;" d="M1861.9,2358.7c-20.6,0-37.3,13.1-37.3,29.1c0,16.1,16.8,29.1,37.3,29.1
			c20.6,0,37.3-13.1,37.3-29.1C1899.3,2371.8,1882.5,2358.7,1861.9,2358.7z"/>
		<path style="fill:#1FAAFF;" d="M1450.6,545.7c-19.9-28-47.1-50.4-78.7-64.6c-31.2-14.2-66-20.1-100.7-17.2
			c-32.5,2.6-65,12.7-96.6,30.1l-0.2,0.1c-0.6,0.5-1.1,0.9-1.7,1.3L965.9,622c-50.5,31.1-84.1,82.7-92.1,141.5l-0.2,1.1l-57.8,250.9
			c-2.8,12.9-0.3,26.2,6.9,37.3c7.3,11.2,18.4,18.8,31.4,21.5c3.3,0.7,6.7,1,10,1c22.5,0,43-15.6,48.3-38.2c0.1-0.3,0.1-0.5,0.2-0.8
			l0.1-0.6L950,928.4c6.5-18.7,11.4-38,14.7-57.3c3.3-19.5,5-39.3,5.1-58.9l0.1-21.5c0-4.7,0.1-8.5,0.4-11.7c0.3-3.9,0.9-7.8,1.8-12
			c3.4-16,10.9-31,21.4-43.3c5.3-6.2,11.4-11.7,18-16.3c5.1-3.6,9.7-6.1,14.1-8.6c1.7-1,3.4-1.9,5.1-2.9c10.2-5.7,23.7-13,38-19.4
			c3.8-1.7,8.4-0.5,10.6,2.8c2.6,3.8,1.8,8.7-1.7,11.5c-9.9,7.7-20.8,15.2-35.4,24.4c-2.1,1.3-4.3,2.7-6.4,4
			c-4.1,2.5-7.9,4.8-10.9,7c-5.1,3.6-9.7,7.9-13.7,12.6c-8,9.4-13.5,20.8-16.1,33.1c-0.7,3.4-1.1,6.4-1.3,9.2
			c-0.3,3.2-0.3,5.9-0.3,9.7l0.1,21.5l0.3,86l0.1,16.1l0.1,5c0.2,7,0.9,13.5,2.1,19.2c2.8,13.1,8.4,22.8,16.6,28.8l1.7,1.2l0.7,0.4
			c0.3,0.2,0.7,0.4,1.1,0.6c0.3,0.2,0.6,0.4,0.9,0.5c0.3,0.2,0.6,0.4,0.9,0.5l2,0.9l3.8,1.8l6.1,1.9c0.5,0.1,1,0.2,1.5,0.3
			c0.2,0,0.5,0.1,0.7,0.1l4.1,0.7l4.3,0.1c0.3,0,0.6,0,1,0c0.4,0,0.7,0,1.1,0l2.1-0.3c6.2-0.2,12-2.5,16.4-4.4
			c5.7-2.5,10.5-6.5,14-9.7l0.1-0.1c0.6-0.7,1.1-1.3,1.7-2c1.3-1.4,2.6-2.9,3.6-4.6c0.3-0.4,0.6-0.8,0.9-1.3
			c0.5-0.7,1.1-1.5,1.4-2.3l1.9-3.8c2.6-6.2,3.9-11.5,4-16.4l0.3-3.2l0.3-65.8l0.2-6.1l0.6-6.1c0.2-1.4,0.5-2.9,0.7-4.3
			c0.1-0.6,0.2-1.2,0.3-1.7c3.1-16,10.3-31.1,20.6-43.8c5.4-6.5,11.3-12.1,17.7-16.7l5-3.4l5.3-3.1c2.1-1.2,4.2-2.2,6.2-3.3
			c1.1-0.6,2.2-1.1,3.3-1.7c12-6.1,24.9-12.5,38.6-18.2c3.9-1.6,8.4-0.3,10.6,3.1c2.4,3.8,1.5,8.9-2.1,11.5
			c-12,8.6-24.5,16.3-36.1,23.4l-9.2,5.5l-4,2.5l-3.8,2.7c-5.1,3.9-9.6,8.2-13.3,12.9c-7.8,9.6-13.1,21.1-15.4,33.3
			c-0.1,0.6-0.2,1.2-0.3,1.8c-0.2,0.9-0.3,1.8-0.4,2.7l-0.4,4.6l-0.2,4.6l0.2,48.3l0.1,17.4l-0.3,4.9c-0.1,1.8-0.2,3.6-0.6,6l0,33.6
			c0,20.1,10.5,38.5,27.3,48c14.9,8.4,31.7,9.4,47.4,2.9l134.7-72c17.9-9.6,26.3-30,20.4-49.7c-2.5-8.3-7.7-15.7-14.6-20.9
			c-11.3-8.5-25.3-10.9-38.4-6.7l-20.7,12.7l-11.1,6.9c-2.7,1.7-5.2,4-7.5,6.8c-2.1,2.5-3.9,5.5-5.2,8.7c-1.3,3.1-2.2,6.5-2.5,10
			l-0.9,13.3c-0.3,4-0.6,8.4-1.1,13.3c-0.5,4.4-4,7.8-8.2,7.9c-4.4,0.1-8.1-3.1-8.6-7.5c-0.4-4.3-0.9-9-1.2-13.7l-0.5-6.8l-0.3-5.1
			l0-2.1c-0.1-11.3,3.7-22.6,10.6-31.8c3.7-4.7,7.8-8.7,12.4-11.9c0.6-0.4,1.2-0.8,1.7-1.1l0.5-0.3v-0.1l20.7-14.2
			c0.1-0.1,0.2-0.1,0.3-0.2c0.1,0,0.1-0.1,0.2-0.2c3.2-2,6.7-3.7,10.4-5.2l1.4-0.9l92.9-57.9l46.5-28.9
			c15.1-9.3,28.1-20.3,38.7-32.7c1.2-1.3,2.3-2.7,3.3-4l0.7-0.9c0.1-0.2,0.3-0.4,0.5-0.6c0.1-0.2,0.3-0.4,0.4-0.6l0.2-0.2l0-0.3
			c0.1,0,0.1-0.1,0.2-0.1l0.1-0.1l0.1-0.1c0.7-0.9,1.5-2,2.3-3.1c0.6-1,1.3-1.9,1.9-2.9c1.6-2.5,3.3-5,4.7-7.7
			c3.8-6.4,6.9-13.6,9.9-22.7c2.3-7,3.8-14.7,4.9-24.2l0,0c0.7-8.6,0.5-16.9-0.4-24.7C1482.8,606.2,1470.2,573.1,1450.6,545.7z"/>
		<path style="fill:#1FAAFF;" d="M820.1,2219.9l-45.8-28.2c-2.5-1.6-5.6-1.4-8,0.3c-2.4,1.7-3.5,4.6-2.8,7.5
			c4.9,21.8,16.3,43.2,31.3,58.8c6,6.3,13,12,20.5,17c1.2,0.8,2.6,1.2,4,1.2c1.2,0,2.4-0.3,3.5-0.9c2.4-1.3,3.8-3.7,3.8-6.4v-37.9
			C826.6,2226.7,824.1,2222.3,820.1,2219.9z"/>
		<path style="fill:#1FAAFF;" d="M915.1,2156.6c1.9-1.1,3.1-3,3.4-5.2c0.3-2.1-0.4-4.3-1.8-5.9c-9.9-10.8-21.7-19.4-35-25.4
			c-13.8-6.2-28.5-9.4-43.8-9.4c-7.4,0-14.7,0.8-21.7,2.2c-15.7,3.2-30,11.6-40.3,23.4c-2.1,2.4-5.6,8.1-8.2,12.7
			c-2.7,4.9-1.2,11,3.6,13.9l59.5,36.6c2.2,1.3,4.6,2,7.1,2c2.4,0,4.9-0.7,7-2L915.1,2156.6L915.1,2156.6z"/>
		<path style="fill:#1FAAFF;" d="M933.4,2175.4c-2.1-0.7-4.3-0.5-6.2,0.7l-71.3,43.8c-3.9,2.4-6.4,6.8-6.4,11.5v50.3
			c0,5.2,3.9,9.6,9,10.3c4.3,0.5,9.9,1.1,13.6,1.1c0.6,0,1.1,0,1.5,0c18.8-1.1,36.5-9.3,49.8-23.2c13.6-14.1,21.1-32.5,21.2-51.9
			v-0.6c0-13-2.3-25.7-6.9-37.8C937,2177.6,935.4,2176.1,933.4,2175.4z"/>
		<path style="fill:#1FAAFF;" d="M941.2,1317.6c0-24.9-20.2-45.1-45.1-45.1c-24.8,0-45.1,20.2-45.1,45.1c0,24.8,20.2,45.1,45.1,45.1
			C920.9,1362.6,941.2,1342.4,941.2,1317.6z"/>
		<path style="fill:#1FAAFF;" d="M709.6,1011.1c0-3.8-2-7.1-5.3-9c-3.3-1.8-7.2-1.7-10.4,0.2l-121.3,74.6
			c-7.7,4.8-12.4,13.1-12.4,22.1v155.2c0,3.8,2,7.2,5.3,9c1.6,0.9,3.3,1.3,5.1,1.3c1.9,0,3.7-0.5,5.4-1.5l122.6-75.4
			c7.7-4.7,12.4-13.3,12.4-22.3L709.6,1011.1z M591.4,1149.3c5-4.3,10.2-8.2,15.4-12c1.7-1.3,3.4-2.6,5.2-3.8
			c1.7-1.2,3.4-2.4,5.1-3.6c3.8-2.6,6.2-6.8,6.4-11.4c0.1-3.1,0.2-6.2,0.4-9.3c0.4-7.8,1.1-15.7,2.3-23.5c0.8-5,5.2-8.8,10.2-8.3
			c4.5,0.4,7.9,3.8,8.6,7.9c0.9,5.5,1.5,11,1.9,16.5c0.1,1,0.1,2.5,0.3,4.1c0.2,2.7,3.1,4.4,5.5,3.2c0,0,0,0,0.1,0
			c5.4-2.8,10.9-5.5,16.7-7.8c4.7-1.9,10.4-0.3,12.7,4.3c2,4,0.9,8.7-2.2,11.4c-5.9,5.2-12.1,9.8-18.4,14.2
			c-2.4,1.7-4.8,3.3-7.2,4.9c-3.9,2.6-6.3,6.9-6.4,11.6c-0.1,3.2-0.2,6.3-0.4,9.5c-0.4,7.8-1.1,15.7-2.4,23.5
			c-0.8,4.9-5.2,8.7-10.2,8.3c-4.5-0.4-7.9-3.8-8.6-7.9c-0.8-5.3-1.6-14.8-2.1-20.9c-0.2-2.7-3.1-4.3-5.5-3.1
			c-5,2.6-12.6,6.3-17.1,8.2c-4.6,1.9-10.1,0.1-12.4-4.4C587.1,1156.8,588.3,1152.1,591.4,1149.3z"/>
		<path style="fill:#1FAAFF;" d="M478.6,2463.8c-34.3,0-62.3,27.9-62.3,62.3s27.9,62.3,62.3,62.3s62.3-27.9,62.3-62.3
			S513,2463.8,478.6,2463.8z"/>
		<path style="fill:#1FAAFF;" d="M2065.9,1457.6c2,1.1,4.2,1.7,6.4,1.7c2.4,0,4.7-0.7,6.9-2l24.7-15.2c13.6-8.4,19.2-25.2,13.3-40
			l-46-115.5c-1.3-3.3-4.4-4.3-6.9-3.8c-2.5,0.5-5,2.6-5,6.1v157.1C2059.2,1451,2061.7,1455.3,2065.9,1457.6z"/>
		<path style="fill:#1FAAFF;" d="M2065.6,1173.7c2,1.1,4.1,1.7,6.3,1.7c2.3,0,4.5-0.6,6.6-1.8l282.7-170
			c6.8-4.1,11.1-11.6,11.1-19.6v-85c0-4-2.1-7.5-5.5-9.4c-3.5-1.9-7.6-1.9-11,0.2L2070,1065.5c-6.7,4.1-10.9,11.6-10.9,19.4v77.7
			C2059.2,1167.3,2061.6,1171.4,2065.6,1173.7z"/>
	</g>
	<g>
		<path style="fill:#FFDA00;" d="M2297.3,2282.8c-9.1-5.7-18.1-11.3-27.2-17l-0.5-0.3h-1.1L2103,2367.3c-5.8,3.6-9.1,9.5-9.1,16.3
			c0,6.8,3.3,12.7,9.1,16.3c3,1.8,6.5,2.8,10,2.8c3.5,0,7-1,10-2.8l180.8-111.2l-1.6-1.8C2300.9,2285.3,2299.2,2284,2297.3,2282.8z"
			/>
		<path style="fill:#FFDA00;" d="M2167.7,2056.3c-1.6-2.3-3.8-4.3-6.4-6c-8.4-5.2-16.8-10.5-25.2-15.7l-1.1-0.7l-287.7,176.9
			c-5.8,3.5-9.1,9.5-9.1,16.3c0,6.8,3.3,12.7,9.1,16.2c3.1,1.9,6.6,2.9,10.1,2.9c3.5,0,7-1,10-2.8l301.5-185.3L2167.7,2056.3z"/>
		<path style="fill:#FFDA00;" d="M2000.9,544.2c34.9,0,63.2-28.4,63.2-63.3c0-34.9-28.4-63.2-63.2-63.2c-34.9,0-63.3,28.4-63.3,63.2
			C1937.6,515.8,1966,544.2,2000.9,544.2z"/>
		<path style="fill:#FFDA00;" d="M1989.8,2438.6c-21.1,0-38.3,13.5-38.3,30.1s17.2,30.1,38.3,30.1s38.3-13.5,38.3-30.1
			S2011,2438.6,1989.8,2438.6z"/>
		<path style="fill:#FFDA00;" d="M1732.5,2279.2c-21.1,0-38.4,13.5-38.4,30.1c0,16.6,17.2,30.1,38.4,30.1s38.3-13.5,38.3-30.1
			C1770.9,2292.6,1753.7,2279.2,1732.5,2279.2z"/>
		<path style="fill:#FFDA00;" d="M236,1457.6c-50.2,0-91,40.8-91,91c0,50.2,40.8,91,91,91s91-40.8,91-91
			C327,1498.4,286.2,1457.6,236,1457.6z"/>
		<path style="fill:#FFDA00;" d="M2556.5,1629.7c-34.9,0-63.3,28.4-63.3,63.3s28.4,63.3,63.3,63.3s63.3-28.4,63.3-63.3
			S2591.4,1629.7,2556.5,1629.7z"/>
		<path style="fill:#FFDA00;" d="M1495.9,2358c-15.3,0-27.8,12.5-27.8,27.8s12.5,27.8,27.8,27.8s27.8-12.5,27.8-27.8
			S1511.2,2358,1495.9,2358z"/>
		<path style="fill:#FFDA00;" d="M521.7,2035.5l-45.2-27.8c-2.9-1.8-6.4-1.6-9.2,0.4c-2.7,2-3.9,5.2-3.1,8.4
			c5.1,21.6,16.5,42.7,31.3,58.1c6,6.3,12.9,11.9,20.4,16.9c1.4,0.9,2.9,1.4,4.5,1.4c1.4,0,2.7-0.3,3.9-1c2.7-1.5,4.3-4.2,4.3-7.2
			v-36.8C528.5,2042.8,525.9,2038.1,521.7,2035.5z"/>
		<path style="fill:#FFDA00;" d="M616.7,1973.8c2.1-1.3,3.5-3.5,3.9-5.9c0.3-2.4-0.4-4.9-2.1-6.7c-20.4-22.3-49.4-35.1-79.4-35.1
			c-14.8,0-29.1,3-42.5,8.8c-13.4,5.8-24.1,16.5-29.9,30.3c-2.2,5.2-0.3,11.1,4.5,14.1l60.4,37.5c2.3,1.4,4.9,2.2,7.6,2.2
			c2.7,0,5.3-0.7,7.6-2.2L616.7,1973.8L616.7,1973.8z"/>
		<path style="fill:#FFDA00;" d="M634.7,1990.9c-2.3-0.8-4.9-0.5-7,0.8l-71.3,43.8c-4.3,2.6-6.9,7.3-6.9,12.3v49.3
			c0,5.7,4.3,10.6,10,11.3c4.5,0.5,10.8,1.1,15.6,1.1c1.4,0,2.6,0,3.5-0.1c18.2-2,35.2-10.5,47.8-24.1
			c12.9-13.9,20.1-31.9,20.2-50.8v-0.6c0-13.2-2.4-26-7-38.1C638.8,1993.4,637,1991.6,634.7,1990.9z"/>
		<path style="fill:#FFDA00;" d="M1117.1,2402.1l-43.3-26.6c-2.9-1.8-6.4-1.6-9.2,0.4c-2.7,2-3.9,5.2-3.2,8.4
			c5,21.7,16.5,43,31.4,58.6c5.6,5.8,11.7,11,18.3,15.5c1.4,1,3,1.5,4.6,1.5c1.3,0,2.6-0.3,3.8-1c2.7-1.4,4.4-4.2,4.4-7.3v-37.1
			C1124,2409.5,1121.4,2404.8,1117.1,2402.1z"/>
		<path style="fill:#FFDA00;" d="M1212.1,2340.5c2.1-1.3,3.5-3.5,3.9-5.9c0.3-2.4-0.4-4.8-2.1-6.6c-20.4-22.3-49.3-35.1-79.4-35.1
			c-8.6,0-17.3,1-25.7,3.1c-18.7,4.6-34.2,16.3-42.5,31.9c-1,1.8-1.9,3.8-2.8,6c-1.9,5,0.1,10.8,4.7,13.6l58.7,36.1
			c2.3,1.4,4.9,2.2,7.6,2.2c2.7,0,5.3-0.7,7.6-2.2L1212.1,2340.5L1212.1,2340.5z"/>
		<path style="fill:#FFDA00;" d="M1230.2,2357.5c-2.3-0.8-4.9-0.5-7,0.8l-71.3,43.8c-4.2,2.6-6.9,7.4-6.9,12.3v53.4
			c0,3.9,2.8,7.3,6.6,8.1c4.1,0.8,7,1.2,8.9,1.4c1.9,0.2,3.9,0.2,5.8,0.2c18.6,0,36.6-7,50.6-19.6c15.8-14.3,24.8-33.9,25.2-55.1
			c0-0.8,0-1.6,0-2.4c0-13.1-2.4-26-7-38.2C1234.3,2360.1,1232.5,2358.3,1230.2,2357.5z"/>
		<path style="fill:#FFDA00;" d="M1931.1,1358.1c4.6,0,9-1.3,13-3.7c7.4-4.6,11.9-12.5,11.9-21.2l0-317c0-0.1,0-0.3,0-0.4
			c0-0.2,0-0.3,0-0.4c0-0.4,0.1-0.9,0.2-1.4c0-0.1,0-0.2,0-0.3l0-0.1c0.1-0.6,0.3-1.1,0.6-1.6l0.1-0.1c0-0.1,0.1-0.1,0.1-0.2
			c0.3-0.5,0.5-0.9,0.7-1.3l0.1-0.1c0-0.1,0.1-0.2,0.2-0.3c0.3-0.5,0.7-0.9,1.2-1.4c0,0,0.1-0.1,0.2-0.2c0.3-0.3,0.8-0.7,1.3-1
			l0.2-0.1l248.4-152.7c7.3-4.5,11.9-12.7,11.9-21.2v-4.6c0-9.2-4.8-17.3-12.8-21.8c-8-4.5-17.4-4.3-25.2,0.5L1918,970.6
			c-7.3,4.5-11.8,12.5-11.8,21v341.5C1906.2,1346.9,1917.4,1358.1,1931.1,1358.1z"/>
		<path style="fill:#FFDA00;" d="M2642.4,1355.1L2642.4,1355.1L2494,982.6c-1.5-3.7-4.5-6.6-8.3-7.8c-3.8-1.3-7.9-0.8-11.3,1.3
			l-308.4,190c-5.6,3.4-7.9,10.4-5.5,16.5l148.4,372.5c0.7,1.6,1.6,3.1,2.8,4.3c0.2,0.2,0.4,0.4,0.5,0.5c0.6,0.5,1.2,1,1.8,1.4
			c2.2,1.5,4.8,2.2,7.5,2.2c0.9,0,1.7-0.1,2.5-0.2c1.6-0.3,3.1-0.9,4.5-1.8l308.4-190C2642.6,1368.1,2644.9,1361.2,2642.4,1355.1z
			 M2506.8,1360.8l26.9-61.5c1.4-3.1,1.1-6.6-0.6-9.5c-1.8-2.9-4.7-4.8-8.1-5l-57.4-4.4c-4.6-0.3-8.2-4-8.2-8.3
			c0-2.2,0.8-4.3,2.4-5.9c1.6-1.6,3.7-2.5,5.9-2.5c0,0,0,0,0,0l86.1,0.6l0.1,0l0.1,0c2.4-0.6,4.9-0.3,7.1,0.6
			c2.1,0.9,3.9,2.4,5.1,4.4c1.3,1.9,2,4.2,2,6.6c0,2.7-1,5.3-2.9,7.4l-0.1,0.1l-43.4,84.2c-2.1,4.1-6.9,6-10.9,4.3
			c-2.1-0.9-3.7-2.5-4.5-4.6C2505.8,1365.1,2505.9,1362.8,2506.8,1360.8z M2244.6,1252c3.7-3.7,8.1-7.3,13.7-11.4
			c5.1-3.7,10-6.9,14.7-9.8c1.3-0.8,2.5-1.5,3.8-2.3c1.3-0.7,2.5-1.5,3.9-2.2c1.3-0.8,2.7-1.5,3.9-2.1c1.3-0.7,2.6-1.4,3.9-2.1
			c4.3-2.2,10.1-5,16.2-7.2c4.5-1.6,9.4,0.7,11,5.2c1.2,3.2,0.3,6.7-2.1,9.1c-4.7,4.5-9.6,8.2-13.8,11.3c-4.7,3.4-9.6,6.7-14.7,9.9
			c-4.5,2.9-9.6,5.8-15.4,8.8c-6.2,3.2-11.3,5.4-16.3,7.1c-4.5,1.5-9.4-0.9-10.9-5.4C2241.4,1257.8,2242.2,1254.3,2244.6,1252z
			 M2218.1,1210.1c0-0.1-0.1-0.3-0.1-0.4c0-0.1-0.1-0.2-0.1-0.4c0-0.1-0.1-0.3-0.1-0.4c0-0.2-0.1-0.5-0.1-0.7l0-0.3
			c0-0.3,0-0.5,0-0.7l0-0.1c0-0.1,0-0.1,0-0.2l0-0.1c0-0.3,0.1-0.6,0.2-1c0-0.1,0-0.1,0.1-0.2c0.1-0.2,0.1-0.5,0.2-0.7
			c0.2-0.7,0.6-1.3,1-2c0.1-0.1,0.1-0.2,0.2-0.3c0.4-0.6,1-1.2,1.6-1.6c19.8-15.1,40.5-28.5,60.1-40.9
			c20.8-13.2,41.4-26.3,61.4-38.8c16.9-10.5,39.3-24.3,62-37.8c20.8-12.7,41.4-25,63.7-34.8c1.1-0.5,2.3-0.7,3.4-0.7
			c3.3,0,6.4,1.9,7.8,5.1c1.5,3.4,0.6,7.5-2.3,9.9c-18.6,15.4-38.9,28.3-59.7,41.3c-17.7,11.3-37.3,23.4-61.7,38.3
			c-21.4,13-42.3,25.5-62.3,37.3c-19.8,11.9-41.1,24.4-63.5,35.3c-4.2,2-9.2,0.3-11.2-3.9v0
			C2218.4,1210.9,2218.2,1210.5,2218.1,1210.1z M2500.4,1114.1c-9.5,7.4-20.2,15-33.6,24.1c-10.7,7.2-22.1,14.5-34.7,22.3
			c-12.1,7.4-24.1,14.4-35.6,21c-13.8,7.8-25.5,13.9-36.6,19.3c-2,1-4.3,1.1-6.4,0.4c-2.1-0.7-3.8-2.3-4.8-4.3
			c-1.7-3.6-0.7-7.9,2.4-10.3c9.9-7.6,20.9-15.5,33.7-24c11.1-7.4,22.8-15,34.7-22.4c12.5-7.6,24.1-14.5,35.6-21
			c9.8-5.5,22.9-12.7,36.6-19.2l0,0c1.1-0.6,2.4-0.8,3.6-0.8c0.9,0,1.9,0.2,2.8,0.5c2.1,0.7,3.8,2.3,4.8,4.3
			C2504.5,1107.4,2503.5,1111.7,2500.4,1114.1z M2267.8,1303.9c12.1-9.2,25.7-18.6,42.9-29.9c14.9-9.7,29.8-19.1,44.1-28.1
			l22.3-13.6l22.5-13.3c12.4-7.2,28.9-16.6,46.1-24.7c1.1-0.6,2.4-0.8,3.6-0.8c0.9,0,1.9,0.2,2.8,0.5c2.1,0.8,3.8,2.3,4.8,4.3
			c1.7,3.6,0.7,7.8-2.5,10.2c-14.6,11.4-29.8,21.6-42.8,30l-22,14.1l-22.2,13.8c-14.2,8.7-28.9,17.5-44.9,26.8
			c-18.2,10.6-32.4,18.2-46,24.9c-2,1-4.3,1.1-6.4,0.4c-2.1-0.7-3.8-2.2-4.8-4.3C2263.6,1310.6,2264.6,1306.3,2267.8,1303.9z
			 M2318.6,1416.2L2318.6,1416.2l43.5-84.2c2.1-4.1,6.9-6,10.9-4.3c2.1,0.9,3.7,2.5,4.5,4.6c0.8,2.1,0.8,4.4-0.1,6.5l-26.9,61.4
			c-1.4,3.1-1.1,6.6,0.6,9.5c1.8,2.9,4.7,4.7,8.1,5l57.4,4.4c4.6,0.3,8.2,4,8.2,8.3c0,4.6-3.8,8.4-8.4,8.4l-86.1-0.6l-0.1,0l-0.1,0
			c-2.5,0.6-4.9,0.3-7.2-0.7c-0.5-0.2-0.9-0.5-1.4-0.8l-0.4-0.3h0c-0.1-0.1-0.2-0.1-0.3-0.2l-0.1-0.1c0,0-0.1,0-0.1-0.1l-0.1-0.1
			c-0.2-0.1-0.3-0.3-0.5-0.4c-0.5-0.4-0.9-0.8-1.3-1.3c-0.2-0.2-0.3-0.4-0.4-0.5c-0.2-0.2-0.3-0.4-0.5-0.7c-0.2-0.2-0.3-0.4-0.5-0.7
			c-0.1-0.2-0.3-0.5-0.4-0.7c-0.1-0.2-0.2-0.5-0.4-0.8c-0.1-0.1-0.1-0.3-0.2-0.5l-0.1-0.2c0-0.1-0.1-0.2-0.1-0.3
			c-0.1-0.2-0.1-0.5-0.2-0.8c-0.1-0.2-0.1-0.5-0.1-0.7l0-0.2c0-0.3-0.1-0.5-0.1-0.8c0-0.3,0-0.6,0-0.9
			C2315.7,1420.9,2316.7,1418.3,2318.6,1416.2z M2428.3,1288.8c1.6-1.6,3.7-2.5,5.9-2.5c0,0,0,0,0.1,0c3.8,0,7.2,2.5,8.2,6.2
			c2.2,8.1,4.2,16.7,6.3,27.8c1.9,9.4,3.4,19.1,4.7,28.1c1.4,9.8,2.6,19.1,3.4,28.3c1.1,11.4,1.5,20.1,1.5,28.5
			c0,4.7-3.8,8.5-8.5,8.5c-3.8,0-7.1-2.5-8.1-6.1c-2.3-8.1-4.4-17-6.4-27.8c-1.7-8.6-3.2-17.8-4.6-28.1c-1.1-8.6-2.4-18.5-3.3-28.3
			c-1-11-1.5-20.1-1.6-28.5C2425.8,1292.6,2426.7,1290.4,2428.3,1288.8z"/>
		<path style="fill:#FFDA00;" d="M704.3,1359.8c-3.3-1.8-7.2-1.7-10.4,0.2l-121.3,74.6c-7.7,4.8-12.4,13-12.4,22.1V1612
			c0,3.8,2,7.2,5.3,9.1c1.6,0.9,3.3,1.3,5.1,1.3c1.9,0,3.7-0.5,5.4-1.6l122.6-75.4c7.7-4.7,12.4-13.3,12.4-22.3l-1.4-154.3
			C709.6,1365,707.6,1361.7,704.3,1359.8z M674.9,1450.1c-5.2,5-11,9.3-16,12.9c-6.6,4.6-12.1,8.1-17.2,11.1c-6,3.6-12,7-17.9,10.1
			c-5.4,2.8-11.9,6.1-18.6,8.8c-4.3,1.7-9.3-0.4-11-4.7c-1.3-3.3-0.4-7.2,2.3-9.5c5.6-5,11.6-9.4,16.2-12.6
			c5.1-3.7,10.7-7.4,17.1-11.4c5-3.2,10.6-6.5,17.6-10.3c5.8-3,12.1-6.1,18.7-8.5c2.2-0.8,4.5-0.7,6.6,0.3c2.1,1,3.6,2.7,4.4,4.9
			C678.1,1444.2,677.3,1447.7,674.9,1450.1z M596.4,1532.8c5.6-5,11.6-9.4,16.2-12.7c5.9-4.2,11.9-8.1,17-11.3
			c6.7-4.1,12.3-7.4,17.8-10.2c7.1-3.7,13-6.4,18.7-8.6c1-0.4,2-0.5,3-0.5c1.2,0,2.4,0.3,3.6,0.8c2.1,1,3.7,2.7,4.5,4.8
			c1.2,3.2,0.3,6.9-2.2,9.3c-4.5,4.1-9.6,8.2-16.1,12.8c-5.1,3.7-10.7,7.4-17.1,11.2c-4.8,2.9-11.1,6.6-17.8,10.1
			c-7,3.7-12.9,6.4-18.7,8.7c-4.4,1.7-9.3-0.5-11-4.9C592.9,1538.9,593.8,1535.1,596.4,1532.8z"/>
		<path style="fill:#FFDA00;" d="M704.3,644.4c-3.3-1.8-7.2-1.7-10.4,0.2l-121.3,74.6c-7.6,4.7-12.4,13.1-12.4,22.1v155.3
			c0,3.8,2,7.2,5.3,9c1.6,0.9,3.3,1.3,5.1,1.3c1.9,0,3.7-0.5,5.4-1.5L698.6,830c7.7-4.7,12.4-13.3,12.4-22.3l-1.4-154.3
			C709.6,649.6,707.6,646.3,704.3,644.4z M679.3,758.2c-5.2,4.5-11,9-18.3,14.1c-6.8,4.7-13.5,9-19.3,12.6
			c-5.9,3.6-12.9,7.7-20,11.5c-5.5,3-12.9,6.8-20.8,10c-4.3,1.8-9.3-0.3-11.1-4.7c-1.4-3.3-0.5-7.2,2.3-9.6
			c6.3-5.5,12.8-10.2,18.3-14.1c6.4-4.5,13-8.8,19.3-12.7c5.4-3.3,12.6-7.6,20-11.5c5.5-3,12.9-6.8,20.8-9.9c1-0.4,2.1-0.6,3.2-0.6
			c1.1,0,2.3,0.2,3.4,0.7c2.1,0.9,3.7,2.5,4.5,4.6C682.9,752,682,755.8,679.3,758.2z"/>
	</g>
</g>
<g id="outline">
	<g>
		<path d="M2650.1,2031.3L2650.1,2031.3c-0.1-0.1-0.2-0.1-0.2-0.1c-13.6-8.4-30.5-8.4-44.1,0L2091,2347.8c-12.5,7.7-20,21.1-20,35.8
			s7.5,28.1,20,35.8c6.8,4.2,14.4,6.3,22,6.3c7.6,0,15.2-2.1,22-6.3l514.9-316.5c12.5-7.7,20-21.1,20-35.8
			C2670,2052.3,2662.6,2038.9,2650.1,2031.3z M2636.9,2081.6L2122,2398.1c-5.5,3.4-12.4,3.4-17.9,0c-5.2-3.2-8.1-8.5-8.1-14.6
			c0-6.1,3-11.4,8.1-14.6l514.8-316.6c2.8-1.7,5.9-2.5,9-2.5c3.1,0,6.2,0.8,9,2.5l6.6-10.6l-6.5,10.7c5.2,3.2,8.1,8.5,8.1,14.6
			C2645.1,2073.1,2642.1,2078.4,2636.9,2081.6z"/>
		<path d="M2458.4,1272.1c0,5,4.2,9,9.1,9.3l57.4,4.4c6.5,0.5,10.5,7.2,7.9,13.1l-26.9,61.5c-2,4.7,0.1,10.3,5,12.4
			c4.6,1.9,9.9-0.4,12.2-4.8l43.3-84.1c1.9-2.2,3.1-5,3.1-8c0-2.7-0.8-5.1-2.2-7.1c-1.3-2.1-3.2-3.7-5.6-4.8
			c-2.6-1.1-5.2-1.3-7.8-0.7l-86.1-0.6C2462.7,1262.6,2458.3,1266.8,2458.4,1272.1z"/>
		<path d="M1962.3,2341c6.8,4.2,14.4,6.3,22,6.3c7.6,0,15.2-2.1,22-6.3l514.9-316.5c12.5-7.7,20-21.1,20-35.8
			c0-14.7-7.4-28-19.8-35.8c-0.1,0-0.2-0.1-0.2-0.1c-13.6-8.4-30.5-8.4-44.1,0l-514.8,316.6c-12.5,7.7-20,21.1-20,35.8
			C1942.3,2319.9,1949.8,2333.3,1962.3,2341z M1975.4,2290.6l514.8-316.6c2.8-1.7,5.9-2.5,9-2.5c3.1,0,6.1,0.8,8.9,2.5
			c0.1,0,0.1,0.1,0.2,0.1c5.2,3.2,8.1,8.5,8.1,14.6c0,6.1-3,11.4-8.1,14.6l-514.9,316.5c-5.5,3.4-12.4,3.4-17.9,0
			c-5.2-3.2-8.1-8.5-8.1-14.6C1967.3,2299.1,1970.2,2293.8,1975.4,2290.6z"/>
		<path d="M2418.9,1139.2c-11.7,7.3-23.3,14.8-34.8,22.4c-11.5,7.6-22.7,15.6-33.7,24c-3.4,2.7-4.7,7.5-2.7,11.5
			c2.2,4.7,7.9,6.6,12.6,4.4c12.5-6,24.6-12.5,36.6-19.3c12-6.8,23.9-13.8,35.7-21c11.7-7.3,23.3-14.7,34.8-22.3
			c11.5-7.7,22.8-15.6,33.7-24.1c3.4-2.7,4.6-7.4,2.7-11.5c-2.2-4.7-7.9-6.7-12.5-4.5c-12.5,5.9-24.7,12.5-36.7,19.3
			C2442.5,1125,2430.7,1132,2418.9,1139.2z"/>
		<path d="M2230.2,1216c21.9-10.7,42.8-22.9,63.6-35.3c20.8-12.4,41.6-24.8,62.3-37.3c20.7-12.6,41.2-25.4,61.7-38.3
			c20.5-12.8,41-25.8,59.8-41.4c3.2-2.6,4.4-7.1,2.6-11.1c-2.1-4.8-7.7-7-12.4-4.9c-22.4,9.8-43.2,22.2-63.8,34.8
			c-20.8,12.4-41.4,25.1-62,37.8c-20.5,12.9-41,25.8-61.4,38.8c-20.4,13-40.7,26.1-60.1,40.9c-3.5,2.7-4.7,7.5-2.7,11.6
			C2219.9,1216.3,2225.5,1218.3,2230.2,1216z"/>
		<path d="M2454.5,1348.2c-1.4-9.4-2.9-18.8-4.7-28.1c-1.8-9.4-3.8-18.7-6.3-27.9c-1.1-4-4.8-6.9-9.2-6.9c-5.2,0.1-9.4,4.3-9.3,9.5
			c0.1,9.6,0.7,19.1,1.6,28.6c0.8,9.5,2,18.9,3.3,28.3c1.3,9.4,2.8,18.8,4.6,28.1c1.8,9.4,3.8,18.7,6.5,27.9
			c1.1,3.9,4.8,6.8,9.1,6.8c5.2,0,9.5-4.2,9.5-9.5c0-9.6-0.7-19.1-1.5-28.6S2455.8,1357.6,2454.5,1348.2z"/>
		<path d="M2367.9,1267.3l22.2-13.8l22-14.1c14.6-9.5,29-19.3,42.9-30c3.4-2.7,4.6-7.4,2.7-11.5c-2.2-4.7-7.9-6.7-12.5-4.5
			c-15.8,7.5-31.1,16-46.1,24.8l-22.5,13.3l-22.3,13.6c-14.8,9.2-29.5,18.6-44.1,28.1c-14.6,9.5-29,19.3-43,29.9
			c-3.5,2.7-4.7,7.5-2.7,11.6c2.3,4.7,7.9,6.6,12.6,4.3c15.7-7.7,31-16.2,46.1-24.9C2338.1,1285.3,2353.1,1276.4,2367.9,1267.3z"/>
		<path d="M2416.6,1418.1l-57.4-4.4c-6.4-0.5-10.5-7.2-7.9-13.1l26.9-61.4c2.1-4.7-0.1-10.3-4.9-12.4c-4.6-1.9-9.9,0.4-12.2,4.8
			l-43.3,84c-1.9,2.2-3.1,5-3.1,8.1c0,2.7,0.8,5.1,2.2,7.1c1.3,2,3.2,3.7,5.5,4.7c2.6,1.1,5.3,1.3,7.8,0.7l86.1,0.6
			c5.1,0,9.4-4.1,9.4-9.4C2425.8,1422.4,2421.6,1418.4,2416.6,1418.1z"/>
		<path d="M2414.4,1910.6c0-14.7-7.5-28.1-20.1-35.9c-13.6-8.4-30.5-8.4-44.1,0l-514.9,316.5c-12.5,7.7-20,21.1-20,35.8
			c0,14.7,7.5,28.1,20.1,35.9c6.8,4.2,14.4,6.3,22.1,6.3c7.6,0,15.2-2.1,22-6.3l514.9-316.5
			C2406.9,1938.7,2414.4,1925.3,2414.4,1910.6z M2381.3,1925.1l-514.9,316.5c-5.6,3.4-12.4,3.4-18-0.1c-5.1-3.2-8.1-8.5-8.1-14.5
			c0-6.1,3-11.4,8.1-14.6l514.9-316.5c2.8-1.7,5.8-2.5,9-2.5c3.1,0,6.2,0.9,9.1,2.6c5.1,3.2,8.1,8.5,8.1,14.6
			C2389.4,1916.7,2386.4,1922,2381.3,1925.1z"/>
		<path d="M2285.6,1251.2c5-3.1,9.9-6.4,14.7-9.9c4.8-3.5,9.5-7.2,13.9-11.4c2.7-2.5,3.7-6.5,2.4-10.2c-1.8-5-7.2-7.6-12.2-5.8
			c-5.7,2.1-11.1,4.6-16.3,7.3c-5.3,2.7-10.5,5.6-15.5,8.7c-5.1,3.1-10,6.4-14.8,9.8c-4.8,3.5-9.5,7.2-13.8,11.5
			c-2.6,2.5-3.6,6.4-2.4,10c1.7,5,7.2,7.7,12.2,6c5.7-2,11.1-4.5,16.4-7.2C2275.4,1257.3,2280.6,1254.4,2285.6,1251.2z"/>
		<path d="M1749.8,2124.7l512.8-315.3c3.7-2.3,5.9-6.3,5.9-10.6c0-4.3-2.2-8.4-5.9-10.6l-581.2-357.3c-20-12.3-33.6-32.9-37.2-56.2
			l-55.6-368.5c-6.2-40.8-44.4-69-85.2-62.9c-19.8,3-37.2,13.5-49.1,29.6c-11.9,16.1-16.8,35.8-13.8,55.6l16.3,108.2
			c1.9,12.8-3.9,25.4-14.9,32.2l-232.7,143.4c-9.9,6.1-22.8,0.1-24.6-11.4l-10.3-68.1c-3-19.7-13.5-37.2-29.6-49.1
			c-16.1-11.9-35.8-16.8-55.6-13.8c-36.3,5.5-63.7,37.3-63.7,73.9c0,3.7,0.3,7.4,0.9,11.3l55.8,369.5c2.4,16.2-5.1,32.4-19,40.9
			l-199.4,122.6c-3.7,2.3-6,6.3-6,10.6c0,4.3,2.2,8.4,6,10.6l415.6,255.5c0.1,0,0.2,0.1,0.2,0.1l20.2,12.4c0,0,0.1,0.1,0.1,0.1
			l256.7,157.8c2,1.2,4.2,1.8,6.5,1.8s4.5-0.6,6.6-1.8L1749.8,2124.7C1749.8,2124.7,1749.8,2124.7,1749.8,2124.7z M1715.7,1481.2
			l448.3,275.6c31.3,19.2,31.3,64.7,0,84c-15.7,9.7-35.6,9.7-51.4,0.2L1695,1587.9c-12.9-7.8-21.7-21-23.9-35.9l-5.7-37.5
			C1661.1,1486.5,1691.6,1466.4,1715.7,1481.2z M1207.3,1342.9l288.7-177.9c8.5-5.3,18.9-5.3,27.7,0.1c4.3,2.6,7.8,6.5,9.9,11.1
			c5.8,12.6,1.1,26.8-10,33.6l-288.7,177.9c-16,9.9-36.9,0.2-39.8-18.4c-0.2-1.3-0.3-2.6-0.3-3.9
			C1194.8,1356.2,1199.4,1347.7,1207.3,1342.9z M1267.4,1603.6c-16,9.9-37,0.2-39.8-18.5c-0.2-1.3-0.3-2.6-0.3-3.9
			c0-9,4.6-17.5,12.5-22.4l272.9-168.2c0,0,0.1,0,0.1-0.1l15.7-9.7c7.4-4.6,16-5.2,24-1.8c1,1.7,2.4,3.2,4.2,4.4l6.8,4.2
			c2.5,3.4,4.1,7.4,4.8,11.7c1.6,10.4-3.2,20.7-12.2,26.3L1267.4,1603.6z M1503.9,1543.9l-229.1,138.8c-14.1,8.5-32.4,0-34.9-16.3
			c-0.2-1.2-0.2-2.3-0.2-3.4c0-8,4.1-15.5,11-19.7l228.8-141c14.1-8.7,32.6-0.2,35,16.3l0.3,2.2
			C1516.2,1529.9,1511.9,1539,1503.9,1543.9z M1476.2,1383.8l-234.2,144.4c-9.9,6.1-22.8,0.1-24.6-11.4l-9.3-61.7
			c-1.8-12,3.7-23.9,14.1-30.3l234.7-144.7c9.4-5.8,21.7-0.1,23.3,10.8l9.6,63.6C1491.5,1366.1,1486.2,1377.7,1476.2,1383.8z
			 M1078.1,1801.9l-64.3,39c-15.8,9.6-35.6,9.5-51.4-0.2c-15.6-9.6-23.5-25.8-23.5-42c0-16.2,7.8-32.4,23.5-42l87.4-53.7
			c19.2-11.8,44.2-0.2,47.5,22.1l4.1,27C1104.4,1771.9,1095.2,1791.6,1078.1,1801.9z M1158.2,1961.1l-107.1-709.7
			c-0.4-2.6-0.6-5.1-0.6-7.6c0-24.4,18.3-45.6,42.5-49.3c13.2-2,26.3,1.2,37.1,9.2c10.7,7.9,17.8,19.5,19.7,32.7l73.4,486.3
			c0,0,0,0.1,0,0.1l41.1,272.4l5.1,34.1L1158.2,1961.1z M1260.3,1801.1c-0.2-1.3-0.3-2.7-0.3-4c0-9,4.7-17.5,12.5-22.3l272.9-168.2
			c0,0,0,0,0.1,0l14.9-9.2c8-4.9,18.1-5.8,26.6-1.6c7.5,3.8,12.5,10.6,13.9,18.9c1.9,10.8-3.6,21.6-12.9,27.4l-42.9,26.4
			c-0.1,0.1-0.2,0.1-0.3,0.2L1300,1819.5C1284,1829.4,1263.1,1819.7,1260.3,1801.1z M1296.1,2019.2c-3.4-11.4,1.2-23.7,11.4-30
			l270.4-166.7c0.1,0,0.2-0.1,0.2-0.1l15.7-9.7c4.2-2.6,8.9-3.9,13.7-3.9c11.3,0,23.8,7.7,26.1,22.4c1.6,10.5-3.2,20.7-12.2,26.3
			l-43.8,27c0,0,0,0-0.1,0.1L1335,2034C1320.3,2043,1301,2035.7,1296.1,2019.2z M1609.4,2097.2l-101,62.3c-8.5,5.2-19.1,5.2-27.5,0
			c-16.7-10.3-16.7-34.5,0-44.7l129.1-79.6c0,0,0,0,0.1-0.1l18.9-11.6c4.2-2.6,8.9-4,13.7-4c11.3,0,23.8,7.7,26.1,22.4
			c1.6,10.5-3.2,20.7-12.2,26.3l-46.9,28.9C1609.6,2097.2,1609.5,2097.2,1609.4,2097.2z M1712.1,2118.5l-52.8,32.4
			c-10.5,6.4-24.1,0.1-25.9-12l-2.1-13.7c-1-6.8,2.1-13.5,8-17.1l30.3-18.7c17.5-10.8,26.9-30.9,23.8-51.3
			c-3.8-25.3-25.2-43.6-50.8-43.6c-2.8,0-6.6,0.8-10.5,2c-10.1,3.1-20.7-3.4-22.2-13.9l-9.2-61.2c-1.8-12.1,3.7-24.2,14.2-30.6
			l19.6-12c17.5-10.8,26.9-30.9,23.8-51.3c-3.8-25.3-25.2-43.6-50.8-43.6h-0.3c-15.7,0-29-11.4-31.4-26.9l-7.8-51.4
			c-1.8-12.1,3.8-24.2,14.2-30.6l19.6-12.1c22.5-13.9,31.5-43.1,18.1-68.4c-2.1-4-4.8-7.7-8-10.9c-10.5-10.5-23.9-15.6-37.2-15.5
			c-15.6,0.1-29-10.7-31.3-26.1l-0.2-1.3c0-0.1,0-0.2,0-0.4l-7.6-50.7c-1.8-12.1,3.7-24.2,14.2-30.6l18.5-11.4
			c16.5-10.2,26.7-28.5,25.3-47.9c-1.4-18.8-12.7-35-29.5-42.8c-7.1-3.3-14.6-4.8-22.1-4.8c-15.4,0.2-28.8-10.8-31.1-26l-7.9-52.4
			c-1.8-12.1,3.8-24.2,14.2-30.6l18.5-11.4c16.5-10.2,26.7-28.6,25.3-48c-1.4-18.8-12.7-35-29.6-42.8c-7-3.2-14.6-4.8-22.1-4.7
			c-15.4,0.2-28.7-10.8-31-26.1l-12.9-85.2c-2-13.2,1.3-26.3,9.2-37.1c7.9-10.7,19.5-17.7,32.7-19.7c27.2-4.1,52.7,14.7,56.8,41.9
			l162.6,1077.4C1728.4,2099.7,1722.8,2112,1712.1,2118.5z"/>
		<path d="M1989.8,2415.6c-33.8,0-61.3,23.8-61.3,53.1c0,29.3,27.5,53.1,61.3,53.1c33.8,0,61.3-23.8,61.3-53.1
			C2051.1,2439.5,2023.7,2415.6,1989.8,2415.6z M1989.8,2496.8c-20,0-36.3-12.6-36.3-28.1s16.3-28.1,36.3-28.1
			c20.1,0,36.3,12.6,36.3,28.1S2009.9,2496.8,1989.8,2496.8z"/>
		<path d="M1861.9,2334.7c-33.8,0-61.3,23.8-61.3,53.1s27.5,53.1,61.3,53.1c33.8,0,61.3-23.8,61.3-53.1S1895.7,2334.7,1861.9,2334.7
			z M1861.9,2415.9c-20,0-36.3-12.6-36.3-28.1c0-15.5,16.3-28.1,36.3-28.1s36.3,12.6,36.3,28.1
			C1898.3,2403.3,1881.9,2415.9,1861.9,2415.9z"/>
		<path d="M1808,1357.1l81.2,49.9c0,0,0.1,0,0.1,0.1c0.4,0.2,0.8,0.5,1.3,0.7c0.1,0,0.2,0.1,0.2,0.1c0.4,0.2,0.9,0.3,1.3,0.5
			c0.1,0,0.2,0.1,0.2,0.1c0.5,0.1,1.1,0.2,1.6,0.3c0,0,0,0,0,0c0.6,0.1,1.1,0.1,1.7,0.1c0.9,0,1.7-0.1,2.7-0.3
			c0.2,0,0.3-0.1,0.5-0.1c0.3-0.1,0.6-0.2,0.9-0.3c0.2-0.1,0.5-0.2,0.7-0.2c0.2-0.1,0.5-0.2,0.7-0.4c0.2-0.1,0.4-0.2,0.6-0.3
			c0.1,0,0.1-0.1,0.2-0.1c0.1,0,0.2-0.1,0.2-0.1l35.8-22c7-4.3,15.9,0.7,15.9,8.9v46.3c0,4.3,2.2,8.4,6,10.6l81.1,49.9
			c0.1,0.1,0.2,0.1,0.3,0.2c0.2,0.2,0.5,0.3,0.8,0.4c0.2,0.1,0.5,0.2,0.7,0.3c0.2,0.1,0.5,0.2,0.7,0.3c0.3,0.1,0.6,0.2,0.8,0.2
			c0.2,0.1,0.5,0.1,0.7,0.2c0.3,0.1,0.6,0.1,0.9,0.2c0.3,0,0.6,0.1,0.8,0.1c0.2,0,0.5,0.1,0.7,0.1c0.5,0,1.1-0.1,1.6-0.1
			c0.2,0,0.3-0.1,0.4-0.1c0.4-0.1,0.8-0.2,1.2-0.2c0.2-0.1,0.3-0.1,0.5-0.2c0.3-0.1,0.7-0.2,1.1-0.4c0.2-0.1,0.3-0.2,0.5-0.2
			c0.2-0.1,0.5-0.2,0.7-0.3c0.1-0.1,0.2-0.1,0.2-0.2c0.1,0,0.1-0.1,0.2-0.1l64.2-39.5c8.9-5.5,20.6-1.6,24.4,8.1l59.2,148.7
			c1.9,4.8,6.6,7.9,11.6,7.9c1.1,0,2.2-0.2,3.3-0.5l95.6-26.6c0.7-0.2,1.4-0.5,2.1-0.8c0.2-0.1,0.4-0.2,0.5-0.2
			c0.2-0.1,0.4-0.2,0.6-0.3l351.6-216.6c5.2-3.2,7.3-9.6,5.1-15.3l-167.1-419.6c0,0-0.1-0.1-0.1-0.1s0-0.1,0-0.1
			c-0.3-0.8-0.7-1.5-1.2-2.2c0,0,0,0,0,0c-0.5-0.7-1.1-1.4-1.7-2c-0.2-0.1-0.3-0.2-0.5-0.4c-0.5-0.4-1-0.8-1.5-1.2
			c-0.2-0.2-0.5-0.3-0.8-0.4c-0.5-0.3-1-0.5-1.5-0.7c-0.1-0.1-0.2-0.1-0.3-0.2c-0.2-0.1-0.4-0.1-0.6-0.2c-0.5-0.1-1-0.2-1.6-0.3
			c-0.3-0.1-0.7-0.1-1-0.1c-0.5,0-1.1,0-1.6,0c-0.3,0-0.7,0-1,0.1c-0.5,0.1-1,0.2-1.5,0.3c-0.4,0.1-0.7,0.2-1.1,0.3
			c-0.1,0.1-0.2,0.1-0.4,0.2l-74.6,31.4c-0.5,0.2-1.1,0.5-1.6,0.8c-1.8,1.1-3.7,1.6-5.6,1.6c-5.7,0-10.9-4.5-10.9-10.9v-103
			c0-0.1,0-0.2,0-0.3c0-0.2,0-0.4,0-0.6c0-0.6-0.1-1.2-0.2-1.7c0-0.1,0-0.3-0.1-0.4c-0.2-0.7-0.4-1.4-0.7-2c0-0.1-0.1-0.2-0.2-0.4
			c-0.3-0.6-0.6-1.1-0.9-1.6c-0.1-0.1-0.2-0.2-0.2-0.4c-0.4-0.6-0.9-1.2-1.5-1.7c-0.1-0.1-0.2-0.1-0.2-0.2c-0.5-0.5-1.1-0.9-1.7-1.3
			c-0.1,0-0.1-0.1-0.2-0.1l-81.2-49.6c-4-2.4-9-2.4-13,0l-37.4,23c-6.3,3.9-14.4-0.7-14.4-8v-48.4c0-0.1,0-0.2,0-0.2
			c0-0.3,0-0.5-0.1-0.8c0-0.5-0.1-0.9-0.2-1.4c0-0.2-0.1-0.5-0.2-0.7c-0.2-0.6-0.4-1.2-0.6-1.8c-0.1-0.2-0.2-0.4-0.3-0.7
			c-0.2-0.4-0.4-0.8-0.7-1.2c-0.1-0.2-0.3-0.5-0.4-0.7c-0.4-0.5-0.8-1-1.3-1.4c-0.2-0.2-0.3-0.3-0.5-0.5c-0.4-0.3-0.8-0.7-1.3-1
			c-0.1-0.1-0.2-0.2-0.3-0.3l-81.2-49.6c-4-2.5-9-2.4-13,0L1808,911.7c-0.1,0.1-0.2,0.2-0.2,0.2c-0.5,0.3-1,0.7-1.5,1.2
			c-0.1,0.1-0.2,0.2-0.3,0.3c-0.5,0.5-1,1-1.4,1.6c-0.1,0.1-0.2,0.3-0.3,0.4c-0.3,0.5-0.6,1-0.9,1.5c-0.1,0.1-0.2,0.2-0.2,0.4
			c-0.3,0.6-0.5,1.3-0.7,2c0,0.2-0.1,0.3-0.1,0.4c-0.1,0.6-0.2,1.2-0.2,1.7c0,0.2,0,0.4,0,0.6c0,0.1,0,0.2,0,0.3v424.2
			C1802.1,1350.9,1804.3,1354.9,1808,1357.1z M2103.3,1441.3l-24.7,15.2c-8.1,5-18.5-0.8-18.5-10.4V1289c0-5.7,7.9-7.3,10-1.9
			l46,115.5C2121.9,1416.9,2116.5,1433.2,2103.3,1441.3z M2475,976.9c6.6-4.1,15.3-1.2,18.2,6l148.4,372.5
			c2.2,5.6,0.1,12.1-5.1,15.3l-308.4,190c-6.6,4.1-15.3,1.2-18.1-6l-148.4-372.5c-2.2-5.6-0.1-12.1,5.1-15.3L2475,976.9z
			 M2356.3,890.6c6.6-4,15,0.7,15,8.4v85c0,7.7-4,14.8-10.6,18.7l-282.7,170c-7.8,4.7-17.8-0.9-17.8-10.1v-77.7
			c0-7.6,3.9-14.6,10.4-18.6L2356.3,890.6z M1908.2,991.6c0-7.9,4.1-15.2,10.8-19.3l265.4-163.1c15.3-9.4,34.9,1.6,34.9,19.5v4.6
			c0,8-4.1,15.4-10.9,19.5L1960,1005.5c-0.1,0.1-0.2,0.1-0.3,0.2c-0.5,0.3-1,0.7-1.5,1.2c-0.1,0.1-0.2,0.2-0.3,0.3
			c-0.5,0.5-1,1-1.4,1.6c-0.1,0.2-0.2,0.3-0.3,0.5c-0.3,0.5-0.6,1-0.9,1.5c-0.1,0.1-0.2,0.2-0.2,0.4c-0.3,0.7-0.5,1.3-0.7,2
			c-0.1,0.2-0.1,0.3-0.1,0.5c-0.1,0.6-0.2,1.1-0.2,1.7c0,0.2,0,0.4,0,0.5c0,0.1,0,0.2,0,0.3v317c0,8-4.1,15.4-10.9,19.5
			c-3.8,2.4-8,3.4-11.9,3.4c-11.9,0-23-9.5-23-23V991.6z"/>
		<path d="M1732.5,2256.2c-33.8,0-61.3,23.8-61.3,53c0,29.3,27.5,53.1,61.3,53.1c33.8,0,61.3-23.8,61.3-53.1
			C1793.8,2280,1766.3,2256.2,1732.5,2256.2z M1732.5,2337.3c-20,0-36.3-12.6-36.3-28.1c0-15.5,16.3-28.1,36.3-28.1
			s36.3,12.6,36.3,28.1C1768.9,2324.7,1752.6,2337.3,1732.5,2337.3z"/>
		<path d="M1683.2,496.4c1.4,5.5,3.2,10.6,5.1,15.8c1.9,5.1,3.9,10.2,6,15.2c2.1,5,4.3,10,6.6,14.9c2.3,5,4.7,9.9,7.7,14.7l0.1,0.1
			c1.8,3,5.3,4.9,9,4.6c5.3-0.5,9.2-5.1,8.7-10.4c-0.5-5.9-1.7-11.6-3.3-17.2c-1.6-5.6-3.5-11.1-5.8-16.4
			c-2.3-5.3-4.9-10.5-7.7-15.5c-2.9-5-6.1-9.9-9.9-14.4c-2.3-2.7-6-4.1-9.7-3.1C1685,485.9,1681.9,491.2,1683.2,496.4L1683.2,496.4z
			"/>
		<path d="M833.6,1092.5c10,4.5,20.4,6.6,30.4,6.6c33.2,0,63.6-22.9,71.6-56.2l26.9-77.3c1.1-1.7,2.3-3.4,3.9-4.7
			c5-3.9,8.8,0.1,11.9,3.9c0.5,1,0.9,1.9,1.4,2.8c4.2,7.8,10.4,15,17.6,20.3l2.7,2c0.9,0.6,1.9,1.2,2.9,1.7c1,0.6,1.9,1.2,2.9,1.7
			l3,1.4l6,2.7c2.1,0.7,4.2,1.3,6.3,2l3.2,0.9c1.1,0.3,2.2,0.4,3.2,0.6l6.5,1c2.2,0.1,4.4,0.2,6.6,0.2c1.1,0,2.2,0.1,3.3,0l3.3-0.3
			c8.8-0.5,17.3-3.2,25.2-6.8c1.2-0.5,2.2-1.2,3.4-1.8c4.5-1.3,9.3-1.9,12.9,0.4c3.4,2.2,4.6,7.3,6.9,11c7,16.2,19.4,29.8,35.7,38.3
			c11.3,5.8,23.6,8.8,35.9,8.8c10.4,0,20.8-2.1,30.6-6.3c0.2-0.1,0.3-0.2,0.5-0.3c0.1-0.1,0.3-0.1,0.4-0.2l135.2-72.3
			c21.6-11.5,35-33.9,35-58.3c0-18.8-7.6-35.8-20.7-48.1c-3-4-5.3-8.7-4-13.5c2.6-9.7,13.6-4,19.8-2.1c0.7,0.2,1.4,0.4,2.1,0.6
			c3.3,0.8,6.6,1.7,9.8,2.7c36.4,11.9,72.1,17.7,105.5,17.7c64.8,0,121.1-22,158-64.7c43-49.8,55-120.6,34-199.4
			c-20.6-77.1-70.7-152.9-141-213.6c-70.3-60.7-152.7-99.1-231.9-108.2c-81-9.3-149.3,13-192.3,62.8c-24.7,28.7-39.2,64-43,105
			c-1.7,18.2-0.8,36.6,2.7,54.9c2.3,12.4-3.4,25-14.2,31.5l-100.1,61.3c-56.5,34.8-94.1,92.4-103.3,158.1l-57.7,250.4
			c-5,22.7,0.9,46.1,16.5,64.1C815.7,1082,824.2,1088.3,833.6,1092.5z M816.8,1015.6l57.8-250.8c0.1-0.4,0.1-0.7,0.2-1.1
			c8-58.5,41.4-109.8,91.7-140.8l206.8-126.6c0.7-0.4,1.2-0.9,1.8-1.3c29.9-16.4,62.6-27.3,96.2-30c34.3-2.9,69.1,3,100.2,17.1
			c31.2,14,58.5,36.4,78.3,64.3c19.9,27.9,32.1,61,36.3,95.1c0.9,8.1,1,16.3,0.3,24.5c-0.9,8.1-2.3,16.2-4.8,24
			c-2.6,7.7-5.6,15.4-9.8,22.5c-1.8,3.7-4.3,7.1-6.5,10.5c-1.2,1.7-2.5,3.3-3.7,5c-1.2,1.7-2.4,3.4-3.9,4.9
			c-10.8,12.7-23.9,23.6-38.5,32.6l-46.5,28.9l-92.9,57.9l-1.3,0.8c-3.6,1.4-7.1,3.2-10.5,5.3c-0.2,0.1-0.3,0.2-0.5,0.3l-21.2,14.5
			c0,0,0,0,0,0.1c-0.6,0.3-1.1,0.7-1.7,1.2c-4.8,3.3-9,7.5-12.6,12.1c-7,9.3-10.9,20.9-10.8,32.4l0,2.1l0.1,1.7l0.2,3.4l0.5,6.8
			c0.3,4.6,0.7,9.1,1.2,13.7c0.5,4.7,4.5,8.5,9.6,8.4c4.8-0.1,8.6-4.1,9.1-8.8c0.5-4.5,0.9-8.9,1.2-13.3l0.4-6.8l0.2-3.4l0.1-1.7
			l0.1-1.3c0.3-3.4,1.1-6.7,2.4-9.7c1.2-3.1,2.9-6,5.1-8.5c2.1-2.5,4.5-4.8,7.2-6.6l11.1-6.9l20.5-12.6c12.5-4,26.2-1.9,37.5,6.6
			c6.8,5.1,11.9,12.3,14.3,20.4c5.9,19.7-2.9,39.5-19.9,48.6l-134.7,72c-15.2,6.4-31.8,5.4-46.4-2.8c-16.8-9.5-26.8-27.8-26.8-47.1
			v-33.4c0.3-2,0.5-4.1,0.6-6.1l0.2-3.2l0.1-1.6V927l0-5.4l0-10.7l-0.1-21.5l-0.1-21.5l0-5.3l0.2-4.6l0.4-4.5c0.2-1.5,0.5-3,0.7-4.5
			c2.2-11.9,7.5-23.4,15.2-32.9c3.8-4.7,8.3-9,13.1-12.7l3.7-2.7l3.9-2.4l9.1-5.5c12.3-7.4,24.5-15,36.2-23.4
			c3.9-2.8,5.2-8.4,2.4-12.8c-2.5-3.9-7.6-5.2-11.8-3.4c-13.2,5.5-26,11.8-38.7,18.2c-3.2,1.7-6.3,3.2-9.6,5l-5.3,3.1l-5.1,3.4
			c-6.6,4.8-12.6,10.6-17.9,16.9c-10.5,12.7-17.7,28-20.8,44.2c-0.3,2-0.7,4.1-1,6.1l-0.6,6.1l-0.2,6.2l0,5.4l-0.1,21.5l-0.1,21.5
			l0,10.7l0,5.4v1.3l-0.1,1l-0.2,2.1c-0.2,5.7-1.8,11-4,16.1l-1.9,3.7c-0.6,1.3-1.5,2.3-2.2,3.5c-1.4,2.4-3.5,4.3-5.3,6.5
			c-4.1,3.8-8.5,7.3-13.7,9.5c-5.1,2.2-10.5,4.1-16.1,4.3l-2.1,0.2c-0.7,0-1.4-0.1-2.1-0.1l-4.1-0.1l-4.1-0.7
			c-0.7-0.1-1.4-0.2-2.1-0.3l-2-0.6l-4-1.2l-3.8-1.8l-1.9-0.8c-0.6-0.3-1.2-0.7-1.7-1.1c-0.6-0.3-1.2-0.7-1.7-1l-1.6-1.2
			c-8.5-6.2-13.7-16.1-16.2-28.2c-1.3-6-1.9-12.4-2.1-19l-0.1-5l0-5.4l0-10.8l-0.3-86l-0.1-21.5c0-3.8,0-6.5,0.2-9.6
			c0.2-3.1,0.7-6.1,1.3-9.1c2.5-11.9,8-23.3,15.9-32.7c4-4.7,8.5-8.9,13.5-12.4c4.6-3.2,11.4-7.2,17.3-10.9
			c12.1-7.7,24.1-15.7,35.4-24.5c3.8-3,5-8.5,2-12.9c-2.6-3.8-7.7-5-11.8-3.1c-13.1,5.8-25.7,12.5-38.1,19.4
			c-6.3,3.7-12.1,6.6-19.3,11.6c-6.7,4.7-12.8,10.3-18.2,16.5c-10.7,12.4-18.2,27.6-21.7,43.7c-0.8,4-1.5,8.1-1.8,12.2
			c-0.4,4-0.4,8.5-0.4,11.8l-0.1,21.5c-0.1,19.7-1.8,39.4-5.1,58.8c-3.3,19.4-8.2,38.5-14.7,57.1l-37.3,107.3
			c-0.1,0.5-0.2,0.9-0.4,1.4c-5.9,25.5-31.5,41.8-57.1,36.5c-12.8-2.7-23.7-10.1-30.8-21.1C816.4,1041.2,814,1028.2,816.8,1015.6z"
			/>
		<path d="M1294.7,239.6h0.2c17.1,1.4,33.9,3.8,50.7,6.9c16.7,3.3,33.3,7.6,49.6,12.5c16.2,5.4,32.3,11.4,47.8,18.6
			c4,1.6,7.8,3.6,11.6,5.5c3.8,1.9,7.7,3.7,11.5,5.7c7.5,4.1,15.2,8,22.5,12.5c14.9,8.5,29.2,18.2,43.2,28.1
			c3.5,2.5,6.9,5.2,10.3,7.7c3.4,2.6,6.9,5.1,10.2,7.9c6.6,5.5,13.4,10.8,19.9,16.5c25.9,22.7,49.4,47.9,72.4,73.8l0,0
			c3,3.4,8,4.2,12,1.7c4.4-2.7,5.7-8.5,3-12.9c-19.1-30.6-43.7-57.4-70.5-81.6c-6.7-6.1-13.7-11.8-20.6-17.6
			c-6.9-5.8-14.2-11.2-21.3-16.7l-11-7.8l-5.6-3.9l-5.7-3.7l-11.4-7.4c-3.8-2.4-7.8-4.6-11.7-6.9c-7.7-4.7-15.8-8.8-23.8-13
			c-4-2.1-8.1-4-12.2-6c-4.1-1.9-8.1-4-12.3-5.7l-12.5-5.3c-4.2-1.7-8.5-3.2-12.7-4.8c-8.4-3.3-17.2-5.9-25.8-8.7
			c-17.4-5.1-35.1-9.4-53.2-11.9c-18.1-2.4-36.3-3.3-54.5-2.2c-4.6,0.3-8.4,3.9-8.8,8.6C1285.8,234.6,1289.6,239.2,1294.7,239.6z"/>
		<path d="M1187.5,1820.9c-15.3,2.3-25.9,16.6-23.6,31.9c2.3,15.4,16.6,25.9,31.9,23.6c15.3-2.3,25.9-16.6,23.6-31.9
			C1217.1,1829.1,1202.9,1818.6,1187.5,1820.9z"/>
		<path d="M1186.9,1628.5c-2.3-15.3-16.6-25.9-31.9-23.6c-15.4,2.3-25.9,16.6-23.6,32c2.3,15.3,16.6,25.9,31.9,23.6
			C1178.6,1658.1,1189.2,1643.8,1186.9,1628.5z"/>
		<path d="M1154.3,1412.5c-2.3-15.3-16.6-25.9-31.9-23.6c-15.4,2.3-25.9,16.6-23.6,31.9c2.3,15.3,16.6,25.9,32,23.6
			C1146,1442.2,1156.6,1427.9,1154.3,1412.5z"/>
		<path d="M542.6,1662c1.9,1.1,4,1.6,6.1,1.6c2.3,0,4.5-0.6,6.5-1.8l173.9-106.9c3.7-2.3,6-6.4,6-10.7l-1.9-214.1
			c0-4.5-2.5-8.6-6.4-10.8c-3.9-2.2-8.7-2.1-12.6,0.3l-172,105.8c-4.1,2.5-6.2,6.9-5.9,11.4c0,0.2,0,0.4,0,0.7V1651
			C536.2,1655.6,538.7,1659.7,542.6,1662z M561.2,1456.8c0-8.7,4.5-16.7,11.9-21.3l121.3-74.6c6.2-3.8,14.2,0.6,14.3,7.9l1.4,154.3
			c0.1,8.7-4.4,16.9-11.9,21.5L575.4,1620c-6.2,3.8-14.3-0.7-14.3-8V1456.8z"/>
		<path d="M542.6,1304.2c1.9,1.1,4,1.6,6.1,1.6c2.3,0,4.5-0.6,6.5-1.8l173.9-106.9c3.7-2.3,6-6.4,6-10.7l-1.9-214.1
			c0-4.5-2.5-8.6-6.4-10.8c-3.9-2.2-8.7-2.1-12.6,0.3l-172,105.8c-4.1,2.5-6.2,6.9-5.9,11.3c0,0.2,0,0.5,0,0.7v213.8
			C536.2,1297.9,538.7,1302,542.6,1304.2z M561.2,1099.1c0-8.7,4.5-16.7,11.9-21.3l121.3-74.6c6.2-3.8,14.2,0.6,14.3,7.9l1.4,154.3
			c0.1,8.7-4.4,16.9-11.9,21.5l-122.6,75.4c-6.2,3.8-14.3-0.7-14.3-8V1099.1z"/>
		<path d="M542.6,946.5c1.9,1.1,4,1.6,6.1,1.6c2.3,0,4.5-0.6,6.5-1.8l173.9-106.9c3.7-2.3,6-6.4,6-10.8l-1.9-214.1
			c0-4.5-2.5-8.6-6.4-10.8c-3.9-2.2-8.7-2.1-12.6,0.3l-172,105.8c-4.1,2.5-6.2,6.9-5.9,11.3c0,0.2,0,0.5,0,0.7v213.8
			C536.2,940.2,538.7,944.3,542.6,946.5z M561.2,741.3c0-8.7,4.5-16.7,11.9-21.2l121.3-74.6c6.2-3.8,14.2,0.6,14.3,7.9l1.4,154.3
			c0.1,8.7-4.4,16.9-11.9,21.5l-122.6,75.4c-6.2,3.8-14.3-0.7-14.3-8V741.3z"/>
		<path d="M601.2,807.3c7.2-3,14.1-6.4,20.9-10c6.8-3.6,13.4-7.5,20.1-11.5c6.5-4.1,13-8.2,19.3-12.6c6.3-4.4,12.5-9,18.4-14.2
			c2.9-2.6,4.1-6.8,2.5-10.7c-1.9-4.9-7.5-7.2-12.4-5.3c-7.2,2.9-14.2,6.4-20.9,10c-6.8,3.6-13.5,7.6-20,11.5
			c-6.5,4.1-13,8.2-19.3,12.7c-6.3,4.4-12.5,9-18.4,14.2c-3,2.6-4.1,6.9-2.6,10.7C590.8,806.9,596.4,809.3,601.2,807.3z"/>
		<path d="M601.5,1165.2c4.5-1.9,12.1-5.6,17.1-8.2c2.4-1.2,5.3,0.4,5.5,3.1c0.5,6.1,1.3,15.6,2.1,20.9c0.7,4.1,4.1,7.6,8.6,7.9
			c5,0.4,9.4-3.4,10.2-8.3c1.3-7.9,1.9-15.7,2.4-23.5c0.2-3.2,0.3-6.3,0.4-9.5c0.1-4.6,2.5-9,6.4-11.5c2.4-1.6,4.8-3.2,7.2-4.9
			c6.3-4.4,12.5-9,18.4-14.2c3.1-2.7,4.2-7.4,2.2-11.4c-2.3-4.6-8-6.2-12.7-4.3c-5.7,2.3-11.3,5-16.7,7.8c0,0,0,0-0.1,0
			c-2.4,1.2-5.3-0.4-5.5-3.2c-0.1-1.6-0.2-3.2-0.3-4.1c-0.4-5.5-1-11-1.9-16.5c-0.7-4.1-4.1-7.6-8.6-7.9c-5-0.4-9.4,3.4-10.2,8.3
			c-1.2,7.8-1.9,15.7-2.3,23.5c-0.2,3.1-0.3,6.2-0.4,9.3c-0.1,4.6-2.5,8.9-6.4,11.5c-1.7,1.2-3.4,2.3-5.1,3.6
			c-1.7,1.2-3.4,2.5-5.1,3.8c-5.3,3.8-10.5,7.7-15.4,12c-3.2,2.8-4.3,7.4-2.2,11.5C591.4,1165.3,597,1167.1,601.5,1165.2z"/>
		<path d="M665.7,1489c-6.5,2.5-12.7,5.5-18.8,8.6c-6.1,3.2-12,6.6-17.8,10.2c-5.8,3.7-11.5,7.4-17.1,11.4
			c-5.6,4-11.1,8.1-16.3,12.8c-2.8,2.6-4,6.7-2.5,10.5c1.9,4.9,7.4,7.3,12.3,5.4c6.5-2.5,12.7-5.5,18.8-8.7
			c6.1-3.2,12-6.6,17.8-10.1c5.9-3.6,11.6-7.3,17.2-11.3c5.6-4,11-8.1,16.2-12.9c2.7-2.6,3.9-6.6,2.5-10.4
			C676.2,1489.7,670.7,1487.2,665.7,1489z"/>
		<path d="M605.6,1493.8c6.5-2.6,12.6-5.6,18.7-8.8c6.1-3.2,12-6.6,17.9-10.1c5.9-3.5,11.6-7.2,17.3-11.1c5.6-4,11-8.1,16.1-13
			c2.6-2.5,3.7-6.5,2.4-10.1c-1.8-5-7.2-7.6-12.2-5.8c-6.6,2.3-12.8,5.4-18.8,8.5c-6,3.3-12,6.7-17.7,10.4
			c-5.8,3.7-11.5,7.4-17.1,11.4c-5.6,4-11.1,8.1-16.3,12.7c-2.9,2.6-4.1,6.8-2.6,10.7C595.2,1493.4,600.7,1495.8,605.6,1493.8z"/>
		<path d="M1338.9,2279.6c-0.2-0.7-0.3-1.4-0.6-2c-0.1-0.1-0.1-0.2-0.2-0.3c-0.2-0.6-0.6-1.1-0.9-1.6c-0.1-0.2-0.2-0.3-0.3-0.4
			c-0.4-0.6-0.8-1.1-1.3-1.6c-0.1-0.1-0.2-0.2-0.3-0.3c-0.4-0.4-0.9-0.8-1.4-1.1c-0.1-0.1-0.3-0.2-0.4-0.3c-0.1-0.1-0.2-0.1-0.2-0.2
			l-192.2-118.2c-0.5-0.3-1.1-0.6-1.6-0.8c-0.1-0.1-0.2-0.1-0.3-0.1c-0.6-0.2-1.2-0.4-1.8-0.6c-0.2,0-0.4-0.1-0.6-0.1
			c-1.5-0.3-3-0.3-4.5,0c-0.2,0.1-0.4,0.1-0.6,0.1c-0.6,0.2-1.2,0.3-1.7,0.6c-0.1,0-0.3,0.1-0.4,0.1c-0.5,0.2-1.1,0.5-1.6,0.8
			l-66.2,40.7c-8.3,5.1-19-0.9-19-10.6v-84.4c0,0,0-0.1,0-0.1c0-0.7-0.1-1.4-0.2-2.1c0-0.2-0.1-0.4-0.1-0.6c-0.2-0.7-0.3-1.3-0.6-2
			c0-0.1-0.1-0.2-0.2-0.4c-0.2-0.5-0.5-1.1-0.9-1.6c-0.1-0.2-0.2-0.3-0.3-0.4c-0.4-0.6-0.8-1.1-1.3-1.6c-0.1-0.1-0.2-0.2-0.3-0.3
			c-0.4-0.4-0.9-0.8-1.4-1.1c-0.1-0.1-0.3-0.2-0.4-0.3c-0.1-0.1-0.2-0.1-0.3-0.2l-192.2-118.2c-0.5-0.3-1.1-0.6-1.6-0.8
			c-0.1-0.1-0.2-0.1-0.3-0.1c-0.6-0.2-1.2-0.4-1.8-0.6c-0.2,0-0.4-0.1-0.6-0.1c-1.5-0.2-3-0.2-4.4,0c-0.2,0-0.4,0.1-0.6,0.1
			c-0.6,0.2-1.2,0.3-1.7,0.6c-0.1,0-0.3,0.1-0.4,0.1c-0.6,0.2-1.1,0.5-1.6,0.8l-68.7,42.3c-8.3,5.1-19-0.9-19-10.6v-86.4
			c0-0.1,0-0.2,0-0.3c0-0.6-0.1-1.2-0.2-1.8c0-0.2-0.1-0.5-0.2-0.7c-0.2-0.6-0.3-1.2-0.6-1.8c-0.1-0.2-0.2-0.4-0.3-0.6
			c-0.2-0.5-0.4-0.9-0.7-1.3c-0.1-0.2-0.2-0.4-0.4-0.6c-0.4-0.5-0.8-1-1.2-1.5c-0.1-0.1-0.3-0.2-0.4-0.4c-0.4-0.4-0.8-0.7-1.2-1
			c-0.2-0.1-0.3-0.2-0.5-0.4c-0.1,0-0.2-0.1-0.2-0.2l-192.2-118.2c-0.5-0.3-1.1-0.6-1.6-0.8c-0.1-0.1-0.2-0.1-0.3-0.1
			c-0.6-0.2-1.2-0.4-1.8-0.6c-0.2,0-0.4-0.1-0.6-0.1c-1.5-0.2-3-0.2-4.5,0c-0.2,0-0.4,0.1-0.6,0.1c-0.6,0.2-1.2,0.3-1.7,0.5
			c-0.1,0.1-0.2,0.1-0.4,0.2c-0.5,0.2-1.1,0.5-1.6,0.8L340.3,1905c-0.1,0.1-0.2,0.1-0.2,0.2c-0.2,0.1-0.3,0.2-0.4,0.3
			c-0.5,0.3-1,0.7-1.4,1.1c-0.1,0.1-0.2,0.2-0.3,0.3c-0.5,0.5-0.9,1-1.3,1.6c-0.1,0.2-0.2,0.3-0.3,0.4c-0.3,0.5-0.6,1-0.9,1.6
			c0,0.1-0.1,0.2-0.2,0.3c-0.2,0.7-0.5,1.3-0.6,2c0,0.2-0.1,0.4-0.1,0.5c-0.1,0.7-0.2,1.5-0.2,2.2V2152c0,0,0,0.1,0,0.1
			c0,0.7,0.1,1.4,0.2,2.1c0,0.2,0.1,0.4,0.1,0.6c0.2,0.7,0.4,1.3,0.6,2c0.1,0.1,0.1,0.2,0.2,0.4c0.2,0.5,0.5,1,0.8,1.5
			c0.1,0.2,0.2,0.3,0.3,0.5c0.4,0.6,0.8,1.1,1.3,1.6c0.1,0.1,0.2,0.2,0.3,0.3c0.4,0.4,0.9,0.7,1.3,1.1c0.2,0.1,0.3,0.2,0.5,0.3
			c0.1,0.1,0.2,0.1,0.2,0.2l192.2,118.2c0.5,0.3,1.1,0.6,1.6,0.8c0.1,0.1,0.2,0.1,0.4,0.1c0.6,0.2,1.1,0.4,1.7,0.6
			c0.2,0,0.4,0.1,0.6,0.1c0.7,0.1,1.5,0.2,2.2,0.2s1.5-0.1,2.2-0.2c0.2,0,0.3-0.1,0.5-0.1c0.7-0.2,1.3-0.3,2-0.6c0,0,0.1,0,0.1,0
			c0.6-0.2,1.1-0.5,1.7-0.8l68.7-42.3c8.3-5.1,19,0.9,19,10.6v86.3c0,0,0,0.1,0,0.1c0,0.8,0.1,1.5,0.2,2.3c0,0.2,0.1,0.3,0.1,0.4
			c0.2,0.7,0.4,1.4,0.7,2.1c0,0.1,0.1,0.1,0.1,0.2c0.3,0.6,0.6,1.2,1,1.8c0.1,0.1,0.1,0.2,0.2,0.3c0.4,0.6,0.9,1.2,1.4,1.7
			c0.1,0.1,0.1,0.1,0.2,0.2c0.5,0.4,0.9,0.8,1.5,1.2c0.1,0.1,0.2,0.2,0.4,0.2c0.1,0.1,0.2,0.2,0.3,0.2l192.2,118.2
			c0.5,0.3,1.1,0.6,1.6,0.8c0.1,0.1,0.2,0.1,0.3,0.1c0.6,0.2,1.2,0.4,1.7,0.6c0.2,0,0.4,0.1,0.6,0.1c0.7,0.1,1.5,0.2,2.2,0.2h0
			c0.7,0,1.5-0.1,2.2-0.2c0.2-0.1,0.4-0.1,0.6-0.1c0.6-0.2,1.2-0.3,1.8-0.6c0.1,0,0.2-0.1,0.3-0.1c0.6-0.2,1.1-0.5,1.6-0.8
			l66.2-40.7c8.3-5.1,19,0.9,19,10.6v84.4c0,0,0,0,0,0.1c0,0.7,0.1,1.4,0.2,2.2c0,0.2,0.1,0.4,0.1,0.6c0.2,0.7,0.4,1.3,0.6,2
			c0.1,0.1,0.1,0.2,0.2,0.3c0.2,0.6,0.6,1.1,0.9,1.7c0.1,0.1,0.2,0.2,0.2,0.4c0.4,0.6,0.8,1.2,1.4,1.7c0,0.1,0.1,0.1,0.2,0.2
			c0.5,0.5,1,0.9,1.5,1.3c0.1,0.1,0.2,0.2,0.3,0.2c0.1,0.1,0.2,0.2,0.3,0.2l192.2,118.2c0.5,0.3,1.1,0.6,1.6,0.8
			c0.1,0.1,0.2,0.1,0.3,0.1c0.6,0.2,1.2,0.4,1.8,0.6c0.2,0,0.4,0.1,0.6,0.1c0.7,0.1,1.5,0.2,2.2,0.2c0.7,0,1.5-0.1,2.2-0.2
			c0.2,0,0.4-0.1,0.6-0.1c0.6-0.2,1.2-0.3,1.7-0.6c0.1,0,0.2-0.1,0.3-0.1c0.6-0.2,1.1-0.5,1.6-0.8l192.2-118.2
			c0.1-0.1,0.2-0.2,0.4-0.2c0.1,0,0.1-0.1,0.2-0.1c1.3-0.9,2.3-2,3.2-3.2c0,0,0.1-0.1,0.1-0.1c0.8-1.3,1.5-2.7,1.8-4.3
			c0-0.1,0-0.2,0.1-0.2c0.2-0.8,0.2-1.6,0.2-2.4c0-0.1,0-0.1,0-0.2v-236.1c0-0.7-0.1-1.5-0.2-2.2
			C1338.9,2280,1338.9,2279.8,1338.9,2279.6z M1147,2203.2c0-7.3,8-11.8,14.3-8l128.7,79.1c6,3.7,6,12.3,0,15.9l-44.2,27.2
			c-3.9,2.4-9,1.6-12-1.9c-19.7-23.1-47.4-39.2-78.7-44.1c-4.6-0.7-8-4.6-8-9.2V2203.2z M1240.2,2400.5c0,0.8,0,1.5,0,2.3
			c-0.9,43.2-38.2,76-79.5,72.6c-2.2-0.2-5.7-0.8-8.6-1.4c-2.9-0.6-5-3.2-5-6.1v-53.4c0-4.3,2.2-8.4,5.9-10.6l71.3-43.8
			c3.3-2,7.7-0.6,9.1,3.1C1237.8,2374.7,1240.2,2387.3,1240.2,2400.5z M1107.8,2195.3c6.2-3.8,14.3,0.7,14.3,8v59
			c0,4.6-3.4,8.5-8,9.2c-31.1,4.9-58.6,20.8-78.3,43.6c-3,3.5-8,4.2-11.9,1.8l-44.1-27c-6-3.7-6-12.3,0-15.9L1107.8,2195.3z
			 M1017.8,2138.3v77.7c0,3.2-1.7,6.3-4.5,8l-50.1,30.8c3.6-11.9,5.5-24.4,5.5-37.4c0-17.8-3.6-34.7-10-50.1
			c-1.8-4.3-0.2-9.2,3.7-11.6l41.2-25.3C1009.8,2126.5,1017.8,2131,1017.8,2138.3z M811.3,2012.2c6.2-3.8,14.3,0.7,14.3,8v59
			c0,4.6-3.4,8.5-8,9.3c-31.3,4.9-59,21.1-78.7,44.1c-3,3.5-8,4.3-12,1.9l-44.2-27.2c-5.9-3.7-5.9-12.3,0-15.9L811.3,2012.2z
			 M718.8,1954.7v78.1c0,4.3-2.2,8.4-6,10.6l-42.6,26.2c-2.4,1.5-5.3-0.7-4.6-3.4c2.7-10.4,4.1-21.2,4.1-32.4
			c0-17.8-3.6-34.7-10-50.1c-1.8-4.3-0.2-9.2,3.7-11.6l41.2-25.3C710.8,1942.9,718.8,1947.4,718.8,1954.7z M383.6,1907.7l128.7-79.1
			c6.2-3.8,14.3,0.7,14.3,8v59c0,4.6-3.4,8.5-7.9,9.2c-17.6,2.8-34,9.1-48.5,18.1c-0.3,0.2-0.6,0.4-0.9,0.6
			c-11,7-20.9,15.6-29.4,25.5c-3,3.5-8.1,4.3-12,1.9l-44.2-27.2C377.7,1920,377.7,1911.3,383.6,1907.7z M359.3,2112.9v-158.2
			c0-7.3,8-11.8,14.3-8l41.2,25.3c3.9,2.4,5.5,7.4,3.7,11.6c-6.4,15.4-10,32.4-10,50.1c0,17.8,3.6,34.7,10,50.2
			c1.8,4.3,0.2,9.2-3.7,11.6l-41.2,25.3C367.3,2124.7,359.3,2120.3,359.3,2112.9z M526.5,2231.1c0,7.3-8,11.8-14.3,8L383.6,2160
			c-5.9-3.7-5.9-12.3,0-15.9l44.2-27.2c3.9-2.4,9-1.6,12,1.9c19.7,23.1,47.4,39.2,78.7,44.1c4.6,0.7,8,4.6,8,9.2V2231.1z
			 M526.5,2084.6c0,5-5.5,8-9.7,5.2c-7.3-4.8-14-10.4-20-16.6c-14.8-15.4-25.8-36.4-30.8-57.2c-1.3-5.4,4.7-9.5,9.4-6.6l45.2,27.8
			c3.7,2.2,5.9,6.3,5.9,10.6V2084.6z M532.5,2015.2l-60.4-37.5c-3.9-2.4-5.5-7.4-3.7-11.6c5.5-13,15.7-23.6,28.9-29.3
			c12.8-5.6,26.9-8.6,41.7-8.6c30.9,0,58.6,13.3,78,34.4c2.7,2.9,2,7.5-1.4,9.5l-70,43.1C541.6,2017.6,536.5,2017.6,532.5,2015.2z
			 M633.3,2190.6c0,4.3-2.2,8.4-6,10.6l-61.6,37.9c-6.2,3.8-14.3-0.7-14.3-8v-59c0-4.6,3.4-8.5,7.9-9.2c26.3-4.1,50-16.2,68.7-33.6
			c2-1.9,5.2-0.5,5.2,2.2V2190.6z M644.7,2034.4c-0.2,38.4-30.1,69-66.2,72.9c-4.3,0.4-12.5-0.2-18.7-1c-4.7-0.6-8.3-4.6-8.3-9.3
			v-49.3c0-4.3,2.2-8.3,6-10.6l71.3-43.8c3.3-2,7.7-0.6,9.1,3.1c4.5,11.6,6.9,24.2,6.9,37.4C644.7,2034,644.7,2034.2,644.7,2034.4z
			 M638.2,1948.9c-19.8-23.1-47.4-39.2-78.7-44.1c-4.6-0.7-8-4.6-8-9.3v-59c0-7.3,8-11.8,14.3-8l128.7,79.1c5.9,3.7,5.9,12.3,0,15.9
			l-44.2,27.2C646.3,1953.2,641.2,1952.4,638.2,1948.9z M658.3,2296.6v-158c0-7.3,8-11.8,14.3-8l41.1,25.2c3.9,2.4,5.5,7.3,3.7,11.6
			c-6.4,15.4-10,32.3-10,50c0,17.8,3.6,34.7,10,50.2c1.8,4.3,0.2,9.2-3.7,11.6l-41.2,25.3C666.3,2308.4,658.3,2303.9,658.3,2296.6z
			 M825.6,2414.7c0,7.3-8,11.8-14.3,8l-128.7-79.1c-5.9-3.7-5.9-12.3,0-16l44.2-27.2c3.9-2.4,9-1.6,12,1.9
			c19.8,23.1,47.4,39.2,78.7,44.1c4.6,0.7,8,4.6,8,9.2V2414.7z M825.6,2269.3c0,5-5.6,8-9.7,5.2c-7.4-4.9-14.3-10.5-20.4-16.8
			c-15.1-15.7-26.3-37.3-31-58.3c-1.2-5.4,4.6-9.6,9.4-6.7l45.8,28.2c3.7,2.2,6,6.3,6,10.6V2269.3z M831.5,2198.8l-59.5-36.6
			c-4.3-2.7-5.7-8.2-3.3-12.6c2.7-4.8,6.1-10.3,8-12.5c10.2-11.7,24.2-19.9,39.8-23.1c6.9-1.5,14.1-2.2,21.5-2.2c0,0,0,0,0,0
			c15.4,0,30.1,3.3,43.3,9.3c13.2,6,25,14.6,34.6,25.1c2.7,2.9,2,7.5-1.4,9.5l-70,43.1C840.6,2201.2,835.5,2201.2,831.5,2198.8z
			 M929.8,2377.5c0,3.3-1.7,6.3-4.5,8l-60.6,37.3c-6.2,3.8-14.3-0.7-14.3-8v-59c0-4.6,3.4-8.5,7.9-9.2c27.6-4.3,52.4-17.3,71.4-36.2
			V2377.5z M943.7,2218.1c-0.2,39.9-32.2,71.8-70.1,74c-3.4,0.2-9.8-0.4-15-1.1c-4.7-0.6-8.1-4.6-8.1-9.3v-50.3
			c0-4.3,2.2-8.4,5.9-10.6l71.3-43.8c3.3-2,7.7-0.6,9.1,3.1c4.4,11.6,6.9,24.3,6.9,37.4C943.7,2217.7,943.7,2217.8,943.7,2218.1z
			 M937.2,2132.5c-19.7-23.1-47.4-39.2-78.7-44.1c-4.6-0.7-8-4.6-8-9.3v-59c0-7.3,8-11.8,14.3-8l128.7,79.1c6,3.7,6,12.3,0,15.9
			l-44.2,27.2C945.3,2136.8,940.2,2136,937.2,2132.5z M954.8,2479.6v-158.2c0-7.3,8-11.8,14.3-8l41.2,25.3c4,2.4,5.5,7.4,3.7,11.6
			c-6.5,15.4-10,32.4-10,50.1c0,17.8,3.6,34.7,10,50.2c1.8,4.3,0.2,9.2-3.7,11.6l-41.2,25.3C962.8,2491.5,954.8,2487,954.8,2479.6z
			 M1122.1,2597.8c0,7.3-8,11.8-14.3,8l-128.7-79.1c-5.9-3.7-5.9-12.3,0-15.9l44.2-27.2c3.9-2.4,9-1.6,12,1.9
			c19.8,23.1,47.4,39.2,78.7,44.1c4.6,0.7,8,4.6,8,9.2V2597.8z M1122.1,2451.6c0,5-5.6,8-9.8,5.2c-6.5-4.5-12.5-9.6-18-15.2
			c-14.9-15.6-26.1-36.8-30.9-57.7c-1.2-5.3,4.7-9.5,9.4-6.6l43.3,26.6c3.7,2.3,6,6.3,6,10.6V2451.6z M1128,2381.9l-58.7-36.1
			c-3.8-2.3-5.5-7.1-3.9-11.2c0.8-2,1.7-3.9,2.7-5.7c8.4-15.8,23.8-26.6,41.2-30.9c8.1-2,16.5-3,25.2-3c30.8,0,58.6,13.3,77.9,34.4
			c2.7,2.9,2,7.5-1.4,9.5l-70,43.1C1137.1,2384.3,1132,2384.3,1128,2381.9z M1289.9,2526.7l-128.7,79.1c-6.2,3.8-14.3-0.7-14.3-8
			v-59c0-4.6,3.4-8.5,8-9.2c31.3-4.9,59-21.1,78.7-44.1c3-3.5,8.1-4.3,12-1.9l44.2,27.2C1295.9,2514.4,1295.9,2523,1289.9,2526.7z
			 M1314.3,2479.6c0,7.3-8,11.8-14.3,8l-41.2-25.3c-3.9-2.4-5.5-7.4-3.7-11.6c6.5-15.4,10-32.4,10-50.2c0-17.8-3.6-34.7-10-50.1
			c-1.8-4.3-0.2-9.2,3.7-11.6l41.2-25.3c6.2-3.8,14.3,0.7,14.3,8V2479.6z"/>
	</g>
</g>
</svg>
